%TF.GenerationSoftware,KiCad,Pcbnew,9.0.6*%
%TF.CreationDate,2025-11-20T03:37:51-08:00*%
%TF.ProjectId,Distance sensor PSC,44697374-616e-4636-9520-73656e736f72,2.0*%
%TF.SameCoordinates,Original*%
%TF.FileFunction,Legend,Bot*%
%TF.FilePolarity,Positive*%
%FSLAX46Y46*%
G04 Gerber Fmt 4.6, Leading zero omitted, Abs format (unit mm)*
G04 Created by KiCad (PCBNEW 9.0.6) date 2025-11-20 03:37:51*
%MOMM*%
%LPD*%
G01*
G04 APERTURE LIST*
G04 Aperture macros list*
%AMRoundRect*
0 Rectangle with rounded corners*
0 $1 Rounding radius*
0 $2 $3 $4 $5 $6 $7 $8 $9 X,Y pos of 4 corners*
0 Add a 4 corners polygon primitive as box body*
4,1,4,$2,$3,$4,$5,$6,$7,$8,$9,$2,$3,0*
0 Add four circle primitives for the rounded corners*
1,1,$1+$1,$2,$3*
1,1,$1+$1,$4,$5*
1,1,$1+$1,$6,$7*
1,1,$1+$1,$8,$9*
0 Add four rect primitives between the rounded corners*
20,1,$1+$1,$2,$3,$4,$5,0*
20,1,$1+$1,$4,$5,$6,$7,0*
20,1,$1+$1,$6,$7,$8,$9,0*
20,1,$1+$1,$8,$9,$2,$3,0*%
G04 Aperture macros list end*
%ADD10C,0.100000*%
%ADD11C,0.150000*%
%ADD12C,0.120000*%
%ADD13C,1.600000*%
%ADD14C,2.500000*%
%ADD15RoundRect,0.250000X-1.050000X-0.550000X1.050000X-0.550000X1.050000X0.550000X-1.050000X0.550000X0*%
%ADD16O,2.600000X1.600000*%
%ADD17R,1.800000X1.800000*%
%ADD18C,1.800000*%
%ADD19R,1.700000X1.700000*%
%ADD20C,1.700000*%
%ADD21C,2.700000*%
G04 APERTURE END LIST*
D10*
X144910691Y-113491175D02*
X144910691Y-113967366D01*
X145244024Y-112967366D02*
X144910691Y-113491175D01*
X144910691Y-113491175D02*
X144577358Y-112967366D01*
X143863072Y-113919747D02*
X143958310Y-113967366D01*
X143958310Y-113967366D02*
X144148786Y-113967366D01*
X144148786Y-113967366D02*
X144244024Y-113919747D01*
X144244024Y-113919747D02*
X144291643Y-113824508D01*
X144291643Y-113824508D02*
X144291643Y-113443556D01*
X144291643Y-113443556D02*
X144244024Y-113348318D01*
X144244024Y-113348318D02*
X144148786Y-113300699D01*
X144148786Y-113300699D02*
X143958310Y-113300699D01*
X143958310Y-113300699D02*
X143863072Y-113348318D01*
X143863072Y-113348318D02*
X143815453Y-113443556D01*
X143815453Y-113443556D02*
X143815453Y-113538794D01*
X143815453Y-113538794D02*
X144291643Y-113634032D01*
X143244024Y-113967366D02*
X143339262Y-113919747D01*
X143339262Y-113919747D02*
X143386881Y-113824508D01*
X143386881Y-113824508D02*
X143386881Y-112967366D01*
X142720214Y-113967366D02*
X142815452Y-113919747D01*
X142815452Y-113919747D02*
X142863071Y-113824508D01*
X142863071Y-113824508D02*
X142863071Y-112967366D01*
X142196404Y-113967366D02*
X142291642Y-113919747D01*
X142291642Y-113919747D02*
X142339261Y-113872127D01*
X142339261Y-113872127D02*
X142386880Y-113776889D01*
X142386880Y-113776889D02*
X142386880Y-113491175D01*
X142386880Y-113491175D02*
X142339261Y-113395937D01*
X142339261Y-113395937D02*
X142291642Y-113348318D01*
X142291642Y-113348318D02*
X142196404Y-113300699D01*
X142196404Y-113300699D02*
X142053547Y-113300699D01*
X142053547Y-113300699D02*
X141958309Y-113348318D01*
X141958309Y-113348318D02*
X141910690Y-113395937D01*
X141910690Y-113395937D02*
X141863071Y-113491175D01*
X141863071Y-113491175D02*
X141863071Y-113776889D01*
X141863071Y-113776889D02*
X141910690Y-113872127D01*
X141910690Y-113872127D02*
X141958309Y-113919747D01*
X141958309Y-113919747D02*
X142053547Y-113967366D01*
X142053547Y-113967366D02*
X142196404Y-113967366D01*
X141529737Y-113300699D02*
X141339261Y-113967366D01*
X141339261Y-113967366D02*
X141148785Y-113491175D01*
X141148785Y-113491175D02*
X140958309Y-113967366D01*
X140958309Y-113967366D02*
X140767833Y-113300699D01*
D11*
X151091792Y-113869819D02*
X151425125Y-113393628D01*
X151663220Y-113869819D02*
X151663220Y-112869819D01*
X151663220Y-112869819D02*
X151282268Y-112869819D01*
X151282268Y-112869819D02*
X151187030Y-112917438D01*
X151187030Y-112917438D02*
X151139411Y-112965057D01*
X151139411Y-112965057D02*
X151091792Y-113060295D01*
X151091792Y-113060295D02*
X151091792Y-113203152D01*
X151091792Y-113203152D02*
X151139411Y-113298390D01*
X151139411Y-113298390D02*
X151187030Y-113346009D01*
X151187030Y-113346009D02*
X151282268Y-113393628D01*
X151282268Y-113393628D02*
X151663220Y-113393628D01*
X150663220Y-113346009D02*
X150329887Y-113346009D01*
X150187030Y-113869819D02*
X150663220Y-113869819D01*
X150663220Y-113869819D02*
X150663220Y-112869819D01*
X150663220Y-112869819D02*
X150187030Y-112869819D01*
X149758458Y-113869819D02*
X149758458Y-112869819D01*
X149758458Y-112869819D02*
X149520363Y-112869819D01*
X149520363Y-112869819D02*
X149377506Y-112917438D01*
X149377506Y-112917438D02*
X149282268Y-113012676D01*
X149282268Y-113012676D02*
X149234649Y-113107914D01*
X149234649Y-113107914D02*
X149187030Y-113298390D01*
X149187030Y-113298390D02*
X149187030Y-113441247D01*
X149187030Y-113441247D02*
X149234649Y-113631723D01*
X149234649Y-113631723D02*
X149282268Y-113726961D01*
X149282268Y-113726961D02*
X149377506Y-113822200D01*
X149377506Y-113822200D02*
X149520363Y-113869819D01*
X149520363Y-113869819D02*
X149758458Y-113869819D01*
D10*
X136545415Y-113386587D02*
X136402558Y-113434206D01*
X136402558Y-113434206D02*
X136354939Y-113481825D01*
X136354939Y-113481825D02*
X136307320Y-113577063D01*
X136307320Y-113577063D02*
X136307320Y-113719920D01*
X136307320Y-113719920D02*
X136354939Y-113815158D01*
X136354939Y-113815158D02*
X136402558Y-113862778D01*
X136402558Y-113862778D02*
X136497796Y-113910397D01*
X136497796Y-113910397D02*
X136878748Y-113910397D01*
X136878748Y-113910397D02*
X136878748Y-112910397D01*
X136878748Y-112910397D02*
X136545415Y-112910397D01*
X136545415Y-112910397D02*
X136450177Y-112958016D01*
X136450177Y-112958016D02*
X136402558Y-113005635D01*
X136402558Y-113005635D02*
X136354939Y-113100873D01*
X136354939Y-113100873D02*
X136354939Y-113196111D01*
X136354939Y-113196111D02*
X136402558Y-113291349D01*
X136402558Y-113291349D02*
X136450177Y-113338968D01*
X136450177Y-113338968D02*
X136545415Y-113386587D01*
X136545415Y-113386587D02*
X136878748Y-113386587D01*
X135735891Y-113910397D02*
X135831129Y-113862778D01*
X135831129Y-113862778D02*
X135878748Y-113767539D01*
X135878748Y-113767539D02*
X135878748Y-112910397D01*
X134926367Y-113243730D02*
X134926367Y-113910397D01*
X135354938Y-113243730D02*
X135354938Y-113767539D01*
X135354938Y-113767539D02*
X135307319Y-113862778D01*
X135307319Y-113862778D02*
X135212081Y-113910397D01*
X135212081Y-113910397D02*
X135069224Y-113910397D01*
X135069224Y-113910397D02*
X134973986Y-113862778D01*
X134973986Y-113862778D02*
X134926367Y-113815158D01*
X134069224Y-113862778D02*
X134164462Y-113910397D01*
X134164462Y-113910397D02*
X134354938Y-113910397D01*
X134354938Y-113910397D02*
X134450176Y-113862778D01*
X134450176Y-113862778D02*
X134497795Y-113767539D01*
X134497795Y-113767539D02*
X134497795Y-113386587D01*
X134497795Y-113386587D02*
X134450176Y-113291349D01*
X134450176Y-113291349D02*
X134354938Y-113243730D01*
X134354938Y-113243730D02*
X134164462Y-113243730D01*
X134164462Y-113243730D02*
X134069224Y-113291349D01*
X134069224Y-113291349D02*
X134021605Y-113386587D01*
X134021605Y-113386587D02*
X134021605Y-113481825D01*
X134021605Y-113481825D02*
X134497795Y-113577063D01*
D11*
X139238094Y-114454819D02*
X139238094Y-113454819D01*
X139238094Y-113454819D02*
X138999999Y-113454819D01*
X138999999Y-113454819D02*
X138857142Y-113502438D01*
X138857142Y-113502438D02*
X138761904Y-113597676D01*
X138761904Y-113597676D02*
X138714285Y-113692914D01*
X138714285Y-113692914D02*
X138666666Y-113883390D01*
X138666666Y-113883390D02*
X138666666Y-114026247D01*
X138666666Y-114026247D02*
X138714285Y-114216723D01*
X138714285Y-114216723D02*
X138761904Y-114311961D01*
X138761904Y-114311961D02*
X138857142Y-114407200D01*
X138857142Y-114407200D02*
X138999999Y-114454819D01*
X138999999Y-114454819D02*
X139238094Y-114454819D01*
X138333332Y-113454819D02*
X137714285Y-113454819D01*
X137714285Y-113454819D02*
X138047618Y-113835771D01*
X138047618Y-113835771D02*
X137904761Y-113835771D01*
X137904761Y-113835771D02*
X137809523Y-113883390D01*
X137809523Y-113883390D02*
X137761904Y-113931009D01*
X137761904Y-113931009D02*
X137714285Y-114026247D01*
X137714285Y-114026247D02*
X137714285Y-114264342D01*
X137714285Y-114264342D02*
X137761904Y-114359580D01*
X137761904Y-114359580D02*
X137809523Y-114407200D01*
X137809523Y-114407200D02*
X137904761Y-114454819D01*
X137904761Y-114454819D02*
X138190475Y-114454819D01*
X138190475Y-114454819D02*
X138285713Y-114407200D01*
X138285713Y-114407200D02*
X138333332Y-114359580D01*
X149764819Y-68353095D02*
X150574342Y-68353095D01*
X150574342Y-68353095D02*
X150669580Y-68400714D01*
X150669580Y-68400714D02*
X150717200Y-68448333D01*
X150717200Y-68448333D02*
X150764819Y-68543571D01*
X150764819Y-68543571D02*
X150764819Y-68734047D01*
X150764819Y-68734047D02*
X150717200Y-68829285D01*
X150717200Y-68829285D02*
X150669580Y-68876904D01*
X150669580Y-68876904D02*
X150574342Y-68924523D01*
X150574342Y-68924523D02*
X149764819Y-68924523D01*
X150764819Y-69924523D02*
X150764819Y-69353095D01*
X150764819Y-69638809D02*
X149764819Y-69638809D01*
X149764819Y-69638809D02*
X149907676Y-69543571D01*
X149907676Y-69543571D02*
X150002914Y-69448333D01*
X150002914Y-69448333D02*
X150050533Y-69353095D01*
X144783904Y-74454819D02*
X144783904Y-75264342D01*
X144783904Y-75264342D02*
X144736285Y-75359580D01*
X144736285Y-75359580D02*
X144688666Y-75407200D01*
X144688666Y-75407200D02*
X144593428Y-75454819D01*
X144593428Y-75454819D02*
X144402952Y-75454819D01*
X144402952Y-75454819D02*
X144307714Y-75407200D01*
X144307714Y-75407200D02*
X144260095Y-75359580D01*
X144260095Y-75359580D02*
X144212476Y-75264342D01*
X144212476Y-75264342D02*
X144212476Y-74454819D01*
X143783904Y-74550057D02*
X143736285Y-74502438D01*
X143736285Y-74502438D02*
X143641047Y-74454819D01*
X143641047Y-74454819D02*
X143402952Y-74454819D01*
X143402952Y-74454819D02*
X143307714Y-74502438D01*
X143307714Y-74502438D02*
X143260095Y-74550057D01*
X143260095Y-74550057D02*
X143212476Y-74645295D01*
X143212476Y-74645295D02*
X143212476Y-74740533D01*
X143212476Y-74740533D02*
X143260095Y-74883390D01*
X143260095Y-74883390D02*
X143831523Y-75454819D01*
X143831523Y-75454819D02*
X143212476Y-75454819D01*
X154738094Y-114454819D02*
X154738094Y-113454819D01*
X154738094Y-113454819D02*
X154499999Y-113454819D01*
X154499999Y-113454819D02*
X154357142Y-113502438D01*
X154357142Y-113502438D02*
X154261904Y-113597676D01*
X154261904Y-113597676D02*
X154214285Y-113692914D01*
X154214285Y-113692914D02*
X154166666Y-113883390D01*
X154166666Y-113883390D02*
X154166666Y-114026247D01*
X154166666Y-114026247D02*
X154214285Y-114216723D01*
X154214285Y-114216723D02*
X154261904Y-114311961D01*
X154261904Y-114311961D02*
X154357142Y-114407200D01*
X154357142Y-114407200D02*
X154499999Y-114454819D01*
X154499999Y-114454819D02*
X154738094Y-114454819D01*
X153214285Y-114454819D02*
X153785713Y-114454819D01*
X153499999Y-114454819D02*
X153499999Y-113454819D01*
X153499999Y-113454819D02*
X153595237Y-113597676D01*
X153595237Y-113597676D02*
X153690475Y-113692914D01*
X153690475Y-113692914D02*
X153785713Y-113740533D01*
X147238094Y-114454819D02*
X147238094Y-113454819D01*
X147238094Y-113454819D02*
X146999999Y-113454819D01*
X146999999Y-113454819D02*
X146857142Y-113502438D01*
X146857142Y-113502438D02*
X146761904Y-113597676D01*
X146761904Y-113597676D02*
X146714285Y-113692914D01*
X146714285Y-113692914D02*
X146666666Y-113883390D01*
X146666666Y-113883390D02*
X146666666Y-114026247D01*
X146666666Y-114026247D02*
X146714285Y-114216723D01*
X146714285Y-114216723D02*
X146761904Y-114311961D01*
X146761904Y-114311961D02*
X146857142Y-114407200D01*
X146857142Y-114407200D02*
X146999999Y-114454819D01*
X146999999Y-114454819D02*
X147238094Y-114454819D01*
X146285713Y-113550057D02*
X146238094Y-113502438D01*
X146238094Y-113502438D02*
X146142856Y-113454819D01*
X146142856Y-113454819D02*
X145904761Y-113454819D01*
X145904761Y-113454819D02*
X145809523Y-113502438D01*
X145809523Y-113502438D02*
X145761904Y-113550057D01*
X145761904Y-113550057D02*
X145714285Y-113645295D01*
X145714285Y-113645295D02*
X145714285Y-113740533D01*
X145714285Y-113740533D02*
X145761904Y-113883390D01*
X145761904Y-113883390D02*
X146333332Y-114454819D01*
X146333332Y-114454819D02*
X145714285Y-114454819D01*
D12*
%TO.C,D3*%
X138790000Y-108455000D02*
X138790000Y-111545000D01*
X133240000Y-110000000D02*
G75*
G02*
X138790000Y-108455170I2990000J0D01*
G01*
X138790000Y-111544830D02*
G75*
G02*
X133240000Y-110000000I-2560000J1544830D01*
G01*
X138730000Y-110000000D02*
G75*
G02*
X133730000Y-110000000I-2500000J0D01*
G01*
X133730000Y-110000000D02*
G75*
G02*
X138730000Y-110000000I2500000J0D01*
G01*
%TO.C,U1*%
X139040000Y-69350000D02*
X149420000Y-69350000D01*
X139040000Y-72110000D02*
X139040000Y-69350000D01*
X139990000Y-63350000D02*
X139990000Y-69350000D01*
X139990000Y-72422642D02*
X139990000Y-72110000D01*
X140850000Y-63350000D02*
X139990000Y-63350000D01*
X140850000Y-69350000D02*
X140850000Y-63350000D01*
X140850000Y-72422642D02*
X140850000Y-72110000D01*
X141690000Y-72110000D02*
X141690000Y-69350000D01*
X142530000Y-63350000D02*
X142530000Y-69350000D01*
X142530000Y-72422642D02*
X142530000Y-72110000D01*
X143390000Y-63350000D02*
X142530000Y-63350000D01*
X143390000Y-69350000D02*
X143390000Y-63350000D01*
X143390000Y-72422642D02*
X143390000Y-72110000D01*
X144230000Y-72110000D02*
X144230000Y-69350000D01*
X145070000Y-63350000D02*
X145070000Y-69350000D01*
X145070000Y-72422642D02*
X145070000Y-72110000D01*
X145930000Y-63350000D02*
X145070000Y-63350000D01*
X145930000Y-69350000D02*
X145930000Y-63350000D01*
X145930000Y-72422642D02*
X145930000Y-72110000D01*
X146770000Y-72110000D02*
X146770000Y-69350000D01*
X147610000Y-72340000D02*
X147610000Y-72110000D01*
X148040000Y-74770000D02*
X149310000Y-74770000D01*
X148470000Y-72340000D02*
X148470000Y-72110000D01*
X149310000Y-74770000D02*
X149310000Y-73500000D01*
X149420000Y-69350000D02*
X149420000Y-72110000D01*
X149420000Y-72110000D02*
X139040000Y-72110000D01*
X148470000Y-69350000D02*
X147610000Y-69350000D01*
X147610000Y-63350000D01*
X148470000Y-63350000D01*
X148470000Y-69350000D01*
G36*
X148470000Y-69350000D02*
G01*
X147610000Y-69350000D01*
X147610000Y-63350000D01*
X148470000Y-63350000D01*
X148470000Y-69350000D01*
G37*
%TO.C,U2*%
X126386000Y-80000000D02*
X126386000Y-109464000D01*
X129434000Y-85478000D02*
X129434000Y-100176000D01*
X129544000Y-76842000D02*
X158500000Y-76842000D01*
X130894000Y-112622000D02*
X129542000Y-112622000D01*
X132702000Y-106526000D02*
X132702000Y-110814000D01*
X155342000Y-106526000D02*
X132702000Y-106526000D01*
X155342000Y-106526000D02*
X155342000Y-110814000D01*
X157150000Y-112622000D02*
X158502000Y-112622000D01*
X158610000Y-85478000D02*
X129434000Y-85478000D01*
X158610000Y-85478000D02*
X158610000Y-100176000D01*
X158610000Y-100176000D02*
X129434000Y-100176000D01*
X161658000Y-80000000D02*
X161658000Y-109464000D01*
X126386000Y-80000000D02*
G75*
G02*
X129544000Y-76842000I3158000J0D01*
G01*
X129544000Y-112622000D02*
G75*
G02*
X126386000Y-109464000I0J3158000D01*
G01*
X132702000Y-110812000D02*
G75*
G02*
X130896000Y-112622000I-1808000J-2000D01*
G01*
X157148000Y-112622000D02*
G75*
G02*
X155342000Y-110812000I2000J1808000D01*
G01*
X158500000Y-76842000D02*
G75*
G02*
X161658000Y-80000000I-1J-3158001D01*
G01*
X161658000Y-109464000D02*
G75*
G02*
X158500000Y-112622000I-3158001J1D01*
G01*
%TO.C,D1*%
X154290000Y-108455000D02*
X154290000Y-111545000D01*
X148740000Y-110000000D02*
G75*
G02*
X154290000Y-108455170I2990000J0D01*
G01*
X154290000Y-111544830D02*
G75*
G02*
X148740000Y-110000000I-2560000J1544830D01*
G01*
X154230000Y-110000000D02*
G75*
G02*
X149230000Y-110000000I-2500000J0D01*
G01*
X149230000Y-110000000D02*
G75*
G02*
X154230000Y-110000000I2500000J0D01*
G01*
%TO.C,D2*%
X146540000Y-108455000D02*
X146540000Y-111545000D01*
X140990000Y-110000000D02*
G75*
G02*
X146540000Y-108455170I2990000J0D01*
G01*
X146540000Y-111544830D02*
G75*
G02*
X140990000Y-110000000I-2560000J1544830D01*
G01*
X146480000Y-110000000D02*
G75*
G02*
X141480000Y-110000000I-2500000J0D01*
G01*
X141480000Y-110000000D02*
G75*
G02*
X146480000Y-110000000I2500000J0D01*
G01*
%TD*%
%LPC*%
D13*
%TO.C,R4*%
X127000000Y-69500000D03*
X119380000Y-69500000D03*
%TD*%
%TO.C,R5*%
X119380000Y-63500000D03*
X127000000Y-63500000D03*
%TD*%
%TO.C,R2*%
X128940000Y-120250000D03*
X136560000Y-120250000D03*
%TD*%
D14*
%TO.C,REF\u002A\u002A*%
X172500000Y-51500000D03*
%TD*%
D15*
%TO.C,A1*%
X96480000Y-71340000D03*
D16*
X96480000Y-73880000D03*
X96480000Y-76420000D03*
X96480000Y-78960000D03*
X96480000Y-81500000D03*
X96480000Y-84040000D03*
X96480000Y-86580000D03*
X96480000Y-89120000D03*
X96480000Y-91660000D03*
X96480000Y-94200000D03*
X96480000Y-96740000D03*
X96480000Y-99280000D03*
X96480000Y-101820000D03*
X96480000Y-104360000D03*
X96480000Y-106900000D03*
X96480000Y-109440000D03*
X116200000Y-109440000D03*
X116200000Y-106900000D03*
X116200000Y-104360000D03*
X116200000Y-101820000D03*
X116200000Y-99280000D03*
X116200000Y-96740000D03*
X116200000Y-94200000D03*
X116200000Y-91660000D03*
X116200000Y-89120000D03*
X116200000Y-86580000D03*
X116200000Y-84040000D03*
X116200000Y-81500000D03*
%TD*%
D14*
%TO.C,REF\u002A\u002A*%
X92500000Y-51500000D03*
%TD*%
D13*
%TO.C,R1*%
X128880000Y-129250000D03*
X136500000Y-129250000D03*
%TD*%
%TO.C,R3*%
X128940000Y-124750000D03*
X136560000Y-124750000D03*
%TD*%
D14*
%TO.C,REF\u002A\u002A*%
X172500000Y-129000000D03*
%TD*%
%TO.C,REF\u002A\u002A*%
X92500000Y-129000000D03*
%TD*%
D17*
%TO.C,D3*%
X137500000Y-110000000D03*
D18*
X134960000Y-110000000D03*
%TD*%
D19*
%TO.C,U1*%
X148040000Y-73500000D03*
D20*
X145500000Y-73500000D03*
X142960000Y-73500000D03*
X140420000Y-73500000D03*
%TD*%
D21*
%TO.C,U2*%
X158500000Y-109464000D03*
X158500000Y-80000000D03*
X129544000Y-109464000D03*
X129544000Y-80000000D03*
D19*
X152912000Y-80000000D03*
D20*
X150372000Y-80000000D03*
X147832000Y-80000000D03*
X145292000Y-80000000D03*
X142752000Y-80000000D03*
X140212000Y-80000000D03*
X137672000Y-80000000D03*
X135132000Y-80000000D03*
%TD*%
D17*
%TO.C,D1*%
X153000000Y-110000000D03*
D18*
X150460000Y-110000000D03*
%TD*%
D17*
%TO.C,D2*%
X145250000Y-110000000D03*
D18*
X142710000Y-110000000D03*
%TD*%
%LPD*%
M02*
