M48
; DRILL file {KiCad 9.0.6} date 2025-11-20T03:41:11-0800
; FORMAT={-:-/ absolute / inch / decimal}
; #@! TF.CreationDate,2025-11-20T03:41:11-08:00
; #@! TF.GenerationSoftware,Kicad,Pcbnew,9.0.6
; #@! TF.FileFunction,Plated,1,2,PTH
FMAT,2
INCH
; #@! TA.AperFunction,Plated,PTH,ViaDrill
T1C0.0118
; #@! TA.AperFunction,Plated,PTH,ComponentDrill
T2C0.0315
; #@! TA.AperFunction,Plated,PTH,ComponentDrill
T3C0.0354
; #@! TA.AperFunction,Plated,PTH,ComponentDrill
T4C0.0394
%
G90
G05
T1
X3.6417Y-3.1102
X4.311Y-2.9134
X4.4291Y-4.0157
X4.5079Y-2.4016
X4.7047Y-3.9173
X4.9803Y-3.0709
X5.0761Y-2.8543
X5.1969Y-2.3228
X5.4134Y-2.7756
X5.5118Y-4.5276
X5.7087Y-2.8543
X5.7874Y-4.5472
X5.9646Y-2.9724
X6.1417Y-4.5669
X6.2402Y-2.6181
T2
X4.7Y-2.5
X4.7Y-2.7362
X5.0Y-2.5
X5.0Y-2.7362
X5.074Y-5.0886
X5.0764Y-4.7343
X5.0764Y-4.9114
X5.374Y-5.0886
X5.3764Y-4.7343
X5.3764Y-4.9114
T3
X5.3134Y-4.3307
X5.4134Y-4.3307
X5.6185Y-4.3307
X5.7185Y-4.3307
X5.9236Y-4.3307
X6.0236Y-4.3307
T4
X3.7866Y-2.8087
X3.7866Y-2.9087
X3.7866Y-3.0087
X3.7866Y-3.1087
X3.7866Y-3.2087
X3.7866Y-3.3087
X3.7866Y-3.4087
X3.7866Y-3.5087
X3.7866Y-3.6087
X3.7866Y-3.7087
X3.7866Y-3.8087
X3.7866Y-3.9087
X3.7866Y-4.0087
X3.7866Y-4.1087
X3.7866Y-4.2087
X3.7866Y-4.3087
X4.5866Y-3.2087
X4.5866Y-3.3087
X4.5866Y-3.4087
X4.5866Y-3.5087
X4.5866Y-3.6087
X4.5866Y-3.7087
X4.5866Y-3.8087
X4.5866Y-3.9087
X4.5866Y-4.0087
X4.5866Y-4.1087
X4.5866Y-4.2087
X4.5866Y-4.3087
X5.3202Y-3.1496
X5.4202Y-3.1496
X5.5202Y-3.1496
X5.5283Y-2.8937
X5.6202Y-3.1496
X5.6283Y-2.8937
X5.7202Y-3.1496
X5.7283Y-2.8937
X5.8202Y-3.1496
X5.8283Y-2.8937
X5.9202Y-3.1496
X6.0202Y-3.1496
M30
