%TF.GenerationSoftware,KiCad,Pcbnew,9.0.6*%
%TF.CreationDate,2025-11-20T03:37:51-08:00*%
%TF.ProjectId,Distance sensor PSC,44697374-616e-4636-9520-73656e736f72,2.0*%
%TF.SameCoordinates,Original*%
%TF.FileFunction,Soldermask,Bot*%
%TF.FilePolarity,Negative*%
%FSLAX46Y46*%
G04 Gerber Fmt 4.6, Leading zero omitted, Abs format (unit mm)*
G04 Created by KiCad (PCBNEW 9.0.6) date 2025-11-20 03:37:51*
%MOMM*%
%LPD*%
G01*
G04 APERTURE LIST*
G04 Aperture macros list*
%AMRoundRect*
0 Rectangle with rounded corners*
0 $1 Rounding radius*
0 $2 $3 $4 $5 $6 $7 $8 $9 X,Y pos of 4 corners*
0 Add a 4 corners polygon primitive as box body*
4,1,4,$2,$3,$4,$5,$6,$7,$8,$9,$2,$3,0*
0 Add four circle primitives for the rounded corners*
1,1,$1+$1,$2,$3*
1,1,$1+$1,$4,$5*
1,1,$1+$1,$6,$7*
1,1,$1+$1,$8,$9*
0 Add four rect primitives between the rounded corners*
20,1,$1+$1,$2,$3,$4,$5,0*
20,1,$1+$1,$4,$5,$6,$7,0*
20,1,$1+$1,$6,$7,$8,$9,0*
20,1,$1+$1,$8,$9,$2,$3,0*%
G04 Aperture macros list end*
%ADD10C,1.600000*%
%ADD11C,2.500000*%
%ADD12RoundRect,0.250000X-1.050000X-0.550000X1.050000X-0.550000X1.050000X0.550000X-1.050000X0.550000X0*%
%ADD13O,2.600000X1.600000*%
%ADD14R,1.800000X1.800000*%
%ADD15C,1.800000*%
%ADD16R,1.700000X1.700000*%
%ADD17C,1.700000*%
%ADD18C,2.700000*%
G04 APERTURE END LIST*
D10*
%TO.C,R4*%
X127000000Y-69500000D03*
X119380000Y-69500000D03*
%TD*%
%TO.C,R5*%
X119380000Y-63500000D03*
X127000000Y-63500000D03*
%TD*%
%TO.C,R2*%
X128940000Y-120250000D03*
X136560000Y-120250000D03*
%TD*%
D11*
%TO.C,REF\u002A\u002A*%
X172500000Y-51500000D03*
%TD*%
D12*
%TO.C,A1*%
X96480000Y-71340000D03*
D13*
X96480000Y-73880000D03*
X96480000Y-76420000D03*
X96480000Y-78960000D03*
X96480000Y-81500000D03*
X96480000Y-84040000D03*
X96480000Y-86580000D03*
X96480000Y-89120000D03*
X96480000Y-91660000D03*
X96480000Y-94200000D03*
X96480000Y-96740000D03*
X96480000Y-99280000D03*
X96480000Y-101820000D03*
X96480000Y-104360000D03*
X96480000Y-106900000D03*
X96480000Y-109440000D03*
X116200000Y-109440000D03*
X116200000Y-106900000D03*
X116200000Y-104360000D03*
X116200000Y-101820000D03*
X116200000Y-99280000D03*
X116200000Y-96740000D03*
X116200000Y-94200000D03*
X116200000Y-91660000D03*
X116200000Y-89120000D03*
X116200000Y-86580000D03*
X116200000Y-84040000D03*
X116200000Y-81500000D03*
%TD*%
D11*
%TO.C,REF\u002A\u002A*%
X92500000Y-51500000D03*
%TD*%
D10*
%TO.C,R1*%
X128880000Y-129250000D03*
X136500000Y-129250000D03*
%TD*%
%TO.C,R3*%
X128940000Y-124750000D03*
X136560000Y-124750000D03*
%TD*%
D11*
%TO.C,REF\u002A\u002A*%
X172500000Y-129000000D03*
%TD*%
%TO.C,REF\u002A\u002A*%
X92500000Y-129000000D03*
%TD*%
D14*
%TO.C,D3*%
X137500000Y-110000000D03*
D15*
X134960000Y-110000000D03*
%TD*%
D16*
%TO.C,U1*%
X148040000Y-73500000D03*
D17*
X145500000Y-73500000D03*
X142960000Y-73500000D03*
X140420000Y-73500000D03*
%TD*%
D18*
%TO.C,U2*%
X158500000Y-109464000D03*
X158500000Y-80000000D03*
X129544000Y-109464000D03*
X129544000Y-80000000D03*
D16*
X152912000Y-80000000D03*
D17*
X150372000Y-80000000D03*
X147832000Y-80000000D03*
X145292000Y-80000000D03*
X142752000Y-80000000D03*
X140212000Y-80000000D03*
X137672000Y-80000000D03*
X135132000Y-80000000D03*
%TD*%
D14*
%TO.C,D1*%
X153000000Y-110000000D03*
D15*
X150460000Y-110000000D03*
%TD*%
D14*
%TO.C,D2*%
X145250000Y-110000000D03*
D15*
X142710000Y-110000000D03*
%TD*%
M02*
