%TF.GenerationSoftware,KiCad,Pcbnew,9.0.6*%
%TF.CreationDate,2025-11-20T03:37:51-08:00*%
%TF.ProjectId,Distance sensor PSC,44697374-616e-4636-9520-73656e736f72,2.0*%
%TF.SameCoordinates,Original*%
%TF.FileFunction,Copper,L1,Top*%
%TF.FilePolarity,Positive*%
%FSLAX46Y46*%
G04 Gerber Fmt 4.6, Leading zero omitted, Abs format (unit mm)*
G04 Created by KiCad (PCBNEW 9.0.6) date 2025-11-20 03:37:51*
%MOMM*%
%LPD*%
G01*
G04 APERTURE LIST*
G04 Aperture macros list*
%AMRoundRect*
0 Rectangle with rounded corners*
0 $1 Rounding radius*
0 $2 $3 $4 $5 $6 $7 $8 $9 X,Y pos of 4 corners*
0 Add a 4 corners polygon primitive as box body*
4,1,4,$2,$3,$4,$5,$6,$7,$8,$9,$2,$3,0*
0 Add four circle primitives for the rounded corners*
1,1,$1+$1,$2,$3*
1,1,$1+$1,$4,$5*
1,1,$1+$1,$6,$7*
1,1,$1+$1,$8,$9*
0 Add four rect primitives between the rounded corners*
20,1,$1+$1,$2,$3,$4,$5,0*
20,1,$1+$1,$4,$5,$6,$7,0*
20,1,$1+$1,$6,$7,$8,$9,0*
20,1,$1+$1,$8,$9,$2,$3,0*%
G04 Aperture macros list end*
%ADD10C,0.300000*%
%TA.AperFunction,NonConductor*%
%ADD11C,0.300000*%
%TD*%
%TA.AperFunction,ComponentPad*%
%ADD12C,1.600000*%
%TD*%
%TA.AperFunction,ComponentPad*%
%ADD13RoundRect,0.250000X-1.050000X-0.550000X1.050000X-0.550000X1.050000X0.550000X-1.050000X0.550000X0*%
%TD*%
%TA.AperFunction,ComponentPad*%
%ADD14O,2.600000X1.600000*%
%TD*%
%TA.AperFunction,ComponentPad*%
%ADD15R,1.800000X1.800000*%
%TD*%
%TA.AperFunction,ComponentPad*%
%ADD16C,1.800000*%
%TD*%
%TA.AperFunction,ComponentPad*%
%ADD17R,1.700000X1.700000*%
%TD*%
%TA.AperFunction,ComponentPad*%
%ADD18C,1.700000*%
%TD*%
%TA.AperFunction,ViaPad*%
%ADD19C,0.600000*%
%TD*%
%TA.AperFunction,Conductor*%
%ADD20C,0.400000*%
%TD*%
%TA.AperFunction,Conductor*%
%ADD21C,0.700000*%
%TD*%
%TA.AperFunction,Conductor*%
%ADD22C,0.200000*%
%TD*%
G04 APERTURE END LIST*
D10*
D11*
X154840225Y-50970996D02*
X155697368Y-50970996D01*
X155268796Y-52470996D02*
X155268796Y-50970996D01*
X156768796Y-52399568D02*
X156625939Y-52470996D01*
X156625939Y-52470996D02*
X156340225Y-52470996D01*
X156340225Y-52470996D02*
X156197367Y-52399568D01*
X156197367Y-52399568D02*
X156125939Y-52256710D01*
X156125939Y-52256710D02*
X156125939Y-51685282D01*
X156125939Y-51685282D02*
X156197367Y-51542425D01*
X156197367Y-51542425D02*
X156340225Y-51470996D01*
X156340225Y-51470996D02*
X156625939Y-51470996D01*
X156625939Y-51470996D02*
X156768796Y-51542425D01*
X156768796Y-51542425D02*
X156840225Y-51685282D01*
X156840225Y-51685282D02*
X156840225Y-51828139D01*
X156840225Y-51828139D02*
X156125939Y-51970996D01*
X158125939Y-52470996D02*
X158125939Y-51685282D01*
X158125939Y-51685282D02*
X158054510Y-51542425D01*
X158054510Y-51542425D02*
X157911653Y-51470996D01*
X157911653Y-51470996D02*
X157625939Y-51470996D01*
X157625939Y-51470996D02*
X157483081Y-51542425D01*
X158125939Y-52399568D02*
X157983081Y-52470996D01*
X157983081Y-52470996D02*
X157625939Y-52470996D01*
X157625939Y-52470996D02*
X157483081Y-52399568D01*
X157483081Y-52399568D02*
X157411653Y-52256710D01*
X157411653Y-52256710D02*
X157411653Y-52113853D01*
X157411653Y-52113853D02*
X157483081Y-51970996D01*
X157483081Y-51970996D02*
X157625939Y-51899568D01*
X157625939Y-51899568D02*
X157983081Y-51899568D01*
X157983081Y-51899568D02*
X158125939Y-51828139D01*
X158840224Y-52470996D02*
X158840224Y-51470996D01*
X158840224Y-51613853D02*
X158911653Y-51542425D01*
X158911653Y-51542425D02*
X159054510Y-51470996D01*
X159054510Y-51470996D02*
X159268796Y-51470996D01*
X159268796Y-51470996D02*
X159411653Y-51542425D01*
X159411653Y-51542425D02*
X159483082Y-51685282D01*
X159483082Y-51685282D02*
X159483082Y-52470996D01*
X159483082Y-51685282D02*
X159554510Y-51542425D01*
X159554510Y-51542425D02*
X159697367Y-51470996D01*
X159697367Y-51470996D02*
X159911653Y-51470996D01*
X159911653Y-51470996D02*
X160054510Y-51542425D01*
X160054510Y-51542425D02*
X160125939Y-51685282D01*
X160125939Y-51685282D02*
X160125939Y-52470996D01*
X162768796Y-52470996D02*
X161911653Y-52470996D01*
X162340224Y-52470996D02*
X162340224Y-50970996D01*
X162340224Y-50970996D02*
X162197367Y-51185282D01*
X162197367Y-51185282D02*
X162054510Y-51328139D01*
X162054510Y-51328139D02*
X161911653Y-51399568D01*
X164125938Y-50970996D02*
X163411652Y-50970996D01*
X163411652Y-50970996D02*
X163340224Y-51685282D01*
X163340224Y-51685282D02*
X163411652Y-51613853D01*
X163411652Y-51613853D02*
X163554510Y-51542425D01*
X163554510Y-51542425D02*
X163911652Y-51542425D01*
X163911652Y-51542425D02*
X164054510Y-51613853D01*
X164054510Y-51613853D02*
X164125938Y-51685282D01*
X164125938Y-51685282D02*
X164197367Y-51828139D01*
X164197367Y-51828139D02*
X164197367Y-52185282D01*
X164197367Y-52185282D02*
X164125938Y-52328139D01*
X164125938Y-52328139D02*
X164054510Y-52399568D01*
X164054510Y-52399568D02*
X163911652Y-52470996D01*
X163911652Y-52470996D02*
X163554510Y-52470996D01*
X163554510Y-52470996D02*
X163411652Y-52399568D01*
X163411652Y-52399568D02*
X163340224Y-52328139D01*
X155911653Y-54885912D02*
X155411653Y-54171626D01*
X155054510Y-54885912D02*
X155054510Y-53385912D01*
X155054510Y-53385912D02*
X155625939Y-53385912D01*
X155625939Y-53385912D02*
X155768796Y-53457341D01*
X155768796Y-53457341D02*
X155840225Y-53528769D01*
X155840225Y-53528769D02*
X155911653Y-53671626D01*
X155911653Y-53671626D02*
X155911653Y-53885912D01*
X155911653Y-53885912D02*
X155840225Y-54028769D01*
X155840225Y-54028769D02*
X155768796Y-54100198D01*
X155768796Y-54100198D02*
X155625939Y-54171626D01*
X155625939Y-54171626D02*
X155054510Y-54171626D01*
X157125939Y-54814484D02*
X156983082Y-54885912D01*
X156983082Y-54885912D02*
X156697368Y-54885912D01*
X156697368Y-54885912D02*
X156554510Y-54814484D01*
X156554510Y-54814484D02*
X156483082Y-54671626D01*
X156483082Y-54671626D02*
X156483082Y-54100198D01*
X156483082Y-54100198D02*
X156554510Y-53957341D01*
X156554510Y-53957341D02*
X156697368Y-53885912D01*
X156697368Y-53885912D02*
X156983082Y-53885912D01*
X156983082Y-53885912D02*
X157125939Y-53957341D01*
X157125939Y-53957341D02*
X157197368Y-54100198D01*
X157197368Y-54100198D02*
X157197368Y-54243055D01*
X157197368Y-54243055D02*
X156483082Y-54385912D01*
X157697367Y-53885912D02*
X158054510Y-54885912D01*
X158054510Y-54885912D02*
X158411653Y-53885912D01*
X158983081Y-54743055D02*
X159054510Y-54814484D01*
X159054510Y-54814484D02*
X158983081Y-54885912D01*
X158983081Y-54885912D02*
X158911653Y-54814484D01*
X158911653Y-54814484D02*
X158983081Y-54743055D01*
X158983081Y-54743055D02*
X158983081Y-54885912D01*
X158983081Y-53957341D02*
X159054510Y-54028769D01*
X159054510Y-54028769D02*
X158983081Y-54100198D01*
X158983081Y-54100198D02*
X158911653Y-54028769D01*
X158911653Y-54028769D02*
X158983081Y-53957341D01*
X158983081Y-53957341D02*
X158983081Y-54100198D01*
X160697367Y-53385912D02*
X161625939Y-53385912D01*
X161625939Y-53385912D02*
X161125939Y-53957341D01*
X161125939Y-53957341D02*
X161340224Y-53957341D01*
X161340224Y-53957341D02*
X161483082Y-54028769D01*
X161483082Y-54028769D02*
X161554510Y-54100198D01*
X161554510Y-54100198D02*
X161625939Y-54243055D01*
X161625939Y-54243055D02*
X161625939Y-54600198D01*
X161625939Y-54600198D02*
X161554510Y-54743055D01*
X161554510Y-54743055D02*
X161483082Y-54814484D01*
X161483082Y-54814484D02*
X161340224Y-54885912D01*
X161340224Y-54885912D02*
X160911653Y-54885912D01*
X160911653Y-54885912D02*
X160768796Y-54814484D01*
X160768796Y-54814484D02*
X160697367Y-54743055D01*
X162268795Y-54743055D02*
X162340224Y-54814484D01*
X162340224Y-54814484D02*
X162268795Y-54885912D01*
X162268795Y-54885912D02*
X162197367Y-54814484D01*
X162197367Y-54814484D02*
X162268795Y-54743055D01*
X162268795Y-54743055D02*
X162268795Y-54885912D01*
X163268796Y-53385912D02*
X163411653Y-53385912D01*
X163411653Y-53385912D02*
X163554510Y-53457341D01*
X163554510Y-53457341D02*
X163625939Y-53528769D01*
X163625939Y-53528769D02*
X163697367Y-53671626D01*
X163697367Y-53671626D02*
X163768796Y-53957341D01*
X163768796Y-53957341D02*
X163768796Y-54314484D01*
X163768796Y-54314484D02*
X163697367Y-54600198D01*
X163697367Y-54600198D02*
X163625939Y-54743055D01*
X163625939Y-54743055D02*
X163554510Y-54814484D01*
X163554510Y-54814484D02*
X163411653Y-54885912D01*
X163411653Y-54885912D02*
X163268796Y-54885912D01*
X163268796Y-54885912D02*
X163125939Y-54814484D01*
X163125939Y-54814484D02*
X163054510Y-54743055D01*
X163054510Y-54743055D02*
X162983081Y-54600198D01*
X162983081Y-54600198D02*
X162911653Y-54314484D01*
X162911653Y-54314484D02*
X162911653Y-53957341D01*
X162911653Y-53957341D02*
X162983081Y-53671626D01*
X162983081Y-53671626D02*
X163054510Y-53528769D01*
X163054510Y-53528769D02*
X163125939Y-53457341D01*
X163125939Y-53457341D02*
X163268796Y-53385912D01*
X155840225Y-57300828D02*
X154983082Y-57300828D01*
X155411653Y-57300828D02*
X155411653Y-55800828D01*
X155411653Y-55800828D02*
X155268796Y-56015114D01*
X155268796Y-56015114D02*
X155125939Y-56157971D01*
X155125939Y-56157971D02*
X154983082Y-56229400D01*
X157268796Y-57300828D02*
X156411653Y-57300828D01*
X156840224Y-57300828D02*
X156840224Y-55800828D01*
X156840224Y-55800828D02*
X156697367Y-56015114D01*
X156697367Y-56015114D02*
X156554510Y-56157971D01*
X156554510Y-56157971D02*
X156411653Y-56229400D01*
X157911652Y-56729400D02*
X159054510Y-56729400D01*
X159697367Y-55943685D02*
X159768795Y-55872257D01*
X159768795Y-55872257D02*
X159911653Y-55800828D01*
X159911653Y-55800828D02*
X160268795Y-55800828D01*
X160268795Y-55800828D02*
X160411653Y-55872257D01*
X160411653Y-55872257D02*
X160483081Y-55943685D01*
X160483081Y-55943685D02*
X160554510Y-56086542D01*
X160554510Y-56086542D02*
X160554510Y-56229400D01*
X160554510Y-56229400D02*
X160483081Y-56443685D01*
X160483081Y-56443685D02*
X159625938Y-57300828D01*
X159625938Y-57300828D02*
X160554510Y-57300828D01*
X161483081Y-55800828D02*
X161625938Y-55800828D01*
X161625938Y-55800828D02*
X161768795Y-55872257D01*
X161768795Y-55872257D02*
X161840224Y-55943685D01*
X161840224Y-55943685D02*
X161911652Y-56086542D01*
X161911652Y-56086542D02*
X161983081Y-56372257D01*
X161983081Y-56372257D02*
X161983081Y-56729400D01*
X161983081Y-56729400D02*
X161911652Y-57015114D01*
X161911652Y-57015114D02*
X161840224Y-57157971D01*
X161840224Y-57157971D02*
X161768795Y-57229400D01*
X161768795Y-57229400D02*
X161625938Y-57300828D01*
X161625938Y-57300828D02*
X161483081Y-57300828D01*
X161483081Y-57300828D02*
X161340224Y-57229400D01*
X161340224Y-57229400D02*
X161268795Y-57157971D01*
X161268795Y-57157971D02*
X161197366Y-57015114D01*
X161197366Y-57015114D02*
X161125938Y-56729400D01*
X161125938Y-56729400D02*
X161125938Y-56372257D01*
X161125938Y-56372257D02*
X161197366Y-56086542D01*
X161197366Y-56086542D02*
X161268795Y-55943685D01*
X161268795Y-55943685D02*
X161340224Y-55872257D01*
X161340224Y-55872257D02*
X161483081Y-55800828D01*
X162625937Y-56729400D02*
X163768795Y-56729400D01*
X164411652Y-55943685D02*
X164483080Y-55872257D01*
X164483080Y-55872257D02*
X164625938Y-55800828D01*
X164625938Y-55800828D02*
X164983080Y-55800828D01*
X164983080Y-55800828D02*
X165125938Y-55872257D01*
X165125938Y-55872257D02*
X165197366Y-55943685D01*
X165197366Y-55943685D02*
X165268795Y-56086542D01*
X165268795Y-56086542D02*
X165268795Y-56229400D01*
X165268795Y-56229400D02*
X165197366Y-56443685D01*
X165197366Y-56443685D02*
X164340223Y-57300828D01*
X164340223Y-57300828D02*
X165268795Y-57300828D01*
X166197366Y-55800828D02*
X166340223Y-55800828D01*
X166340223Y-55800828D02*
X166483080Y-55872257D01*
X166483080Y-55872257D02*
X166554509Y-55943685D01*
X166554509Y-55943685D02*
X166625937Y-56086542D01*
X166625937Y-56086542D02*
X166697366Y-56372257D01*
X166697366Y-56372257D02*
X166697366Y-56729400D01*
X166697366Y-56729400D02*
X166625937Y-57015114D01*
X166625937Y-57015114D02*
X166554509Y-57157971D01*
X166554509Y-57157971D02*
X166483080Y-57229400D01*
X166483080Y-57229400D02*
X166340223Y-57300828D01*
X166340223Y-57300828D02*
X166197366Y-57300828D01*
X166197366Y-57300828D02*
X166054509Y-57229400D01*
X166054509Y-57229400D02*
X165983080Y-57157971D01*
X165983080Y-57157971D02*
X165911651Y-57015114D01*
X165911651Y-57015114D02*
X165840223Y-56729400D01*
X165840223Y-56729400D02*
X165840223Y-56372257D01*
X165840223Y-56372257D02*
X165911651Y-56086542D01*
X165911651Y-56086542D02*
X165983080Y-55943685D01*
X165983080Y-55943685D02*
X166054509Y-55872257D01*
X166054509Y-55872257D02*
X166197366Y-55800828D01*
X167268794Y-55943685D02*
X167340222Y-55872257D01*
X167340222Y-55872257D02*
X167483080Y-55800828D01*
X167483080Y-55800828D02*
X167840222Y-55800828D01*
X167840222Y-55800828D02*
X167983080Y-55872257D01*
X167983080Y-55872257D02*
X168054508Y-55943685D01*
X168054508Y-55943685D02*
X168125937Y-56086542D01*
X168125937Y-56086542D02*
X168125937Y-56229400D01*
X168125937Y-56229400D02*
X168054508Y-56443685D01*
X168054508Y-56443685D02*
X167197365Y-57300828D01*
X167197365Y-57300828D02*
X168125937Y-57300828D01*
X169483079Y-55800828D02*
X168768793Y-55800828D01*
X168768793Y-55800828D02*
X168697365Y-56515114D01*
X168697365Y-56515114D02*
X168768793Y-56443685D01*
X168768793Y-56443685D02*
X168911651Y-56372257D01*
X168911651Y-56372257D02*
X169268793Y-56372257D01*
X169268793Y-56372257D02*
X169411651Y-56443685D01*
X169411651Y-56443685D02*
X169483079Y-56515114D01*
X169483079Y-56515114D02*
X169554508Y-56657971D01*
X169554508Y-56657971D02*
X169554508Y-57015114D01*
X169554508Y-57015114D02*
X169483079Y-57157971D01*
X169483079Y-57157971D02*
X169411651Y-57229400D01*
X169411651Y-57229400D02*
X169268793Y-57300828D01*
X169268793Y-57300828D02*
X168911651Y-57300828D01*
X168911651Y-57300828D02*
X168768793Y-57229400D01*
X168768793Y-57229400D02*
X168697365Y-57157971D01*
D12*
%TO.P,R4,1*%
%TO.N,Net-(U1-ECHO)*%
X127000000Y-69500000D03*
%TO.P,R4,2*%
%TO.N,Net-(A1-A7{slash}IO32)*%
X119380000Y-69500000D03*
%TD*%
%TO.P,R5,1*%
%TO.N,Net-(A1-A7{slash}IO32)*%
X119380000Y-63500000D03*
%TO.P,R5,2*%
%TO.N,GND*%
X127000000Y-63500000D03*
%TD*%
%TO.P,R2,1*%
%TO.N,Net-(A1-A9{slash}IO33)*%
X128940000Y-120250000D03*
%TO.P,R2,2*%
%TO.N,Net-(D3-A)*%
X136560000Y-120250000D03*
%TD*%
D13*
%TO.P,A1,1,~{RESET}*%
%TO.N,unconnected-(A1-~{RESET}-Pad1)*%
X96480000Y-71340000D03*
D14*
%TO.P,A1,2,3V3*%
%TO.N,+3.3V*%
X96480000Y-73880000D03*
%TO.P,A1,3,NC*%
%TO.N,unconnected-(A1-NC-Pad3)*%
X96480000Y-76420000D03*
%TO.P,A1,4,GND*%
%TO.N,GND*%
X96480000Y-78960000D03*
%TO.P,A1,5,DAC2/A0*%
%TO.N,unconnected-(A1-DAC2{slash}A0-Pad5)*%
X96480000Y-81500000D03*
%TO.P,A1,6,DAC1/A1*%
%TO.N,unconnected-(A1-DAC1{slash}A1-Pad6)*%
X96480000Y-84040000D03*
%TO.P,A1,7,I34/A2*%
%TO.N,unconnected-(A1-I34{slash}A2-Pad7)*%
X96480000Y-86580000D03*
%TO.P,A1,8,I39/A3*%
%TO.N,unconnected-(A1-I39{slash}A3-Pad8)*%
X96480000Y-89120000D03*
%TO.P,A1,9,IO36/A4*%
%TO.N,unconnected-(A1-IO36{slash}A4-Pad9)*%
X96480000Y-91660000D03*
%TO.P,A1,10,IO4/A5*%
%TO.N,unconnected-(A1-IO4{slash}A5-Pad10)*%
X96480000Y-94200000D03*
%TO.P,A1,11,SCK/IO5*%
%TO.N,unconnected-(A1-SCK{slash}IO5-Pad11)*%
X96480000Y-96740000D03*
%TO.P,A1,12,MOSI/IO18*%
%TO.N,unconnected-(A1-MOSI{slash}IO18-Pad12)*%
X96480000Y-99280000D03*
%TO.P,A1,13,MISO/IO19*%
%TO.N,unconnected-(A1-MISO{slash}IO19-Pad13)*%
X96480000Y-101820000D03*
%TO.P,A1,14,RX/IO16*%
%TO.N,unconnected-(A1-RX{slash}IO16-Pad14)*%
X96480000Y-104360000D03*
%TO.P,A1,15,TX/IO17*%
%TO.N,unconnected-(A1-TX{slash}IO17-Pad15)*%
X96480000Y-106900000D03*
%TO.P,A1,16,IO21*%
%TO.N,unconnected-(A1-IO21-Pad16)*%
X96480000Y-109440000D03*
%TO.P,A1,17,SDA/IO23*%
%TO.N,Net-(A1-SDA{slash}IO23)*%
X116200000Y-109440000D03*
%TO.P,A1,18,SCL/IO22*%
%TO.N,Net-(A1-SCL{slash}IO22)*%
X116200000Y-106900000D03*
%TO.P,A1,19,A6/IO14*%
%TO.N,Net-(A1-A6{slash}IO14)*%
X116200000Y-104360000D03*
%TO.P,A1,20,A7/IO32*%
%TO.N,Net-(A1-A7{slash}IO32)*%
X116200000Y-101820000D03*
%TO.P,A1,21,A8/IO15*%
%TO.N,Net-(A1-A8{slash}IO15)*%
X116200000Y-99280000D03*
%TO.P,A1,22,A9/IO33*%
%TO.N,Net-(A1-A9{slash}IO33)*%
X116200000Y-96740000D03*
%TO.P,A1,23,A10/IO27*%
%TO.N,Net-(A1-A10{slash}IO27)*%
X116200000Y-94200000D03*
%TO.P,A1,24,A11/IO12*%
%TO.N,unconnected-(A1-A11{slash}IO12-Pad24)*%
X116200000Y-91660000D03*
%TO.P,A1,25,A12/IO13*%
%TO.N,unconnected-(A1-A12{slash}IO13-Pad25)*%
X116200000Y-89120000D03*
%TO.P,A1,26,USB*%
%TO.N,+5V*%
X116200000Y-86580000D03*
%TO.P,A1,27,EN*%
%TO.N,unconnected-(A1-EN-Pad27)*%
X116200000Y-84040000D03*
%TO.P,A1,28,VBAT*%
%TO.N,unconnected-(A1-VBAT-Pad28)*%
X116200000Y-81500000D03*
%TD*%
D12*
%TO.P,R1,1*%
%TO.N,Net-(A1-A8{slash}IO15)*%
X128880000Y-129250000D03*
%TO.P,R1,2*%
%TO.N,Net-(D1-A)*%
X136500000Y-129250000D03*
%TD*%
%TO.P,R3,1*%
%TO.N,Net-(A1-A10{slash}IO27)*%
X128940000Y-124750000D03*
%TO.P,R3,2*%
%TO.N,Net-(D2-A)*%
X136560000Y-124750000D03*
%TD*%
D15*
%TO.P,D3,1,K*%
%TO.N,GND*%
X137500000Y-110000000D03*
D16*
%TO.P,D3,2,A*%
%TO.N,Net-(D3-A)*%
X134960000Y-110000000D03*
%TD*%
D17*
%TO.P,U1,1,VCC*%
%TO.N,+5V*%
X148040000Y-73500000D03*
D18*
%TO.P,U1,2,TRIG*%
%TO.N,Net-(A1-A6{slash}IO14)*%
X145500000Y-73500000D03*
%TO.P,U1,3,ECHO*%
%TO.N,Net-(U1-ECHO)*%
X142960000Y-73500000D03*
%TO.P,U1,4,GND*%
%TO.N,GND*%
X140420000Y-73500000D03*
%TD*%
D17*
%TO.P,U2,1,Vin*%
%TO.N,+3.3V*%
X152912000Y-80000000D03*
D18*
%TO.P,U2,2,3vo*%
%TO.N,unconnected-(U2-3vo-Pad2)*%
X150372000Y-80000000D03*
%TO.P,U2,3,GND*%
%TO.N,GND*%
X147832000Y-80000000D03*
%TO.P,U2,4,Reset*%
%TO.N,unconnected-(U2-Reset-Pad4)*%
X145292000Y-80000000D03*
%TO.P,U2,5,SCL*%
%TO.N,Net-(A1-SCL{slash}IO22)*%
X142752000Y-80000000D03*
%TO.P,U2,6,SDA*%
%TO.N,Net-(A1-SDA{slash}IO23)*%
X140212000Y-80000000D03*
%TO.P,U2,7*%
%TO.N,N/C*%
X137672000Y-80000000D03*
%TO.P,U2,8*%
X135132000Y-80000000D03*
%TD*%
D15*
%TO.P,D1,1,K*%
%TO.N,GND*%
X153000000Y-110000000D03*
D16*
%TO.P,D1,2,A*%
%TO.N,Net-(D1-A)*%
X150460000Y-110000000D03*
%TD*%
D15*
%TO.P,D2,1,K*%
%TO.N,GND*%
X145250000Y-110000000D03*
D16*
%TO.P,D2,2,A*%
%TO.N,Net-(D2-A)*%
X142710000Y-110000000D03*
%TD*%
D19*
%TO.N,Net-(A1-A8{slash}IO15)*%
X119500000Y-99500000D03*
%TO.N,Net-(A1-A7{slash}IO32)*%
X112500000Y-102000000D03*
%TO.N,+3.3V*%
X109500000Y-74000000D03*
X126500000Y-78000000D03*
%TO.N,GND*%
X140000000Y-115000000D03*
X132000000Y-59000000D03*
X114500000Y-61000000D03*
X156000000Y-116000000D03*
X137500000Y-70500000D03*
X151500000Y-75500000D03*
X147000000Y-115500000D03*
X158500000Y-66500000D03*
X92500000Y-79000000D03*
%TO.N,+5V*%
X145000000Y-72500000D03*
X128932900Y-72500000D03*
%TD*%
D20*
%TO.N,Net-(A1-A8{slash}IO15)*%
X116500000Y-99280000D02*
X119280000Y-99280000D01*
X119280000Y-99280000D02*
X119500000Y-99500000D01*
%TO.N,Net-(A1-A7{slash}IO32)*%
X119380000Y-63500000D02*
X119380000Y-69500000D01*
X119380000Y-69500000D02*
X112500000Y-76380000D01*
X112500000Y-76380000D02*
X112500000Y-102000000D01*
D21*
%TO.N,+3.3V*%
X109500000Y-74000000D02*
X96300000Y-74000000D01*
X151211000Y-77799000D02*
X126701000Y-77799000D01*
X151211000Y-77799000D02*
X151211000Y-78299000D01*
D20*
X126701000Y-77799000D02*
X126500000Y-78000000D01*
X96300000Y-74000000D02*
X96180000Y-73880000D01*
D21*
X151211000Y-78299000D02*
X152912000Y-80000000D01*
D20*
%TO.N,Net-(A1-A9{slash}IO33)*%
X114500000Y-114500000D02*
X120250000Y-120250000D01*
X114500000Y-98740000D02*
X114500000Y-114500000D01*
X116500000Y-96740000D02*
X114500000Y-98740000D01*
X120250000Y-120250000D02*
X128940000Y-120250000D01*
%TO.N,Net-(A1-A6{slash}IO14)*%
X143000000Y-76000000D02*
X127000000Y-76000000D01*
X116500000Y-104360000D02*
X125500000Y-95360000D01*
X145500000Y-73500000D02*
X143000000Y-76000000D01*
X125500000Y-95360000D02*
X125500000Y-77500000D01*
X125500000Y-77500000D02*
X127000000Y-76000000D01*
%TO.N,Net-(A1-SDA{slash}IO23)*%
X140212000Y-85728000D02*
X116500000Y-109440000D01*
X140212000Y-85728000D02*
X140212000Y-80000000D01*
%TO.N,Net-(A1-A10{slash}IO27)*%
X113500000Y-114500000D02*
X123750000Y-124750000D01*
X116500000Y-94200000D02*
X113500000Y-97200000D01*
X123750000Y-124750000D02*
X128940000Y-124750000D01*
X113500000Y-97200000D02*
X113500000Y-114500000D01*
%TO.N,Net-(A1-SCL{slash}IO22)*%
X141501000Y-78749000D02*
X142752000Y-80000000D01*
X138961000Y-79481818D02*
X139693818Y-78749000D01*
X138961000Y-84439000D02*
X138961000Y-79481818D01*
X139693818Y-78749000D02*
X141501000Y-78749000D01*
X116500000Y-106900000D02*
X138961000Y-84439000D01*
%TO.N,Net-(U1-ECHO)*%
X141809000Y-74651000D02*
X132151000Y-74651000D01*
X132151000Y-74651000D02*
X127000000Y-69500000D01*
X142960000Y-73500000D02*
X141809000Y-74651000D01*
%TO.N,Net-(D1-A)*%
X136500000Y-129250000D02*
X150460000Y-115290000D01*
X150460000Y-115290000D02*
X150460000Y-110000000D01*
%TO.N,Net-(D2-A)*%
X142710000Y-118600000D02*
X142710000Y-110000000D01*
X136560000Y-124750000D02*
X142710000Y-118600000D01*
%TO.N,Net-(D3-A)*%
X136560000Y-118060000D02*
X134960000Y-116460000D01*
X136560000Y-120250000D02*
X136560000Y-118060000D01*
X134960000Y-116460000D02*
X134960000Y-110000000D01*
D22*
%TO.N,+5V*%
X145120000Y-72380000D02*
X145000000Y-72500000D01*
D21*
X119000000Y-82432900D02*
X119000000Y-86500000D01*
X148040000Y-73500000D02*
X146889000Y-72349000D01*
X146889000Y-72349000D02*
X145023240Y-72349000D01*
X119000000Y-86500000D02*
X116580000Y-86500000D01*
D20*
X116580000Y-86500000D02*
X116500000Y-86580000D01*
D22*
X148040000Y-73500000D02*
X147127760Y-73500000D01*
D21*
X128932900Y-72500000D02*
X119000000Y-82432900D01*
%TD*%
%TA.AperFunction,Conductor*%
%TO.N,GND*%
G36*
X147079452Y-78669185D02*
G01*
X147125207Y-78721989D01*
X147135151Y-78791147D01*
X147106126Y-78854703D01*
X147085297Y-78873819D01*
X147070282Y-78884727D01*
X147070282Y-78884728D01*
X147702591Y-79517037D01*
X147639007Y-79534075D01*
X147524993Y-79599901D01*
X147431901Y-79692993D01*
X147366075Y-79807007D01*
X147349037Y-79870591D01*
X146716728Y-79238282D01*
X146716727Y-79238282D01*
X146677380Y-79292440D01*
X146677376Y-79292446D01*
X146672760Y-79301505D01*
X146624781Y-79352297D01*
X146556959Y-79369087D01*
X146490826Y-79346543D01*
X146451794Y-79301493D01*
X146447051Y-79292184D01*
X146447049Y-79292181D01*
X146447048Y-79292179D01*
X146322109Y-79120213D01*
X146171786Y-78969890D01*
X146039552Y-78873818D01*
X145996886Y-78818489D01*
X145990907Y-78748875D01*
X146023512Y-78687080D01*
X146084351Y-78652723D01*
X146112437Y-78649500D01*
X147012413Y-78649500D01*
X147079452Y-78669185D01*
G37*
%TD.AperFunction*%
%TA.AperFunction,Conductor*%
G36*
X149618602Y-78669185D02*
G01*
X149664357Y-78721989D01*
X149674301Y-78791147D01*
X149645276Y-78854703D01*
X149624448Y-78873818D01*
X149492213Y-78969890D01*
X149341890Y-79120213D01*
X149216949Y-79292182D01*
X149212202Y-79301499D01*
X149164227Y-79352293D01*
X149096405Y-79369087D01*
X149030271Y-79346548D01*
X148991234Y-79301495D01*
X148986626Y-79292452D01*
X148947270Y-79238282D01*
X148947269Y-79238282D01*
X148314962Y-79870590D01*
X148297925Y-79807007D01*
X148232099Y-79692993D01*
X148139007Y-79599901D01*
X148024993Y-79534075D01*
X147961409Y-79517037D01*
X148593716Y-78884728D01*
X148578701Y-78873819D01*
X148536034Y-78818489D01*
X148530055Y-78748876D01*
X148562660Y-78687081D01*
X148623498Y-78652723D01*
X148651585Y-78649500D01*
X149551563Y-78649500D01*
X149618602Y-78669185D01*
G37*
%TD.AperFunction*%
%TA.AperFunction,Conductor*%
G36*
X175412915Y-48549809D02*
G01*
X175458670Y-48602613D01*
X175469876Y-48654124D01*
X175469876Y-131875500D01*
X175450191Y-131942539D01*
X175397387Y-131988294D01*
X175345876Y-131999500D01*
X89624500Y-131999500D01*
X89557461Y-131979815D01*
X89511706Y-131927011D01*
X89500500Y-131875500D01*
X89500500Y-128881902D01*
X90999500Y-128881902D01*
X90999500Y-129118097D01*
X91036446Y-129351368D01*
X91109433Y-129575996D01*
X91216657Y-129786433D01*
X91355483Y-129977510D01*
X91522490Y-130144517D01*
X91713567Y-130283343D01*
X91812991Y-130334002D01*
X91924003Y-130390566D01*
X91924005Y-130390566D01*
X91924008Y-130390568D01*
X92044412Y-130429689D01*
X92148631Y-130463553D01*
X92381903Y-130500500D01*
X92381908Y-130500500D01*
X92618097Y-130500500D01*
X92851368Y-130463553D01*
X92877020Y-130455218D01*
X93075992Y-130390568D01*
X93286433Y-130283343D01*
X93477510Y-130144517D01*
X93644517Y-129977510D01*
X93783343Y-129786433D01*
X93890568Y-129575992D01*
X93963553Y-129351368D01*
X93995820Y-129147648D01*
X127579500Y-129147648D01*
X127579500Y-129352351D01*
X127611522Y-129554534D01*
X127674781Y-129749223D01*
X127767715Y-129931613D01*
X127888028Y-130097213D01*
X128032786Y-130241971D01*
X128187749Y-130354556D01*
X128198390Y-130362287D01*
X128253895Y-130390568D01*
X128380776Y-130455218D01*
X128380778Y-130455218D01*
X128380781Y-130455220D01*
X128485137Y-130489127D01*
X128575465Y-130518477D01*
X128676557Y-130534488D01*
X128777648Y-130550500D01*
X128777649Y-130550500D01*
X128982351Y-130550500D01*
X128982352Y-130550500D01*
X129184534Y-130518477D01*
X129379219Y-130455220D01*
X129561610Y-130362287D01*
X129670268Y-130283343D01*
X129727213Y-130241971D01*
X129727215Y-130241968D01*
X129727219Y-130241966D01*
X129871966Y-130097219D01*
X129871968Y-130097215D01*
X129871971Y-130097213D01*
X129924732Y-130024590D01*
X129992287Y-129931610D01*
X130085220Y-129749219D01*
X130148477Y-129554534D01*
X130180500Y-129352352D01*
X130180500Y-129147648D01*
X135199500Y-129147648D01*
X135199500Y-129352351D01*
X135231522Y-129554534D01*
X135294781Y-129749223D01*
X135387715Y-129931613D01*
X135508028Y-130097213D01*
X135652786Y-130241971D01*
X135807749Y-130354556D01*
X135818390Y-130362287D01*
X135873895Y-130390568D01*
X136000776Y-130455218D01*
X136000778Y-130455218D01*
X136000781Y-130455220D01*
X136105137Y-130489127D01*
X136195465Y-130518477D01*
X136296557Y-130534488D01*
X136397648Y-130550500D01*
X136397649Y-130550500D01*
X136602351Y-130550500D01*
X136602352Y-130550500D01*
X136804534Y-130518477D01*
X136999219Y-130455220D01*
X137181610Y-130362287D01*
X137290268Y-130283343D01*
X137347213Y-130241971D01*
X137347215Y-130241968D01*
X137347219Y-130241966D01*
X137491966Y-130097219D01*
X137491968Y-130097215D01*
X137491971Y-130097213D01*
X137544732Y-130024590D01*
X137612287Y-129931610D01*
X137705220Y-129749219D01*
X137768477Y-129554534D01*
X137800500Y-129352352D01*
X137800500Y-129147648D01*
X137782013Y-129030929D01*
X137782714Y-129025503D01*
X137780802Y-129020377D01*
X137787143Y-128991226D01*
X137790967Y-128961636D01*
X137794799Y-128956030D01*
X137795654Y-128952104D01*
X137816802Y-128923853D01*
X137858753Y-128881902D01*
X170999500Y-128881902D01*
X170999500Y-129118097D01*
X171036446Y-129351368D01*
X171109433Y-129575996D01*
X171216657Y-129786433D01*
X171355483Y-129977510D01*
X171522490Y-130144517D01*
X171713567Y-130283343D01*
X171812991Y-130334002D01*
X171924003Y-130390566D01*
X171924005Y-130390566D01*
X171924008Y-130390568D01*
X172044412Y-130429689D01*
X172148631Y-130463553D01*
X172381903Y-130500500D01*
X172381908Y-130500500D01*
X172618097Y-130500500D01*
X172851368Y-130463553D01*
X172877020Y-130455218D01*
X173075992Y-130390568D01*
X173286433Y-130283343D01*
X173477510Y-130144517D01*
X173644517Y-129977510D01*
X173783343Y-129786433D01*
X173890568Y-129575992D01*
X173963553Y-129351368D01*
X173995819Y-129147649D01*
X174000500Y-129118097D01*
X174000500Y-128881902D01*
X173963553Y-128648631D01*
X173890566Y-128424003D01*
X173783342Y-128213566D01*
X173644517Y-128022490D01*
X173477510Y-127855483D01*
X173286433Y-127716657D01*
X173075996Y-127609433D01*
X172851368Y-127536446D01*
X172618097Y-127499500D01*
X172618092Y-127499500D01*
X172381908Y-127499500D01*
X172381903Y-127499500D01*
X172148631Y-127536446D01*
X171924003Y-127609433D01*
X171713566Y-127716657D01*
X171604550Y-127795862D01*
X171522490Y-127855483D01*
X171522488Y-127855485D01*
X171522487Y-127855485D01*
X171355485Y-128022487D01*
X171355485Y-128022488D01*
X171355483Y-128022490D01*
X171339288Y-128044781D01*
X171216657Y-128213566D01*
X171109433Y-128424003D01*
X171036446Y-128648631D01*
X170999500Y-128881902D01*
X137858753Y-128881902D01*
X151004113Y-115736543D01*
X151080774Y-115621812D01*
X151080775Y-115621811D01*
X151133580Y-115494328D01*
X151160500Y-115358993D01*
X151160500Y-111285351D01*
X151180185Y-111218312D01*
X151211611Y-111185035D01*
X151372365Y-111068242D01*
X151422924Y-111017682D01*
X151484245Y-110984198D01*
X151553936Y-110989182D01*
X151609870Y-111031053D01*
X151626786Y-111062030D01*
X151656646Y-111142087D01*
X151656649Y-111142093D01*
X151742809Y-111257187D01*
X151742812Y-111257190D01*
X151857906Y-111343350D01*
X151857913Y-111343354D01*
X151992620Y-111393596D01*
X151992627Y-111393598D01*
X152052155Y-111399999D01*
X152052172Y-111400000D01*
X152750000Y-111400000D01*
X152750000Y-110375277D01*
X152826306Y-110419333D01*
X152940756Y-110450000D01*
X153059244Y-110450000D01*
X153173694Y-110419333D01*
X153250000Y-110375277D01*
X153250000Y-111400000D01*
X153947828Y-111400000D01*
X153947844Y-111399999D01*
X154007372Y-111393598D01*
X154007379Y-111393596D01*
X154142086Y-111343354D01*
X154142093Y-111343350D01*
X154257187Y-111257190D01*
X154257190Y-111257187D01*
X154343350Y-111142093D01*
X154343354Y-111142086D01*
X154393596Y-111007379D01*
X154393598Y-111007372D01*
X154399999Y-110947844D01*
X154400000Y-110947827D01*
X154400000Y-110250000D01*
X153375278Y-110250000D01*
X153419333Y-110173694D01*
X153450000Y-110059244D01*
X153450000Y-109940756D01*
X153419333Y-109826306D01*
X153375278Y-109750000D01*
X154400000Y-109750000D01*
X154400000Y-109338038D01*
X156899500Y-109338038D01*
X156899500Y-109589962D01*
X156920681Y-109723694D01*
X156938910Y-109838785D01*
X157016760Y-110078383D01*
X157131132Y-110302848D01*
X157279201Y-110506649D01*
X157279205Y-110506654D01*
X157457345Y-110684794D01*
X157457350Y-110684798D01*
X157525102Y-110734022D01*
X157661155Y-110832870D01*
X157804184Y-110905747D01*
X157885616Y-110947239D01*
X157885618Y-110947239D01*
X157885621Y-110947241D01*
X158125215Y-111025090D01*
X158374038Y-111064500D01*
X158374039Y-111064500D01*
X158625961Y-111064500D01*
X158625962Y-111064500D01*
X158874785Y-111025090D01*
X159114379Y-110947241D01*
X159338845Y-110832870D01*
X159542656Y-110684793D01*
X159720793Y-110506656D01*
X159868870Y-110302845D01*
X159983241Y-110078379D01*
X160061090Y-109838785D01*
X160100500Y-109589962D01*
X160100500Y-109338038D01*
X160061090Y-109089215D01*
X159983241Y-108849621D01*
X159983239Y-108849618D01*
X159983239Y-108849616D01*
X159928819Y-108742812D01*
X159868870Y-108625155D01*
X159761919Y-108477949D01*
X159720798Y-108421350D01*
X159720794Y-108421345D01*
X159542654Y-108243205D01*
X159542649Y-108243201D01*
X159338848Y-108095132D01*
X159338847Y-108095131D01*
X159338845Y-108095130D01*
X159234860Y-108042147D01*
X159114383Y-107980760D01*
X158874785Y-107902910D01*
X158859569Y-107900500D01*
X158625962Y-107863500D01*
X158374038Y-107863500D01*
X158249626Y-107883205D01*
X158125214Y-107902910D01*
X157885616Y-107980760D01*
X157661151Y-108095132D01*
X157457350Y-108243201D01*
X157457345Y-108243205D01*
X157279205Y-108421345D01*
X157279201Y-108421350D01*
X157131132Y-108625151D01*
X157016760Y-108849616D01*
X156950946Y-109052172D01*
X156938910Y-109089215D01*
X156899500Y-109338038D01*
X154400000Y-109338038D01*
X154400000Y-109052172D01*
X154399999Y-109052155D01*
X154393598Y-108992627D01*
X154393596Y-108992620D01*
X154343354Y-108857913D01*
X154343350Y-108857906D01*
X154257190Y-108742812D01*
X154257187Y-108742809D01*
X154142093Y-108656649D01*
X154142086Y-108656645D01*
X154007379Y-108606403D01*
X154007372Y-108606401D01*
X153947844Y-108600000D01*
X153250000Y-108600000D01*
X153250000Y-109624722D01*
X153173694Y-109580667D01*
X153059244Y-109550000D01*
X152940756Y-109550000D01*
X152826306Y-109580667D01*
X152750000Y-109624722D01*
X152750000Y-108600000D01*
X152052155Y-108600000D01*
X151992627Y-108606401D01*
X151992620Y-108606403D01*
X151857913Y-108656645D01*
X151857906Y-108656649D01*
X151742812Y-108742809D01*
X151742809Y-108742812D01*
X151656649Y-108857906D01*
X151656643Y-108857918D01*
X151626785Y-108937969D01*
X151584914Y-108993903D01*
X151519449Y-109018319D01*
X151451176Y-109003467D01*
X151422923Y-108982316D01*
X151372363Y-108931756D01*
X151372358Y-108931752D01*
X151194025Y-108802187D01*
X151194024Y-108802186D01*
X151194022Y-108802185D01*
X151131096Y-108770122D01*
X150997606Y-108702104D01*
X150997603Y-108702103D01*
X150787952Y-108633985D01*
X150679086Y-108616742D01*
X150570222Y-108599500D01*
X150349778Y-108599500D01*
X150277201Y-108610995D01*
X150132047Y-108633985D01*
X149922396Y-108702103D01*
X149922393Y-108702104D01*
X149725974Y-108802187D01*
X149547641Y-108931752D01*
X149547636Y-108931756D01*
X149391756Y-109087636D01*
X149391752Y-109087641D01*
X149262187Y-109265974D01*
X149162104Y-109462393D01*
X149162103Y-109462396D01*
X149093985Y-109672047D01*
X149059500Y-109889778D01*
X149059500Y-110110221D01*
X149093985Y-110327952D01*
X149162103Y-110537603D01*
X149162104Y-110537606D01*
X149262187Y-110734025D01*
X149391752Y-110912358D01*
X149391756Y-110912363D01*
X149391758Y-110912365D01*
X149547635Y-111068242D01*
X149708386Y-111185034D01*
X149751051Y-111240362D01*
X149759500Y-111285351D01*
X149759500Y-114948480D01*
X149739815Y-115015519D01*
X149723181Y-115036161D01*
X136826147Y-127933194D01*
X136764824Y-127966679D01*
X136719068Y-127967986D01*
X136669969Y-127960209D01*
X136602352Y-127949500D01*
X136397648Y-127949500D01*
X136373329Y-127953351D01*
X136195465Y-127981522D01*
X136000776Y-128044781D01*
X135818386Y-128137715D01*
X135652786Y-128258028D01*
X135508028Y-128402786D01*
X135387715Y-128568386D01*
X135294781Y-128750776D01*
X135231522Y-128945465D01*
X135199500Y-129147648D01*
X130180500Y-129147648D01*
X130150150Y-128956030D01*
X130148477Y-128945465D01*
X130085218Y-128750776D01*
X130033172Y-128648631D01*
X129992287Y-128568390D01*
X129984556Y-128557749D01*
X129871971Y-128402786D01*
X129727213Y-128258028D01*
X129561613Y-128137715D01*
X129561612Y-128137714D01*
X129561610Y-128137713D01*
X129504653Y-128108691D01*
X129379223Y-128044781D01*
X129184534Y-127981522D01*
X129009995Y-127953878D01*
X128982352Y-127949500D01*
X128777648Y-127949500D01*
X128753329Y-127953351D01*
X128575465Y-127981522D01*
X128380776Y-128044781D01*
X128198386Y-128137715D01*
X128032786Y-128258028D01*
X127888028Y-128402786D01*
X127767715Y-128568386D01*
X127674781Y-128750776D01*
X127611522Y-128945465D01*
X127579500Y-129147648D01*
X93995820Y-129147648D01*
X93999664Y-129123378D01*
X94000500Y-129118096D01*
X94000500Y-128881902D01*
X93963553Y-128648631D01*
X93890566Y-128424003D01*
X93783342Y-128213566D01*
X93644517Y-128022490D01*
X93477510Y-127855483D01*
X93286433Y-127716657D01*
X93075996Y-127609433D01*
X92851368Y-127536446D01*
X92618097Y-127499500D01*
X92618092Y-127499500D01*
X92381908Y-127499500D01*
X92381903Y-127499500D01*
X92148631Y-127536446D01*
X91924003Y-127609433D01*
X91713566Y-127716657D01*
X91604550Y-127795862D01*
X91522490Y-127855483D01*
X91522488Y-127855485D01*
X91522487Y-127855485D01*
X91355485Y-128022487D01*
X91355485Y-128022488D01*
X91355483Y-128022490D01*
X91339288Y-128044781D01*
X91216657Y-128213566D01*
X91109433Y-128424003D01*
X91036446Y-128648631D01*
X90999500Y-128881902D01*
X89500500Y-128881902D01*
X89500500Y-109538543D01*
X94979499Y-109538543D01*
X95017947Y-109731829D01*
X95017950Y-109731839D01*
X95093364Y-109913907D01*
X95093371Y-109913920D01*
X95202860Y-110077781D01*
X95202863Y-110077785D01*
X95342214Y-110217136D01*
X95342218Y-110217139D01*
X95506079Y-110326628D01*
X95506092Y-110326635D01*
X95656217Y-110388818D01*
X95688165Y-110402051D01*
X95688169Y-110402051D01*
X95688170Y-110402052D01*
X95881456Y-110440500D01*
X95881459Y-110440500D01*
X97078543Y-110440500D01*
X97208582Y-110414632D01*
X97271835Y-110402051D01*
X97453914Y-110326632D01*
X97617782Y-110217139D01*
X97757139Y-110077782D01*
X97866632Y-109913914D01*
X97942051Y-109731835D01*
X97980500Y-109538541D01*
X97980500Y-109341459D01*
X97980500Y-109341456D01*
X97942052Y-109148170D01*
X97942051Y-109148169D01*
X97942051Y-109148165D01*
X97942049Y-109148160D01*
X97866635Y-108966092D01*
X97866628Y-108966079D01*
X97757139Y-108802218D01*
X97757136Y-108802214D01*
X97617785Y-108662863D01*
X97617781Y-108662860D01*
X97453920Y-108553371D01*
X97453907Y-108553364D01*
X97271839Y-108477950D01*
X97271829Y-108477947D01*
X97078543Y-108439500D01*
X97078541Y-108439500D01*
X95881459Y-108439500D01*
X95881457Y-108439500D01*
X95688170Y-108477947D01*
X95688160Y-108477950D01*
X95506092Y-108553364D01*
X95506079Y-108553371D01*
X95342218Y-108662860D01*
X95342214Y-108662863D01*
X95202863Y-108802214D01*
X95202860Y-108802218D01*
X95093371Y-108966079D01*
X95093364Y-108966092D01*
X95017950Y-109148160D01*
X95017947Y-109148170D01*
X94979500Y-109341456D01*
X94979500Y-109341459D01*
X94979500Y-109538541D01*
X94979500Y-109538543D01*
X94979499Y-109538543D01*
X89500500Y-109538543D01*
X89500500Y-106998543D01*
X94979499Y-106998543D01*
X95017947Y-107191829D01*
X95017950Y-107191839D01*
X95093364Y-107373907D01*
X95093371Y-107373920D01*
X95202860Y-107537781D01*
X95202863Y-107537785D01*
X95342214Y-107677136D01*
X95342218Y-107677139D01*
X95506079Y-107786628D01*
X95506092Y-107786635D01*
X95656217Y-107848818D01*
X95688165Y-107862051D01*
X95688169Y-107862051D01*
X95688170Y-107862052D01*
X95881456Y-107900500D01*
X95881459Y-107900500D01*
X97078543Y-107900500D01*
X97264550Y-107863500D01*
X97271835Y-107862051D01*
X97453914Y-107786632D01*
X97617782Y-107677139D01*
X97757139Y-107537782D01*
X97866632Y-107373914D01*
X97942051Y-107191835D01*
X97972818Y-107037161D01*
X97980500Y-106998543D01*
X97980500Y-106801456D01*
X97942052Y-106608170D01*
X97942051Y-106608169D01*
X97942051Y-106608165D01*
X97942049Y-106608160D01*
X97866635Y-106426092D01*
X97866628Y-106426079D01*
X97757139Y-106262218D01*
X97757136Y-106262214D01*
X97617785Y-106122863D01*
X97617781Y-106122860D01*
X97453920Y-106013371D01*
X97453907Y-106013364D01*
X97271839Y-105937950D01*
X97271829Y-105937947D01*
X97078543Y-105899500D01*
X97078541Y-105899500D01*
X95881459Y-105899500D01*
X95881457Y-105899500D01*
X95688170Y-105937947D01*
X95688160Y-105937950D01*
X95506092Y-106013364D01*
X95506079Y-106013371D01*
X95342218Y-106122860D01*
X95342214Y-106122863D01*
X95202863Y-106262214D01*
X95202860Y-106262218D01*
X95093371Y-106426079D01*
X95093364Y-106426092D01*
X95017950Y-106608160D01*
X95017947Y-106608170D01*
X94979500Y-106801456D01*
X94979500Y-106801459D01*
X94979500Y-106998541D01*
X94979500Y-106998543D01*
X94979499Y-106998543D01*
X89500500Y-106998543D01*
X89500500Y-104458543D01*
X94979499Y-104458543D01*
X95017947Y-104651829D01*
X95017950Y-104651839D01*
X95093364Y-104833907D01*
X95093371Y-104833920D01*
X95202860Y-104997781D01*
X95202863Y-104997785D01*
X95342214Y-105137136D01*
X95342218Y-105137139D01*
X95506079Y-105246628D01*
X95506092Y-105246635D01*
X95656217Y-105308818D01*
X95688165Y-105322051D01*
X95688169Y-105322051D01*
X95688170Y-105322052D01*
X95881456Y-105360500D01*
X95881459Y-105360500D01*
X97078543Y-105360500D01*
X97208582Y-105334632D01*
X97271835Y-105322051D01*
X97453914Y-105246632D01*
X97617782Y-105137139D01*
X97757139Y-104997782D01*
X97866632Y-104833914D01*
X97942051Y-104651835D01*
X97972818Y-104497161D01*
X97980500Y-104458543D01*
X97980500Y-104261456D01*
X97942052Y-104068170D01*
X97942051Y-104068169D01*
X97942051Y-104068165D01*
X97942049Y-104068160D01*
X97866635Y-103886092D01*
X97866628Y-103886079D01*
X97757139Y-103722218D01*
X97757136Y-103722214D01*
X97617785Y-103582863D01*
X97617781Y-103582860D01*
X97453920Y-103473371D01*
X97453907Y-103473364D01*
X97271839Y-103397950D01*
X97271829Y-103397947D01*
X97078543Y-103359500D01*
X97078541Y-103359500D01*
X95881459Y-103359500D01*
X95881457Y-103359500D01*
X95688170Y-103397947D01*
X95688160Y-103397950D01*
X95506092Y-103473364D01*
X95506079Y-103473371D01*
X95342218Y-103582860D01*
X95342214Y-103582863D01*
X95202863Y-103722214D01*
X95202860Y-103722218D01*
X95093371Y-103886079D01*
X95093364Y-103886092D01*
X95017950Y-104068160D01*
X95017947Y-104068170D01*
X94979500Y-104261456D01*
X94979500Y-104261459D01*
X94979500Y-104458541D01*
X94979500Y-104458543D01*
X94979499Y-104458543D01*
X89500500Y-104458543D01*
X89500500Y-101918543D01*
X94979499Y-101918543D01*
X95017947Y-102111829D01*
X95017950Y-102111839D01*
X95093364Y-102293907D01*
X95093371Y-102293920D01*
X95202860Y-102457781D01*
X95202863Y-102457785D01*
X95342214Y-102597136D01*
X95342218Y-102597139D01*
X95506079Y-102706628D01*
X95506092Y-102706635D01*
X95688160Y-102782049D01*
X95688165Y-102782051D01*
X95688169Y-102782051D01*
X95688170Y-102782052D01*
X95881456Y-102820500D01*
X95881459Y-102820500D01*
X97078543Y-102820500D01*
X97220250Y-102792312D01*
X97271835Y-102782051D01*
X97453914Y-102706632D01*
X97617782Y-102597139D01*
X97757139Y-102457782D01*
X97866632Y-102293914D01*
X97942051Y-102111835D01*
X97975478Y-101943790D01*
X97979981Y-101921153D01*
X111699500Y-101921153D01*
X111699500Y-102078846D01*
X111730261Y-102233489D01*
X111730264Y-102233501D01*
X111790602Y-102379172D01*
X111790609Y-102379185D01*
X111878210Y-102510288D01*
X111878213Y-102510292D01*
X111989707Y-102621786D01*
X111989711Y-102621789D01*
X112120814Y-102709390D01*
X112120827Y-102709397D01*
X112240277Y-102758874D01*
X112266503Y-102769737D01*
X112421153Y-102800499D01*
X112421156Y-102800500D01*
X112421158Y-102800500D01*
X112578843Y-102800500D01*
X112594564Y-102797372D01*
X112651309Y-102786085D01*
X112720899Y-102792312D01*
X112776077Y-102835174D01*
X112799322Y-102901063D01*
X112799500Y-102907702D01*
X112799500Y-114431006D01*
X112799500Y-114568994D01*
X112799500Y-114568996D01*
X112799499Y-114568996D01*
X112826418Y-114704322D01*
X112826421Y-114704332D01*
X112879222Y-114831807D01*
X112955887Y-114946545D01*
X123303454Y-125294112D01*
X123418192Y-125370777D01*
X123545667Y-125423578D01*
X123545672Y-125423580D01*
X123545676Y-125423580D01*
X123545677Y-125423581D01*
X123681003Y-125450500D01*
X123681006Y-125450500D01*
X123681007Y-125450500D01*
X127778256Y-125450500D01*
X127845295Y-125470185D01*
X127878575Y-125501616D01*
X127948030Y-125597215D01*
X128092786Y-125741971D01*
X128247749Y-125854556D01*
X128258390Y-125862287D01*
X128374607Y-125921503D01*
X128440776Y-125955218D01*
X128440778Y-125955218D01*
X128440781Y-125955220D01*
X128545137Y-125989127D01*
X128635465Y-126018477D01*
X128736557Y-126034488D01*
X128837648Y-126050500D01*
X128837649Y-126050500D01*
X129042351Y-126050500D01*
X129042352Y-126050500D01*
X129244534Y-126018477D01*
X129439219Y-125955220D01*
X129621610Y-125862287D01*
X129714590Y-125794732D01*
X129787213Y-125741971D01*
X129787215Y-125741968D01*
X129787219Y-125741966D01*
X129931966Y-125597219D01*
X129931968Y-125597215D01*
X129931971Y-125597213D01*
X130001425Y-125501616D01*
X130052287Y-125431610D01*
X130145220Y-125249219D01*
X130208477Y-125054534D01*
X130240500Y-124852352D01*
X130240500Y-124647648D01*
X135259500Y-124647648D01*
X135259500Y-124852351D01*
X135291522Y-125054534D01*
X135354781Y-125249223D01*
X135377655Y-125294114D01*
X135443620Y-125423578D01*
X135447715Y-125431613D01*
X135568028Y-125597213D01*
X135712786Y-125741971D01*
X135867749Y-125854556D01*
X135878390Y-125862287D01*
X135994607Y-125921503D01*
X136060776Y-125955218D01*
X136060778Y-125955218D01*
X136060781Y-125955220D01*
X136165137Y-125989127D01*
X136255465Y-126018477D01*
X136356557Y-126034488D01*
X136457648Y-126050500D01*
X136457649Y-126050500D01*
X136662351Y-126050500D01*
X136662352Y-126050500D01*
X136864534Y-126018477D01*
X137059219Y-125955220D01*
X137241610Y-125862287D01*
X137334590Y-125794732D01*
X137407213Y-125741971D01*
X137407215Y-125741968D01*
X137407219Y-125741966D01*
X137551966Y-125597219D01*
X137551968Y-125597215D01*
X137551971Y-125597213D01*
X137621425Y-125501616D01*
X137672287Y-125431610D01*
X137765220Y-125249219D01*
X137828477Y-125054534D01*
X137860500Y-124852352D01*
X137860500Y-124647648D01*
X137842013Y-124530929D01*
X137850967Y-124461636D01*
X137876802Y-124423853D01*
X143254113Y-119046543D01*
X143300503Y-118977116D01*
X143318958Y-118949498D01*
X143323671Y-118942442D01*
X143330775Y-118931811D01*
X143383580Y-118804328D01*
X143410500Y-118668993D01*
X143410500Y-111285351D01*
X143430185Y-111218312D01*
X143461611Y-111185035D01*
X143622365Y-111068242D01*
X143672924Y-111017682D01*
X143734245Y-110984198D01*
X143803936Y-110989182D01*
X143859870Y-111031053D01*
X143876786Y-111062030D01*
X143906646Y-111142087D01*
X143906649Y-111142093D01*
X143992809Y-111257187D01*
X143992812Y-111257190D01*
X144107906Y-111343350D01*
X144107913Y-111343354D01*
X144242620Y-111393596D01*
X144242627Y-111393598D01*
X144302155Y-111399999D01*
X144302172Y-111400000D01*
X145000000Y-111400000D01*
X145000000Y-110375277D01*
X145076306Y-110419333D01*
X145190756Y-110450000D01*
X145309244Y-110450000D01*
X145423694Y-110419333D01*
X145500000Y-110375277D01*
X145500000Y-111400000D01*
X146197828Y-111400000D01*
X146197844Y-111399999D01*
X146257372Y-111393598D01*
X146257379Y-111393596D01*
X146392086Y-111343354D01*
X146392093Y-111343350D01*
X146507187Y-111257190D01*
X146507190Y-111257187D01*
X146593350Y-111142093D01*
X146593354Y-111142086D01*
X146643596Y-111007379D01*
X146643598Y-111007372D01*
X146649999Y-110947844D01*
X146650000Y-110947827D01*
X146650000Y-110250000D01*
X145625278Y-110250000D01*
X145669333Y-110173694D01*
X145700000Y-110059244D01*
X145700000Y-109940756D01*
X145669333Y-109826306D01*
X145625278Y-109750000D01*
X146650000Y-109750000D01*
X146650000Y-109052172D01*
X146649999Y-109052155D01*
X146643598Y-108992627D01*
X146643596Y-108992620D01*
X146593354Y-108857913D01*
X146593350Y-108857906D01*
X146507190Y-108742812D01*
X146507187Y-108742809D01*
X146392093Y-108656649D01*
X146392086Y-108656645D01*
X146257379Y-108606403D01*
X146257372Y-108606401D01*
X146197844Y-108600000D01*
X145500000Y-108600000D01*
X145500000Y-109624722D01*
X145423694Y-109580667D01*
X145309244Y-109550000D01*
X145190756Y-109550000D01*
X145076306Y-109580667D01*
X145000000Y-109624722D01*
X145000000Y-108600000D01*
X144302155Y-108600000D01*
X144242627Y-108606401D01*
X144242620Y-108606403D01*
X144107913Y-108656645D01*
X144107906Y-108656649D01*
X143992812Y-108742809D01*
X143992809Y-108742812D01*
X143906649Y-108857906D01*
X143906643Y-108857918D01*
X143876785Y-108937969D01*
X143834914Y-108993903D01*
X143769449Y-109018319D01*
X143701176Y-109003467D01*
X143672923Y-108982316D01*
X143622363Y-108931756D01*
X143622358Y-108931752D01*
X143444025Y-108802187D01*
X143444024Y-108802186D01*
X143444022Y-108802185D01*
X143381096Y-108770122D01*
X143247606Y-108702104D01*
X143247603Y-108702103D01*
X143037952Y-108633985D01*
X142929086Y-108616742D01*
X142820222Y-108599500D01*
X142599778Y-108599500D01*
X142527201Y-108610995D01*
X142382047Y-108633985D01*
X142172396Y-108702103D01*
X142172393Y-108702104D01*
X141975974Y-108802187D01*
X141797641Y-108931752D01*
X141797636Y-108931756D01*
X141641756Y-109087636D01*
X141641752Y-109087641D01*
X141512187Y-109265974D01*
X141412104Y-109462393D01*
X141412103Y-109462396D01*
X141343985Y-109672047D01*
X141309500Y-109889778D01*
X141309500Y-110110221D01*
X141343985Y-110327952D01*
X141412103Y-110537603D01*
X141412104Y-110537606D01*
X141512187Y-110734025D01*
X141641752Y-110912358D01*
X141641756Y-110912363D01*
X141641758Y-110912365D01*
X141797635Y-111068242D01*
X141958386Y-111185034D01*
X142001051Y-111240362D01*
X142009500Y-111285351D01*
X142009500Y-118258480D01*
X141989815Y-118325519D01*
X141973181Y-118346161D01*
X136886147Y-123433194D01*
X136824824Y-123466679D01*
X136779068Y-123467986D01*
X136729969Y-123460209D01*
X136662352Y-123449500D01*
X136457648Y-123449500D01*
X136433329Y-123453351D01*
X136255465Y-123481522D01*
X136060776Y-123544781D01*
X135878386Y-123637715D01*
X135712786Y-123758028D01*
X135568028Y-123902786D01*
X135447715Y-124068386D01*
X135354781Y-124250776D01*
X135291522Y-124445465D01*
X135259500Y-124647648D01*
X130240500Y-124647648D01*
X130208477Y-124445466D01*
X130145220Y-124250781D01*
X130145218Y-124250778D01*
X130145218Y-124250776D01*
X130111503Y-124184607D01*
X130052287Y-124068390D01*
X130012176Y-124013181D01*
X129931971Y-123902786D01*
X129787213Y-123758028D01*
X129621613Y-123637715D01*
X129621612Y-123637714D01*
X129621610Y-123637713D01*
X129564653Y-123608691D01*
X129439223Y-123544781D01*
X129244534Y-123481522D01*
X129069995Y-123453878D01*
X129042352Y-123449500D01*
X128837648Y-123449500D01*
X128813329Y-123453351D01*
X128635465Y-123481522D01*
X128440776Y-123544781D01*
X128258386Y-123637715D01*
X128092786Y-123758028D01*
X127948030Y-123902784D01*
X127878575Y-123998384D01*
X127823245Y-124041051D01*
X127778256Y-124049500D01*
X124091519Y-124049500D01*
X124024480Y-124029815D01*
X124003838Y-124013181D01*
X121152838Y-121162181D01*
X121119353Y-121100858D01*
X121124337Y-121031166D01*
X121166209Y-120975233D01*
X121231673Y-120950816D01*
X121240519Y-120950500D01*
X127778256Y-120950500D01*
X127845295Y-120970185D01*
X127878575Y-121001616D01*
X127948030Y-121097215D01*
X128092786Y-121241971D01*
X128247749Y-121354556D01*
X128258390Y-121362287D01*
X128374607Y-121421503D01*
X128440776Y-121455218D01*
X128440778Y-121455218D01*
X128440781Y-121455220D01*
X128545137Y-121489127D01*
X128635465Y-121518477D01*
X128736557Y-121534488D01*
X128837648Y-121550500D01*
X128837649Y-121550500D01*
X129042351Y-121550500D01*
X129042352Y-121550500D01*
X129244534Y-121518477D01*
X129439219Y-121455220D01*
X129621610Y-121362287D01*
X129714590Y-121294732D01*
X129787213Y-121241971D01*
X129787215Y-121241968D01*
X129787219Y-121241966D01*
X129931966Y-121097219D01*
X129931968Y-121097215D01*
X129931971Y-121097213D01*
X130020593Y-120975233D01*
X130052287Y-120931610D01*
X130145220Y-120749219D01*
X130208477Y-120554534D01*
X130240500Y-120352352D01*
X130240500Y-120147648D01*
X130208477Y-119945466D01*
X130145220Y-119750781D01*
X130145218Y-119750778D01*
X130145218Y-119750776D01*
X130111503Y-119684607D01*
X130052287Y-119568390D01*
X130012176Y-119513181D01*
X129931971Y-119402786D01*
X129787213Y-119258028D01*
X129621613Y-119137715D01*
X129621612Y-119137714D01*
X129621610Y-119137713D01*
X129564653Y-119108691D01*
X129439223Y-119044781D01*
X129244534Y-118981522D01*
X129069995Y-118953878D01*
X129042352Y-118949500D01*
X128837648Y-118949500D01*
X128813329Y-118953351D01*
X128635465Y-118981522D01*
X128440776Y-119044781D01*
X128258386Y-119137715D01*
X128092786Y-119258028D01*
X127948030Y-119402784D01*
X127878575Y-119498384D01*
X127823245Y-119541051D01*
X127778256Y-119549500D01*
X120591519Y-119549500D01*
X120524480Y-119529815D01*
X120503838Y-119513181D01*
X115236819Y-114246162D01*
X115203334Y-114184839D01*
X115200500Y-114158481D01*
X115200500Y-110501612D01*
X115220185Y-110434573D01*
X115272989Y-110388818D01*
X115342147Y-110378874D01*
X115371948Y-110387049D01*
X115408165Y-110402051D01*
X115408169Y-110402051D01*
X115408170Y-110402052D01*
X115601456Y-110440500D01*
X115601459Y-110440500D01*
X116798543Y-110440500D01*
X116928582Y-110414632D01*
X116991835Y-110402051D01*
X117173914Y-110326632D01*
X117337782Y-110217139D01*
X117477139Y-110077782D01*
X117586632Y-109913914D01*
X117662051Y-109731835D01*
X117700500Y-109538541D01*
X117700500Y-109341459D01*
X117699819Y-109338038D01*
X127943500Y-109338038D01*
X127943500Y-109589962D01*
X127964681Y-109723694D01*
X127982910Y-109838785D01*
X128060760Y-110078383D01*
X128175132Y-110302848D01*
X128323201Y-110506649D01*
X128323205Y-110506654D01*
X128501345Y-110684794D01*
X128501350Y-110684798D01*
X128569102Y-110734022D01*
X128705155Y-110832870D01*
X128848184Y-110905747D01*
X128929616Y-110947239D01*
X128929618Y-110947239D01*
X128929621Y-110947241D01*
X129169215Y-111025090D01*
X129418038Y-111064500D01*
X129418039Y-111064500D01*
X129669961Y-111064500D01*
X129669962Y-111064500D01*
X129918785Y-111025090D01*
X130158379Y-110947241D01*
X130382845Y-110832870D01*
X130586656Y-110684793D01*
X130764793Y-110506656D01*
X130912870Y-110302845D01*
X131027241Y-110078379D01*
X131088521Y-109889778D01*
X133559500Y-109889778D01*
X133559500Y-110110221D01*
X133593985Y-110327952D01*
X133662103Y-110537603D01*
X133662104Y-110537606D01*
X133762187Y-110734025D01*
X133891752Y-110912358D01*
X133891756Y-110912363D01*
X133891758Y-110912365D01*
X134047635Y-111068242D01*
X134208386Y-111185034D01*
X134251051Y-111240362D01*
X134259500Y-111285351D01*
X134259500Y-116391006D01*
X134259500Y-116528994D01*
X134259500Y-116528996D01*
X134259499Y-116528996D01*
X134286418Y-116664322D01*
X134286421Y-116664332D01*
X134339222Y-116791807D01*
X134415887Y-116906545D01*
X134415888Y-116906546D01*
X135823181Y-118313838D01*
X135856666Y-118375161D01*
X135859500Y-118401519D01*
X135859500Y-119088255D01*
X135839815Y-119155294D01*
X135808385Y-119188573D01*
X135712787Y-119258028D01*
X135712782Y-119258032D01*
X135568028Y-119402786D01*
X135447715Y-119568386D01*
X135354781Y-119750776D01*
X135291522Y-119945465D01*
X135259500Y-120147648D01*
X135259500Y-120352351D01*
X135291522Y-120554534D01*
X135354781Y-120749223D01*
X135447715Y-120931613D01*
X135568028Y-121097213D01*
X135712786Y-121241971D01*
X135867749Y-121354556D01*
X135878390Y-121362287D01*
X135994607Y-121421503D01*
X136060776Y-121455218D01*
X136060778Y-121455218D01*
X136060781Y-121455220D01*
X136165137Y-121489127D01*
X136255465Y-121518477D01*
X136356557Y-121534488D01*
X136457648Y-121550500D01*
X136457649Y-121550500D01*
X136662351Y-121550500D01*
X136662352Y-121550500D01*
X136864534Y-121518477D01*
X137059219Y-121455220D01*
X137241610Y-121362287D01*
X137334590Y-121294732D01*
X137407213Y-121241971D01*
X137407215Y-121241968D01*
X137407219Y-121241966D01*
X137551966Y-121097219D01*
X137551968Y-121097215D01*
X137551971Y-121097213D01*
X137640593Y-120975233D01*
X137672287Y-120931610D01*
X137765220Y-120749219D01*
X137828477Y-120554534D01*
X137860500Y-120352352D01*
X137860500Y-120147648D01*
X137828477Y-119945466D01*
X137765220Y-119750781D01*
X137765218Y-119750778D01*
X137765218Y-119750776D01*
X137731503Y-119684607D01*
X137672287Y-119568390D01*
X137632176Y-119513181D01*
X137551971Y-119402786D01*
X137407217Y-119258032D01*
X137407212Y-119258028D01*
X137311615Y-119188573D01*
X137268949Y-119133243D01*
X137260500Y-119088255D01*
X137260500Y-117991004D01*
X137233581Y-117855677D01*
X137233580Y-117855676D01*
X137233580Y-117855672D01*
X137233578Y-117855667D01*
X137180777Y-117728192D01*
X137104112Y-117613454D01*
X135696819Y-116206161D01*
X135663334Y-116144838D01*
X135660500Y-116118480D01*
X135660500Y-111285351D01*
X135680185Y-111218312D01*
X135711611Y-111185035D01*
X135872365Y-111068242D01*
X135922924Y-111017682D01*
X135984245Y-110984198D01*
X136053936Y-110989182D01*
X136109870Y-111031053D01*
X136126786Y-111062030D01*
X136156646Y-111142087D01*
X136156649Y-111142093D01*
X136242809Y-111257187D01*
X136242812Y-111257190D01*
X136357906Y-111343350D01*
X136357913Y-111343354D01*
X136492620Y-111393596D01*
X136492627Y-111393598D01*
X136552155Y-111399999D01*
X136552172Y-111400000D01*
X137250000Y-111400000D01*
X137250000Y-110375277D01*
X137326306Y-110419333D01*
X137440756Y-110450000D01*
X137559244Y-110450000D01*
X137673694Y-110419333D01*
X137750000Y-110375277D01*
X137750000Y-111400000D01*
X138447828Y-111400000D01*
X138447844Y-111399999D01*
X138507372Y-111393598D01*
X138507379Y-111393596D01*
X138642086Y-111343354D01*
X138642093Y-111343350D01*
X138757187Y-111257190D01*
X138757190Y-111257187D01*
X138843350Y-111142093D01*
X138843354Y-111142086D01*
X138893596Y-111007379D01*
X138893598Y-111007372D01*
X138899999Y-110947844D01*
X138900000Y-110947827D01*
X138900000Y-110250000D01*
X137875278Y-110250000D01*
X137919333Y-110173694D01*
X137950000Y-110059244D01*
X137950000Y-109940756D01*
X137919333Y-109826306D01*
X137875278Y-109750000D01*
X138900000Y-109750000D01*
X138900000Y-109052172D01*
X138899999Y-109052155D01*
X138893598Y-108992627D01*
X138893596Y-108992620D01*
X138843354Y-108857913D01*
X138843350Y-108857906D01*
X138757190Y-108742812D01*
X138757187Y-108742809D01*
X138642093Y-108656649D01*
X138642086Y-108656645D01*
X138507379Y-108606403D01*
X138507372Y-108606401D01*
X138447844Y-108600000D01*
X137750000Y-108600000D01*
X137750000Y-109624722D01*
X137673694Y-109580667D01*
X137559244Y-109550000D01*
X137440756Y-109550000D01*
X137326306Y-109580667D01*
X137250000Y-109624722D01*
X137250000Y-108600000D01*
X136552155Y-108600000D01*
X136492627Y-108606401D01*
X136492620Y-108606403D01*
X136357913Y-108656645D01*
X136357906Y-108656649D01*
X136242812Y-108742809D01*
X136242809Y-108742812D01*
X136156649Y-108857906D01*
X136156643Y-108857918D01*
X136126785Y-108937969D01*
X136084914Y-108993903D01*
X136019449Y-109018319D01*
X135951176Y-109003467D01*
X135922923Y-108982316D01*
X135872363Y-108931756D01*
X135872358Y-108931752D01*
X135694025Y-108802187D01*
X135694024Y-108802186D01*
X135694022Y-108802185D01*
X135631096Y-108770122D01*
X135497606Y-108702104D01*
X135497603Y-108702103D01*
X135287952Y-108633985D01*
X135179086Y-108616742D01*
X135070222Y-108599500D01*
X134849778Y-108599500D01*
X134777201Y-108610995D01*
X134632047Y-108633985D01*
X134422396Y-108702103D01*
X134422393Y-108702104D01*
X134225974Y-108802187D01*
X134047641Y-108931752D01*
X134047636Y-108931756D01*
X133891756Y-109087636D01*
X133891752Y-109087641D01*
X133762187Y-109265974D01*
X133662104Y-109462393D01*
X133662103Y-109462396D01*
X133593985Y-109672047D01*
X133559500Y-109889778D01*
X131088521Y-109889778D01*
X131105090Y-109838785D01*
X131144500Y-109589962D01*
X131144500Y-109338038D01*
X131105090Y-109089215D01*
X131027241Y-108849621D01*
X131027239Y-108849618D01*
X131027239Y-108849616D01*
X130972819Y-108742812D01*
X130912870Y-108625155D01*
X130805919Y-108477949D01*
X130764798Y-108421350D01*
X130764794Y-108421345D01*
X130586654Y-108243205D01*
X130586649Y-108243201D01*
X130382848Y-108095132D01*
X130382847Y-108095131D01*
X130382845Y-108095130D01*
X130278860Y-108042147D01*
X130158383Y-107980760D01*
X129918785Y-107902910D01*
X129903569Y-107900500D01*
X129669962Y-107863500D01*
X129418038Y-107863500D01*
X129293626Y-107883205D01*
X129169214Y-107902910D01*
X128929616Y-107980760D01*
X128705151Y-108095132D01*
X128501350Y-108243201D01*
X128501345Y-108243205D01*
X128323205Y-108421345D01*
X128323201Y-108421350D01*
X128175132Y-108625151D01*
X128060760Y-108849616D01*
X127994946Y-109052172D01*
X127982910Y-109089215D01*
X127943500Y-109338038D01*
X117699819Y-109338038D01*
X117694699Y-109312299D01*
X117694461Y-109310945D01*
X117698192Y-109277541D01*
X117701190Y-109244037D01*
X117702088Y-109242665D01*
X117702218Y-109241507D01*
X117705471Y-109237503D01*
X117728898Y-109201757D01*
X140756114Y-86174543D01*
X140832775Y-86059811D01*
X140885580Y-85932328D01*
X140911333Y-85802861D01*
X140912500Y-85796996D01*
X140912500Y-81223547D01*
X140932185Y-81156508D01*
X140963614Y-81123230D01*
X141091792Y-81030104D01*
X141242104Y-80879792D01*
X141242106Y-80879788D01*
X141242109Y-80879786D01*
X141367048Y-80707820D01*
X141367047Y-80707820D01*
X141367051Y-80707816D01*
X141371514Y-80699054D01*
X141419488Y-80648259D01*
X141487308Y-80631463D01*
X141553444Y-80653999D01*
X141592486Y-80699056D01*
X141596951Y-80707820D01*
X141721890Y-80879786D01*
X141872213Y-81030109D01*
X142044179Y-81155048D01*
X142044181Y-81155049D01*
X142044184Y-81155051D01*
X142233588Y-81251557D01*
X142435757Y-81317246D01*
X142645713Y-81350500D01*
X142645714Y-81350500D01*
X142858286Y-81350500D01*
X142858287Y-81350500D01*
X143068243Y-81317246D01*
X143270412Y-81251557D01*
X143459816Y-81155051D01*
X143546138Y-81092335D01*
X143631786Y-81030109D01*
X143631788Y-81030106D01*
X143631792Y-81030104D01*
X143782104Y-80879792D01*
X143782106Y-80879788D01*
X143782109Y-80879786D01*
X143907048Y-80707820D01*
X143907047Y-80707820D01*
X143907051Y-80707816D01*
X143911514Y-80699054D01*
X143959488Y-80648259D01*
X144027308Y-80631463D01*
X144093444Y-80653999D01*
X144132486Y-80699056D01*
X144136951Y-80707820D01*
X144261890Y-80879786D01*
X144412213Y-81030109D01*
X144584179Y-81155048D01*
X144584181Y-81155049D01*
X144584184Y-81155051D01*
X144773588Y-81251557D01*
X144975757Y-81317246D01*
X145185713Y-81350500D01*
X145185714Y-81350500D01*
X145398286Y-81350500D01*
X145398287Y-81350500D01*
X145608243Y-81317246D01*
X145810412Y-81251557D01*
X145999816Y-81155051D01*
X146086138Y-81092335D01*
X146171786Y-81030109D01*
X146171788Y-81030106D01*
X146171792Y-81030104D01*
X146322104Y-80879792D01*
X146322106Y-80879788D01*
X146322109Y-80879786D01*
X146407890Y-80761717D01*
X146447051Y-80707816D01*
X146451793Y-80698508D01*
X146499763Y-80647711D01*
X146567583Y-80630911D01*
X146633719Y-80653445D01*
X146672763Y-80698500D01*
X146677373Y-80707547D01*
X146716728Y-80761716D01*
X147349037Y-80129408D01*
X147366075Y-80192993D01*
X147431901Y-80307007D01*
X147524993Y-80400099D01*
X147639007Y-80465925D01*
X147702590Y-80482962D01*
X147070282Y-81115269D01*
X147070282Y-81115270D01*
X147124449Y-81154624D01*
X147313782Y-81251095D01*
X147515870Y-81316757D01*
X147725754Y-81350000D01*
X147938246Y-81350000D01*
X148148127Y-81316757D01*
X148148130Y-81316757D01*
X148350217Y-81251095D01*
X148539554Y-81154622D01*
X148593716Y-81115270D01*
X148593717Y-81115270D01*
X147961408Y-80482962D01*
X148024993Y-80465925D01*
X148139007Y-80400099D01*
X148232099Y-80307007D01*
X148297925Y-80192993D01*
X148314962Y-80129408D01*
X148947270Y-80761717D01*
X148947270Y-80761716D01*
X148986622Y-80707555D01*
X148991232Y-80698507D01*
X149039205Y-80647709D01*
X149107025Y-80630912D01*
X149173161Y-80653447D01*
X149212204Y-80698504D01*
X149216949Y-80707817D01*
X149341890Y-80879786D01*
X149492213Y-81030109D01*
X149664179Y-81155048D01*
X149664181Y-81155049D01*
X149664184Y-81155051D01*
X149853588Y-81251557D01*
X150055757Y-81317246D01*
X150265713Y-81350500D01*
X150265714Y-81350500D01*
X150478286Y-81350500D01*
X150478287Y-81350500D01*
X150688243Y-81317246D01*
X150890412Y-81251557D01*
X151079816Y-81155051D01*
X151234516Y-81042656D01*
X151251784Y-81030110D01*
X151251784Y-81030109D01*
X151251792Y-81030104D01*
X151365329Y-80916566D01*
X151426648Y-80883084D01*
X151496340Y-80888068D01*
X151552274Y-80929939D01*
X151569189Y-80960917D01*
X151618202Y-81092328D01*
X151618206Y-81092335D01*
X151704452Y-81207544D01*
X151704455Y-81207547D01*
X151819664Y-81293793D01*
X151819671Y-81293797D01*
X151954517Y-81344091D01*
X151954516Y-81344091D01*
X151961444Y-81344835D01*
X152014127Y-81350500D01*
X153809872Y-81350499D01*
X153869483Y-81344091D01*
X154004331Y-81293796D01*
X154119546Y-81207546D01*
X154205796Y-81092331D01*
X154256091Y-80957483D01*
X154262500Y-80897873D01*
X154262499Y-79874038D01*
X156899500Y-79874038D01*
X156899500Y-80125962D01*
X156928175Y-80307007D01*
X156938910Y-80374785D01*
X157016760Y-80614383D01*
X157131132Y-80838848D01*
X157279201Y-81042649D01*
X157279205Y-81042654D01*
X157457345Y-81220794D01*
X157457350Y-81220798D01*
X157587847Y-81315609D01*
X157661155Y-81368870D01*
X157804184Y-81441747D01*
X157885616Y-81483239D01*
X157885618Y-81483239D01*
X157885621Y-81483241D01*
X158125215Y-81561090D01*
X158374038Y-81600500D01*
X158374039Y-81600500D01*
X158625961Y-81600500D01*
X158625962Y-81600500D01*
X158874785Y-81561090D01*
X159114379Y-81483241D01*
X159338845Y-81368870D01*
X159542656Y-81220793D01*
X159720793Y-81042656D01*
X159868870Y-80838845D01*
X159983241Y-80614379D01*
X160061090Y-80374785D01*
X160100500Y-80125962D01*
X160100500Y-79874038D01*
X160061090Y-79625215D01*
X159983241Y-79385621D01*
X159983239Y-79385618D01*
X159983239Y-79385616D01*
X159935763Y-79292440D01*
X159868870Y-79161155D01*
X159825985Y-79102129D01*
X159720798Y-78957350D01*
X159720794Y-78957345D01*
X159542654Y-78779205D01*
X159542649Y-78779201D01*
X159338848Y-78631132D01*
X159338847Y-78631131D01*
X159338845Y-78631130D01*
X159268747Y-78595413D01*
X159114383Y-78516760D01*
X158874785Y-78438910D01*
X158625962Y-78399500D01*
X158374038Y-78399500D01*
X158249626Y-78419205D01*
X158125214Y-78438910D01*
X157885616Y-78516760D01*
X157661151Y-78631132D01*
X157457350Y-78779201D01*
X157457345Y-78779205D01*
X157279205Y-78957345D01*
X157279201Y-78957350D01*
X157131132Y-79161151D01*
X157016760Y-79385616D01*
X156938910Y-79625214D01*
X156935547Y-79646446D01*
X156899500Y-79874038D01*
X154262499Y-79874038D01*
X154262499Y-79102128D01*
X154256091Y-79042517D01*
X154205808Y-78907702D01*
X154205797Y-78907671D01*
X154205793Y-78907664D01*
X154119547Y-78792455D01*
X154119544Y-78792452D01*
X154004335Y-78706206D01*
X154004328Y-78706202D01*
X153869482Y-78655908D01*
X153869483Y-78655908D01*
X153809883Y-78649501D01*
X153809881Y-78649500D01*
X153809873Y-78649500D01*
X153809865Y-78649500D01*
X152815651Y-78649500D01*
X152748612Y-78629815D01*
X152727970Y-78613181D01*
X152097819Y-77983030D01*
X152064334Y-77921707D01*
X152061500Y-77895349D01*
X152061500Y-77715232D01*
X152061499Y-77715228D01*
X152046053Y-77637576D01*
X152028816Y-77550918D01*
X151964703Y-77396137D01*
X151933537Y-77349494D01*
X151871626Y-77256837D01*
X151753162Y-77138373D01*
X151613860Y-77045295D01*
X151459082Y-76981184D01*
X151459074Y-76981182D01*
X151294771Y-76948500D01*
X151294767Y-76948500D01*
X143075086Y-76948500D01*
X143008047Y-76928815D01*
X142962292Y-76876011D01*
X142952348Y-76806853D01*
X142981373Y-76743297D01*
X143040151Y-76705523D01*
X143062934Y-76701097D01*
X143068996Y-76700500D01*
X143160040Y-76682389D01*
X143204328Y-76673580D01*
X143300279Y-76633836D01*
X143331807Y-76620777D01*
X143331808Y-76620776D01*
X143331811Y-76620775D01*
X143446543Y-76544114D01*
X145130150Y-74860505D01*
X145191471Y-74827022D01*
X145237227Y-74825715D01*
X145305868Y-74836586D01*
X145393713Y-74850500D01*
X145393714Y-74850500D01*
X145606286Y-74850500D01*
X145606287Y-74850500D01*
X145816243Y-74817246D01*
X146018412Y-74751557D01*
X146207816Y-74655051D01*
X146294147Y-74592328D01*
X146379784Y-74530110D01*
X146379784Y-74530109D01*
X146379792Y-74530104D01*
X146493329Y-74416566D01*
X146554648Y-74383084D01*
X146624340Y-74388068D01*
X146680274Y-74429939D01*
X146697189Y-74460917D01*
X146746202Y-74592328D01*
X146746206Y-74592335D01*
X146832452Y-74707544D01*
X146832455Y-74707547D01*
X146947664Y-74793793D01*
X146947671Y-74793797D01*
X147082517Y-74844091D01*
X147082516Y-74844091D01*
X147089444Y-74844835D01*
X147142127Y-74850500D01*
X148937872Y-74850499D01*
X148997483Y-74844091D01*
X149132331Y-74793796D01*
X149247546Y-74707546D01*
X149333796Y-74592331D01*
X149384091Y-74457483D01*
X149390500Y-74397873D01*
X149390499Y-72602128D01*
X149384091Y-72542517D01*
X149343158Y-72432771D01*
X149333797Y-72407671D01*
X149333793Y-72407664D01*
X149247547Y-72292455D01*
X149247544Y-72292452D01*
X149132335Y-72206206D01*
X149132328Y-72206202D01*
X148997482Y-72155908D01*
X148997483Y-72155908D01*
X148937883Y-72149501D01*
X148937881Y-72149500D01*
X148937873Y-72149500D01*
X148937865Y-72149500D01*
X147943651Y-72149500D01*
X147876612Y-72129815D01*
X147855970Y-72113181D01*
X147431165Y-71688375D01*
X147431161Y-71688372D01*
X147291866Y-71595297D01*
X147291863Y-71595296D01*
X147182416Y-71549962D01*
X147182414Y-71549961D01*
X147137086Y-71531185D01*
X147137074Y-71531182D01*
X146972771Y-71498500D01*
X146972767Y-71498500D01*
X144939473Y-71498500D01*
X144939468Y-71498500D01*
X144775165Y-71531182D01*
X144775157Y-71531184D01*
X144620379Y-71595295D01*
X144481077Y-71688373D01*
X144362613Y-71806837D01*
X144269535Y-71946139D01*
X144205424Y-72100917D01*
X144205422Y-72100925D01*
X144172740Y-72265228D01*
X144172740Y-72432771D01*
X144184883Y-72493817D01*
X144178656Y-72563409D01*
X144135793Y-72618586D01*
X144069903Y-72641830D01*
X144001906Y-72625762D01*
X143975585Y-72605689D01*
X143839786Y-72469890D01*
X143667820Y-72344951D01*
X143478414Y-72248444D01*
X143478413Y-72248443D01*
X143478412Y-72248443D01*
X143276243Y-72182754D01*
X143276241Y-72182753D01*
X143276240Y-72182753D01*
X143114957Y-72157208D01*
X143066287Y-72149500D01*
X142853713Y-72149500D01*
X142805042Y-72157208D01*
X142643760Y-72182753D01*
X142441585Y-72248444D01*
X142252179Y-72344951D01*
X142080213Y-72469890D01*
X141929890Y-72620213D01*
X141804949Y-72792182D01*
X141800202Y-72801499D01*
X141752227Y-72852293D01*
X141684405Y-72869087D01*
X141618271Y-72846548D01*
X141579234Y-72801495D01*
X141574626Y-72792452D01*
X141535270Y-72738282D01*
X141535269Y-72738282D01*
X140902962Y-73370589D01*
X140885925Y-73307007D01*
X140820099Y-73192993D01*
X140727007Y-73099901D01*
X140612993Y-73034075D01*
X140549409Y-73017037D01*
X141181716Y-72384728D01*
X141127550Y-72345375D01*
X140938217Y-72248904D01*
X140736129Y-72183242D01*
X140526246Y-72150000D01*
X140313754Y-72150000D01*
X140103872Y-72183242D01*
X140103869Y-72183242D01*
X139901782Y-72248904D01*
X139712439Y-72345380D01*
X139658282Y-72384727D01*
X139658282Y-72384728D01*
X140290591Y-73017037D01*
X140227007Y-73034075D01*
X140112993Y-73099901D01*
X140019901Y-73192993D01*
X139954075Y-73307007D01*
X139937037Y-73370591D01*
X139304728Y-72738282D01*
X139304727Y-72738282D01*
X139265380Y-72792439D01*
X139168904Y-72981782D01*
X139103242Y-73183869D01*
X139103242Y-73183872D01*
X139070000Y-73393753D01*
X139070000Y-73606245D01*
X139101813Y-73807102D01*
X139092859Y-73876395D01*
X139047862Y-73929847D01*
X138981111Y-73950487D01*
X138979340Y-73950500D01*
X132492519Y-73950500D01*
X132425480Y-73930815D01*
X132404838Y-73914181D01*
X128316805Y-69826148D01*
X128283320Y-69764825D01*
X128282013Y-69719068D01*
X128300500Y-69602349D01*
X128300500Y-69397648D01*
X128268477Y-69195465D01*
X128205218Y-69000776D01*
X128171503Y-68934607D01*
X128112287Y-68818390D01*
X128104556Y-68807749D01*
X127991971Y-68652786D01*
X127847213Y-68508028D01*
X127681613Y-68387715D01*
X127681612Y-68387714D01*
X127681610Y-68387713D01*
X127624653Y-68358691D01*
X127499223Y-68294781D01*
X127304534Y-68231522D01*
X127129995Y-68203878D01*
X127102352Y-68199500D01*
X126897648Y-68199500D01*
X126873329Y-68203351D01*
X126695465Y-68231522D01*
X126500776Y-68294781D01*
X126318386Y-68387715D01*
X126152786Y-68508028D01*
X126008028Y-68652786D01*
X125887715Y-68818386D01*
X125794781Y-69000776D01*
X125731522Y-69195465D01*
X125699500Y-69397648D01*
X125699500Y-69602351D01*
X125731522Y-69804534D01*
X125794781Y-69999223D01*
X125887715Y-70181613D01*
X126008028Y-70347213D01*
X126152786Y-70491971D01*
X126269985Y-70577119D01*
X126318390Y-70612287D01*
X126434607Y-70671503D01*
X126500776Y-70705218D01*
X126500778Y-70705218D01*
X126500781Y-70705220D01*
X126605137Y-70739127D01*
X126695465Y-70768477D01*
X126789173Y-70783319D01*
X126897648Y-70800500D01*
X126897649Y-70800500D01*
X127102350Y-70800500D01*
X127102352Y-70800500D01*
X127219068Y-70782013D01*
X127288362Y-70790967D01*
X127326148Y-70816805D01*
X128282045Y-71772702D01*
X128315530Y-71834025D01*
X128310546Y-71903717D01*
X128282045Y-71948064D01*
X118339375Y-81890734D01*
X118339372Y-81890738D01*
X118246299Y-82030031D01*
X118246292Y-82030044D01*
X118224379Y-82082950D01*
X118224379Y-82082951D01*
X118182184Y-82184817D01*
X118182182Y-82184825D01*
X118149500Y-82349128D01*
X118149500Y-85525500D01*
X118129815Y-85592539D01*
X118077011Y-85638294D01*
X118025500Y-85649500D01*
X117092671Y-85649500D01*
X117045219Y-85640061D01*
X116991839Y-85617950D01*
X116991829Y-85617947D01*
X116798543Y-85579500D01*
X116798541Y-85579500D01*
X115601459Y-85579500D01*
X115601457Y-85579500D01*
X115408170Y-85617947D01*
X115408160Y-85617950D01*
X115226092Y-85693364D01*
X115226079Y-85693371D01*
X115062218Y-85802860D01*
X115062214Y-85802863D01*
X114922863Y-85942214D01*
X114922860Y-85942218D01*
X114813371Y-86106079D01*
X114813364Y-86106092D01*
X114737950Y-86288160D01*
X114737947Y-86288170D01*
X114699500Y-86481456D01*
X114699500Y-86481459D01*
X114699500Y-86678541D01*
X114699500Y-86678543D01*
X114699499Y-86678543D01*
X114737947Y-86871829D01*
X114737950Y-86871839D01*
X114813364Y-87053907D01*
X114813371Y-87053920D01*
X114922860Y-87217781D01*
X114922863Y-87217785D01*
X115062214Y-87357136D01*
X115062218Y-87357139D01*
X115226079Y-87466628D01*
X115226092Y-87466635D01*
X115408160Y-87542049D01*
X115408165Y-87542051D01*
X115408169Y-87542051D01*
X115408170Y-87542052D01*
X115601456Y-87580500D01*
X115601459Y-87580500D01*
X116798543Y-87580500D01*
X116928582Y-87554632D01*
X116991835Y-87542051D01*
X117173914Y-87466632D01*
X117316442Y-87371398D01*
X117383119Y-87350520D01*
X117385333Y-87350500D01*
X119083768Y-87350500D01*
X119083769Y-87350499D01*
X119248082Y-87317816D01*
X119402863Y-87253703D01*
X119542162Y-87160626D01*
X119660626Y-87042162D01*
X119753703Y-86902863D01*
X119817816Y-86748082D01*
X119850500Y-86583767D01*
X119850500Y-82836551D01*
X119870185Y-82769512D01*
X119886819Y-82748870D01*
X124587819Y-78047870D01*
X124649142Y-78014385D01*
X124718834Y-78019369D01*
X124774767Y-78061241D01*
X124799184Y-78126705D01*
X124799500Y-78135551D01*
X124799500Y-95018481D01*
X124779815Y-95085520D01*
X124763181Y-95106162D01*
X120489042Y-99380300D01*
X120427719Y-99413785D01*
X120358027Y-99408801D01*
X120302094Y-99366929D01*
X120279744Y-99316810D01*
X120269738Y-99266510D01*
X120269737Y-99266503D01*
X120234510Y-99181456D01*
X120209397Y-99120827D01*
X120209390Y-99120814D01*
X120121789Y-98989711D01*
X120121786Y-98989707D01*
X120010292Y-98878213D01*
X120010288Y-98878210D01*
X119879185Y-98790609D01*
X119879172Y-98790602D01*
X119733499Y-98730263D01*
X119727669Y-98728495D01*
X119727975Y-98727484D01*
X119691107Y-98712207D01*
X119611819Y-98659230D01*
X119611814Y-98659227D01*
X119611811Y-98659225D01*
X119611809Y-98659224D01*
X119611807Y-98659223D01*
X119484328Y-98606420D01*
X119484322Y-98606418D01*
X119348996Y-98579500D01*
X119348994Y-98579500D01*
X119348993Y-98579500D01*
X117465783Y-98579500D01*
X117398744Y-98559815D01*
X117378101Y-98543180D01*
X117337785Y-98502863D01*
X117337781Y-98502860D01*
X117173920Y-98393371D01*
X117173907Y-98393364D01*
X116991839Y-98317950D01*
X116991829Y-98317947D01*
X116798543Y-98279500D01*
X116798541Y-98279500D01*
X116250519Y-98279500D01*
X116183480Y-98259815D01*
X116137725Y-98207011D01*
X116127781Y-98137853D01*
X116156806Y-98074297D01*
X116162838Y-98067819D01*
X116453838Y-97776819D01*
X116515161Y-97743334D01*
X116541519Y-97740500D01*
X116798543Y-97740500D01*
X116928582Y-97714632D01*
X116991835Y-97702051D01*
X117173914Y-97626632D01*
X117337782Y-97517139D01*
X117477139Y-97377782D01*
X117586632Y-97213914D01*
X117662051Y-97031835D01*
X117700500Y-96838541D01*
X117700500Y-96641459D01*
X117700500Y-96641456D01*
X117662052Y-96448170D01*
X117662051Y-96448169D01*
X117662051Y-96448165D01*
X117662049Y-96448160D01*
X117586635Y-96266092D01*
X117586628Y-96266079D01*
X117477139Y-96102218D01*
X117477136Y-96102214D01*
X117337785Y-95962863D01*
X117337781Y-95962860D01*
X117173920Y-95853371D01*
X117173907Y-95853364D01*
X116991839Y-95777950D01*
X116991829Y-95777947D01*
X116798543Y-95739500D01*
X116798541Y-95739500D01*
X116250519Y-95739500D01*
X116183480Y-95719815D01*
X116137725Y-95667011D01*
X116127781Y-95597853D01*
X116156806Y-95534297D01*
X116162838Y-95527819D01*
X116453838Y-95236819D01*
X116515161Y-95203334D01*
X116541519Y-95200500D01*
X116798543Y-95200500D01*
X116928582Y-95174632D01*
X116991835Y-95162051D01*
X117173914Y-95086632D01*
X117337782Y-94977139D01*
X117477139Y-94837782D01*
X117586632Y-94673914D01*
X117662051Y-94491835D01*
X117700500Y-94298541D01*
X117700500Y-94101459D01*
X117700500Y-94101456D01*
X117662052Y-93908170D01*
X117662051Y-93908169D01*
X117662051Y-93908165D01*
X117662049Y-93908160D01*
X117586635Y-93726092D01*
X117586628Y-93726079D01*
X117477139Y-93562218D01*
X117477136Y-93562214D01*
X117337785Y-93422863D01*
X117337781Y-93422860D01*
X117173920Y-93313371D01*
X117173907Y-93313364D01*
X116991839Y-93237950D01*
X116991829Y-93237947D01*
X116798543Y-93199500D01*
X116798541Y-93199500D01*
X115601459Y-93199500D01*
X115601457Y-93199500D01*
X115408170Y-93237947D01*
X115408160Y-93237950D01*
X115226092Y-93313364D01*
X115226079Y-93313371D01*
X115062218Y-93422860D01*
X115062214Y-93422863D01*
X114922863Y-93562214D01*
X114922860Y-93562218D01*
X114813371Y-93726079D01*
X114813364Y-93726092D01*
X114737950Y-93908160D01*
X114737947Y-93908170D01*
X114699500Y-94101456D01*
X114699500Y-94101459D01*
X114699500Y-94298541D01*
X114699500Y-94298543D01*
X114699499Y-94298543D01*
X114737947Y-94491829D01*
X114737950Y-94491839D01*
X114813364Y-94673907D01*
X114813371Y-94673920D01*
X114845775Y-94722415D01*
X114866653Y-94789092D01*
X114848169Y-94856472D01*
X114830354Y-94878987D01*
X113412181Y-96297161D01*
X113350858Y-96330646D01*
X113281166Y-96325662D01*
X113225233Y-96283790D01*
X113200816Y-96218326D01*
X113200500Y-96209480D01*
X113200500Y-91758543D01*
X114699499Y-91758543D01*
X114737947Y-91951829D01*
X114737950Y-91951839D01*
X114813364Y-92133907D01*
X114813371Y-92133920D01*
X114922860Y-92297781D01*
X114922863Y-92297785D01*
X115062214Y-92437136D01*
X115062218Y-92437139D01*
X115226079Y-92546628D01*
X115226092Y-92546635D01*
X115408160Y-92622049D01*
X115408165Y-92622051D01*
X115408169Y-92622051D01*
X115408170Y-92622052D01*
X115601456Y-92660500D01*
X115601459Y-92660500D01*
X116798543Y-92660500D01*
X116928582Y-92634632D01*
X116991835Y-92622051D01*
X117173914Y-92546632D01*
X117337782Y-92437139D01*
X117477139Y-92297782D01*
X117586632Y-92133914D01*
X117662051Y-91951835D01*
X117700500Y-91758541D01*
X117700500Y-91561459D01*
X117700500Y-91561456D01*
X117662052Y-91368170D01*
X117662051Y-91368169D01*
X117662051Y-91368165D01*
X117662049Y-91368160D01*
X117586635Y-91186092D01*
X117586628Y-91186079D01*
X117477139Y-91022218D01*
X117477136Y-91022214D01*
X117337785Y-90882863D01*
X117337781Y-90882860D01*
X117173920Y-90773371D01*
X117173907Y-90773364D01*
X116991839Y-90697950D01*
X116991829Y-90697947D01*
X116798543Y-90659500D01*
X116798541Y-90659500D01*
X115601459Y-90659500D01*
X115601457Y-90659500D01*
X115408170Y-90697947D01*
X115408160Y-90697950D01*
X115226092Y-90773364D01*
X115226079Y-90773371D01*
X115062218Y-90882860D01*
X115062214Y-90882863D01*
X114922863Y-91022214D01*
X114922860Y-91022218D01*
X114813371Y-91186079D01*
X114813364Y-91186092D01*
X114737950Y-91368160D01*
X114737947Y-91368170D01*
X114699500Y-91561456D01*
X114699500Y-91561459D01*
X114699500Y-91758541D01*
X114699500Y-91758543D01*
X114699499Y-91758543D01*
X113200500Y-91758543D01*
X113200500Y-89218543D01*
X114699499Y-89218543D01*
X114737947Y-89411829D01*
X114737950Y-89411839D01*
X114813364Y-89593907D01*
X114813371Y-89593920D01*
X114922860Y-89757781D01*
X114922863Y-89757785D01*
X115062214Y-89897136D01*
X115062218Y-89897139D01*
X115226079Y-90006628D01*
X115226092Y-90006635D01*
X115408160Y-90082049D01*
X115408165Y-90082051D01*
X115408169Y-90082051D01*
X115408170Y-90082052D01*
X115601456Y-90120500D01*
X115601459Y-90120500D01*
X116798543Y-90120500D01*
X116928582Y-90094632D01*
X116991835Y-90082051D01*
X117173914Y-90006632D01*
X117337782Y-89897139D01*
X117477139Y-89757782D01*
X117586632Y-89593914D01*
X117662051Y-89411835D01*
X117700500Y-89218541D01*
X117700500Y-89021459D01*
X117700500Y-89021456D01*
X117662052Y-88828170D01*
X117662051Y-88828169D01*
X117662051Y-88828165D01*
X117662049Y-88828160D01*
X117586635Y-88646092D01*
X117586628Y-88646079D01*
X117477139Y-88482218D01*
X117477136Y-88482214D01*
X117337785Y-88342863D01*
X117337781Y-88342860D01*
X117173920Y-88233371D01*
X117173907Y-88233364D01*
X116991839Y-88157950D01*
X116991829Y-88157947D01*
X116798543Y-88119500D01*
X116798541Y-88119500D01*
X115601459Y-88119500D01*
X115601457Y-88119500D01*
X115408170Y-88157947D01*
X115408160Y-88157950D01*
X115226092Y-88233364D01*
X115226079Y-88233371D01*
X115062218Y-88342860D01*
X115062214Y-88342863D01*
X114922863Y-88482214D01*
X114922860Y-88482218D01*
X114813371Y-88646079D01*
X114813364Y-88646092D01*
X114737950Y-88828160D01*
X114737947Y-88828170D01*
X114699500Y-89021456D01*
X114699500Y-89021459D01*
X114699500Y-89218541D01*
X114699500Y-89218543D01*
X114699499Y-89218543D01*
X113200500Y-89218543D01*
X113200500Y-84138543D01*
X114699499Y-84138543D01*
X114737947Y-84331829D01*
X114737950Y-84331839D01*
X114813364Y-84513907D01*
X114813371Y-84513920D01*
X114922860Y-84677781D01*
X114922863Y-84677785D01*
X115062214Y-84817136D01*
X115062218Y-84817139D01*
X115226079Y-84926628D01*
X115226092Y-84926635D01*
X115408160Y-85002049D01*
X115408165Y-85002051D01*
X115408169Y-85002051D01*
X115408170Y-85002052D01*
X115601456Y-85040500D01*
X115601459Y-85040500D01*
X116798543Y-85040500D01*
X116928582Y-85014632D01*
X116991835Y-85002051D01*
X117173914Y-84926632D01*
X117337782Y-84817139D01*
X117477139Y-84677782D01*
X117586632Y-84513914D01*
X117662051Y-84331835D01*
X117700500Y-84138541D01*
X117700500Y-83941459D01*
X117700500Y-83941456D01*
X117662052Y-83748170D01*
X117662051Y-83748169D01*
X117662051Y-83748165D01*
X117662049Y-83748160D01*
X117586635Y-83566092D01*
X117586628Y-83566079D01*
X117477139Y-83402218D01*
X117477136Y-83402214D01*
X117337785Y-83262863D01*
X117337781Y-83262860D01*
X117173920Y-83153371D01*
X117173907Y-83153364D01*
X116991839Y-83077950D01*
X116991829Y-83077947D01*
X116798543Y-83039500D01*
X116798541Y-83039500D01*
X115601459Y-83039500D01*
X115601457Y-83039500D01*
X115408170Y-83077947D01*
X115408160Y-83077950D01*
X115226092Y-83153364D01*
X115226079Y-83153371D01*
X115062218Y-83262860D01*
X115062214Y-83262863D01*
X114922863Y-83402214D01*
X114922860Y-83402218D01*
X114813371Y-83566079D01*
X114813364Y-83566092D01*
X114737950Y-83748160D01*
X114737947Y-83748170D01*
X114699500Y-83941456D01*
X114699500Y-83941459D01*
X114699500Y-84138541D01*
X114699500Y-84138543D01*
X114699499Y-84138543D01*
X113200500Y-84138543D01*
X113200500Y-81598543D01*
X114699499Y-81598543D01*
X114737947Y-81791829D01*
X114737950Y-81791839D01*
X114813364Y-81973907D01*
X114813371Y-81973920D01*
X114922860Y-82137781D01*
X114922863Y-82137785D01*
X115062214Y-82277136D01*
X115062218Y-82277139D01*
X115226079Y-82386628D01*
X115226092Y-82386635D01*
X115408160Y-82462049D01*
X115408165Y-82462051D01*
X115408169Y-82462051D01*
X115408170Y-82462052D01*
X115601456Y-82500500D01*
X115601459Y-82500500D01*
X116798543Y-82500500D01*
X116928582Y-82474632D01*
X116991835Y-82462051D01*
X117173914Y-82386632D01*
X117337782Y-82277139D01*
X117477139Y-82137782D01*
X117586632Y-81973914D01*
X117662051Y-81791835D01*
X117674632Y-81728582D01*
X117700500Y-81598543D01*
X117700500Y-81401456D01*
X117662052Y-81208170D01*
X117662051Y-81208169D01*
X117662051Y-81208165D01*
X117661794Y-81207544D01*
X117586635Y-81026092D01*
X117586628Y-81026079D01*
X117477139Y-80862218D01*
X117477136Y-80862214D01*
X117337785Y-80722863D01*
X117337781Y-80722860D01*
X117173920Y-80613371D01*
X117173907Y-80613364D01*
X116991839Y-80537950D01*
X116991829Y-80537947D01*
X116798543Y-80499500D01*
X116798541Y-80499500D01*
X115601459Y-80499500D01*
X115601457Y-80499500D01*
X115408170Y-80537947D01*
X115408160Y-80537950D01*
X115226092Y-80613364D01*
X115226079Y-80613371D01*
X115062218Y-80722860D01*
X115062214Y-80722863D01*
X114922863Y-80862214D01*
X114922860Y-80862218D01*
X114813371Y-81026079D01*
X114813364Y-81026092D01*
X114737950Y-81208160D01*
X114737947Y-81208170D01*
X114699500Y-81401456D01*
X114699500Y-81401459D01*
X114699500Y-81598541D01*
X114699500Y-81598543D01*
X114699499Y-81598543D01*
X113200500Y-81598543D01*
X113200500Y-76721517D01*
X113220185Y-76654478D01*
X113236814Y-76633841D01*
X119053852Y-70816802D01*
X119115173Y-70783319D01*
X119160923Y-70782012D01*
X119277648Y-70800500D01*
X119277650Y-70800500D01*
X119482351Y-70800500D01*
X119482352Y-70800500D01*
X119684534Y-70768477D01*
X119879219Y-70705220D01*
X120061610Y-70612287D01*
X120154590Y-70544732D01*
X120227213Y-70491971D01*
X120227215Y-70491968D01*
X120227219Y-70491966D01*
X120371966Y-70347219D01*
X120371968Y-70347215D01*
X120371971Y-70347213D01*
X120424732Y-70274590D01*
X120492287Y-70181610D01*
X120585220Y-69999219D01*
X120648477Y-69804534D01*
X120680500Y-69602352D01*
X120680500Y-69397648D01*
X120648477Y-69195466D01*
X120585220Y-69000781D01*
X120585218Y-69000778D01*
X120585218Y-69000776D01*
X120551503Y-68934607D01*
X120492287Y-68818390D01*
X120484556Y-68807749D01*
X120371971Y-68652786D01*
X120227217Y-68508032D01*
X120227212Y-68508028D01*
X120131615Y-68438573D01*
X120088949Y-68383243D01*
X120080500Y-68338255D01*
X120080500Y-64661744D01*
X120080985Y-64660091D01*
X120080544Y-64658424D01*
X120090795Y-64626681D01*
X120100185Y-64594705D01*
X120101656Y-64593051D01*
X120102017Y-64591936D01*
X120109700Y-64584015D01*
X120125835Y-64565891D01*
X120128663Y-64563569D01*
X120227219Y-64491966D01*
X120371966Y-64347219D01*
X120371968Y-64347215D01*
X120371971Y-64347213D01*
X120424732Y-64274590D01*
X120492287Y-64181610D01*
X120585220Y-63999219D01*
X120648477Y-63804534D01*
X120680500Y-63602352D01*
X120680500Y-63397682D01*
X125700000Y-63397682D01*
X125700000Y-63602317D01*
X125732009Y-63804417D01*
X125795244Y-63999031D01*
X125888141Y-64181350D01*
X125888147Y-64181359D01*
X125920523Y-64225921D01*
X125920524Y-64225922D01*
X126600000Y-63546446D01*
X126600000Y-63552661D01*
X126627259Y-63654394D01*
X126679920Y-63745606D01*
X126754394Y-63820080D01*
X126845606Y-63872741D01*
X126947339Y-63900000D01*
X126953553Y-63900000D01*
X126274076Y-64579474D01*
X126318650Y-64611859D01*
X126500968Y-64704755D01*
X126695582Y-64767990D01*
X126897683Y-64800000D01*
X127102317Y-64800000D01*
X127304417Y-64767990D01*
X127499031Y-64704755D01*
X127681349Y-64611859D01*
X127725921Y-64579474D01*
X127046447Y-63900000D01*
X127052661Y-63900000D01*
X127154394Y-63872741D01*
X127245606Y-63820080D01*
X127320080Y-63745606D01*
X127372741Y-63654394D01*
X127400000Y-63552661D01*
X127400000Y-63546447D01*
X128079474Y-64225921D01*
X128111859Y-64181349D01*
X128204755Y-63999031D01*
X128267990Y-63804417D01*
X128300000Y-63602317D01*
X128300000Y-63397682D01*
X128267990Y-63195582D01*
X128204755Y-63000968D01*
X128111859Y-62818650D01*
X128079474Y-62774077D01*
X128079474Y-62774076D01*
X127400000Y-63453551D01*
X127400000Y-63447339D01*
X127372741Y-63345606D01*
X127320080Y-63254394D01*
X127245606Y-63179920D01*
X127154394Y-63127259D01*
X127052661Y-63100000D01*
X127046446Y-63100000D01*
X127725922Y-62420524D01*
X127725921Y-62420523D01*
X127681359Y-62388147D01*
X127681350Y-62388141D01*
X127499031Y-62295244D01*
X127304417Y-62232009D01*
X127102317Y-62200000D01*
X126897683Y-62200000D01*
X126695582Y-62232009D01*
X126500968Y-62295244D01*
X126318644Y-62388143D01*
X126274077Y-62420523D01*
X126274077Y-62420524D01*
X126953554Y-63100000D01*
X126947339Y-63100000D01*
X126845606Y-63127259D01*
X126754394Y-63179920D01*
X126679920Y-63254394D01*
X126627259Y-63345606D01*
X126600000Y-63447339D01*
X126600000Y-63453553D01*
X125920524Y-62774077D01*
X125920523Y-62774077D01*
X125888143Y-62818644D01*
X125795244Y-63000968D01*
X125732009Y-63195582D01*
X125700000Y-63397682D01*
X120680500Y-63397682D01*
X120680500Y-63397648D01*
X120672257Y-63345606D01*
X120648477Y-63195465D01*
X120617458Y-63100000D01*
X120585220Y-63000781D01*
X120585218Y-63000778D01*
X120585218Y-63000776D01*
X120492419Y-62818650D01*
X120492287Y-62818390D01*
X120460092Y-62774077D01*
X120371971Y-62652786D01*
X120227213Y-62508028D01*
X120061613Y-62387715D01*
X120061612Y-62387714D01*
X120061610Y-62387713D01*
X120004653Y-62358691D01*
X119879223Y-62294781D01*
X119684534Y-62231522D01*
X119509995Y-62203878D01*
X119482352Y-62199500D01*
X119277648Y-62199500D01*
X119253329Y-62203351D01*
X119075465Y-62231522D01*
X118880776Y-62294781D01*
X118698386Y-62387715D01*
X118532786Y-62508028D01*
X118388028Y-62652786D01*
X118267715Y-62818386D01*
X118174781Y-63000776D01*
X118111522Y-63195465D01*
X118079500Y-63397648D01*
X118079500Y-63602351D01*
X118111522Y-63804534D01*
X118174781Y-63999223D01*
X118238691Y-64124653D01*
X118267585Y-64181359D01*
X118267715Y-64181613D01*
X118388028Y-64347213D01*
X118532784Y-64491969D01*
X118628385Y-64561426D01*
X118671051Y-64616755D01*
X118679500Y-64661744D01*
X118679500Y-68338255D01*
X118659815Y-68405294D01*
X118628385Y-68438573D01*
X118532787Y-68508028D01*
X118532782Y-68508032D01*
X118388028Y-68652786D01*
X118267715Y-68818386D01*
X118174781Y-69000776D01*
X118111522Y-69195465D01*
X118079500Y-69397648D01*
X118079500Y-69602351D01*
X118097986Y-69719069D01*
X118089031Y-69788363D01*
X118063194Y-69826148D01*
X111955883Y-75933459D01*
X111950457Y-75941582D01*
X111950456Y-75941584D01*
X111879223Y-76048191D01*
X111826421Y-76175667D01*
X111826418Y-76175677D01*
X111799500Y-76311004D01*
X111799500Y-101574684D01*
X111790061Y-101622136D01*
X111730264Y-101766498D01*
X111730261Y-101766510D01*
X111699500Y-101921153D01*
X97979981Y-101921153D01*
X97980500Y-101918543D01*
X97980500Y-101721456D01*
X97942052Y-101528170D01*
X97942051Y-101528169D01*
X97942051Y-101528165D01*
X97942049Y-101528160D01*
X97866635Y-101346092D01*
X97866628Y-101346079D01*
X97757139Y-101182218D01*
X97757136Y-101182214D01*
X97617785Y-101042863D01*
X97617781Y-101042860D01*
X97453920Y-100933371D01*
X97453907Y-100933364D01*
X97271839Y-100857950D01*
X97271829Y-100857947D01*
X97078543Y-100819500D01*
X97078541Y-100819500D01*
X95881459Y-100819500D01*
X95881457Y-100819500D01*
X95688170Y-100857947D01*
X95688160Y-100857950D01*
X95506092Y-100933364D01*
X95506079Y-100933371D01*
X95342218Y-101042860D01*
X95342214Y-101042863D01*
X95202863Y-101182214D01*
X95202860Y-101182218D01*
X95093371Y-101346079D01*
X95093364Y-101346092D01*
X95017950Y-101528160D01*
X95017947Y-101528170D01*
X94979500Y-101721456D01*
X94979500Y-101721459D01*
X94979500Y-101918541D01*
X94979500Y-101918543D01*
X94979499Y-101918543D01*
X89500500Y-101918543D01*
X89500500Y-99378543D01*
X94979499Y-99378543D01*
X95017947Y-99571829D01*
X95017950Y-99571839D01*
X95093364Y-99753907D01*
X95093371Y-99753920D01*
X95202860Y-99917781D01*
X95202863Y-99917785D01*
X95342214Y-100057136D01*
X95342218Y-100057139D01*
X95506079Y-100166628D01*
X95506092Y-100166635D01*
X95656217Y-100228818D01*
X95688165Y-100242051D01*
X95688169Y-100242051D01*
X95688170Y-100242052D01*
X95881456Y-100280500D01*
X95881459Y-100280500D01*
X97078543Y-100280500D01*
X97208582Y-100254632D01*
X97271835Y-100242051D01*
X97453914Y-100166632D01*
X97617782Y-100057139D01*
X97757139Y-99917782D01*
X97866632Y-99753914D01*
X97942051Y-99571835D01*
X97972023Y-99421158D01*
X97980500Y-99378543D01*
X97980500Y-99181456D01*
X97942052Y-98988170D01*
X97942051Y-98988169D01*
X97942051Y-98988165D01*
X97896507Y-98878210D01*
X97866635Y-98806092D01*
X97866628Y-98806079D01*
X97757139Y-98642218D01*
X97757136Y-98642214D01*
X97617785Y-98502863D01*
X97617781Y-98502860D01*
X97453920Y-98393371D01*
X97453907Y-98393364D01*
X97271839Y-98317950D01*
X97271829Y-98317947D01*
X97078543Y-98279500D01*
X97078541Y-98279500D01*
X95881459Y-98279500D01*
X95881457Y-98279500D01*
X95688170Y-98317947D01*
X95688160Y-98317950D01*
X95506092Y-98393364D01*
X95506079Y-98393371D01*
X95342218Y-98502860D01*
X95342214Y-98502863D01*
X95202863Y-98642214D01*
X95202860Y-98642218D01*
X95093371Y-98806079D01*
X95093364Y-98806092D01*
X95017950Y-98988160D01*
X95017947Y-98988170D01*
X94979500Y-99181456D01*
X94979500Y-99181459D01*
X94979500Y-99378541D01*
X94979500Y-99378543D01*
X94979499Y-99378543D01*
X89500500Y-99378543D01*
X89500500Y-96838543D01*
X94979499Y-96838543D01*
X95017947Y-97031829D01*
X95017950Y-97031839D01*
X95093364Y-97213907D01*
X95093371Y-97213920D01*
X95202860Y-97377781D01*
X95202863Y-97377785D01*
X95342214Y-97517136D01*
X95342218Y-97517139D01*
X95506079Y-97626628D01*
X95506092Y-97626635D01*
X95688160Y-97702049D01*
X95688165Y-97702051D01*
X95688169Y-97702051D01*
X95688170Y-97702052D01*
X95881456Y-97740500D01*
X95881459Y-97740500D01*
X97078543Y-97740500D01*
X97208582Y-97714632D01*
X97271835Y-97702051D01*
X97453914Y-97626632D01*
X97617782Y-97517139D01*
X97757139Y-97377782D01*
X97866632Y-97213914D01*
X97942051Y-97031835D01*
X97980500Y-96838541D01*
X97980500Y-96641459D01*
X97980500Y-96641456D01*
X97942052Y-96448170D01*
X97942051Y-96448169D01*
X97942051Y-96448165D01*
X97942049Y-96448160D01*
X97866635Y-96266092D01*
X97866628Y-96266079D01*
X97757139Y-96102218D01*
X97757136Y-96102214D01*
X97617785Y-95962863D01*
X97617781Y-95962860D01*
X97453920Y-95853371D01*
X97453907Y-95853364D01*
X97271839Y-95777950D01*
X97271829Y-95777947D01*
X97078543Y-95739500D01*
X97078541Y-95739500D01*
X95881459Y-95739500D01*
X95881457Y-95739500D01*
X95688170Y-95777947D01*
X95688160Y-95777950D01*
X95506092Y-95853364D01*
X95506079Y-95853371D01*
X95342218Y-95962860D01*
X95342214Y-95962863D01*
X95202863Y-96102214D01*
X95202860Y-96102218D01*
X95093371Y-96266079D01*
X95093364Y-96266092D01*
X95017950Y-96448160D01*
X95017947Y-96448170D01*
X94979500Y-96641456D01*
X94979500Y-96641459D01*
X94979500Y-96838541D01*
X94979500Y-96838543D01*
X94979499Y-96838543D01*
X89500500Y-96838543D01*
X89500500Y-94298543D01*
X94979499Y-94298543D01*
X95017947Y-94491829D01*
X95017950Y-94491839D01*
X95093364Y-94673907D01*
X95093371Y-94673920D01*
X95202860Y-94837781D01*
X95202863Y-94837785D01*
X95342214Y-94977136D01*
X95342218Y-94977139D01*
X95506079Y-95086628D01*
X95506092Y-95086635D01*
X95688160Y-95162049D01*
X95688165Y-95162051D01*
X95688169Y-95162051D01*
X95688170Y-95162052D01*
X95881456Y-95200500D01*
X95881459Y-95200500D01*
X97078543Y-95200500D01*
X97208582Y-95174632D01*
X97271835Y-95162051D01*
X97453914Y-95086632D01*
X97617782Y-94977139D01*
X97757139Y-94837782D01*
X97866632Y-94673914D01*
X97942051Y-94491835D01*
X97980500Y-94298541D01*
X97980500Y-94101459D01*
X97980500Y-94101456D01*
X97942052Y-93908170D01*
X97942051Y-93908169D01*
X97942051Y-93908165D01*
X97942049Y-93908160D01*
X97866635Y-93726092D01*
X97866628Y-93726079D01*
X97757139Y-93562218D01*
X97757136Y-93562214D01*
X97617785Y-93422863D01*
X97617781Y-93422860D01*
X97453920Y-93313371D01*
X97453907Y-93313364D01*
X97271839Y-93237950D01*
X97271829Y-93237947D01*
X97078543Y-93199500D01*
X97078541Y-93199500D01*
X95881459Y-93199500D01*
X95881457Y-93199500D01*
X95688170Y-93237947D01*
X95688160Y-93237950D01*
X95506092Y-93313364D01*
X95506079Y-93313371D01*
X95342218Y-93422860D01*
X95342214Y-93422863D01*
X95202863Y-93562214D01*
X95202860Y-93562218D01*
X95093371Y-93726079D01*
X95093364Y-93726092D01*
X95017950Y-93908160D01*
X95017947Y-93908170D01*
X94979500Y-94101456D01*
X94979500Y-94101459D01*
X94979500Y-94298541D01*
X94979500Y-94298543D01*
X94979499Y-94298543D01*
X89500500Y-94298543D01*
X89500500Y-91758543D01*
X94979499Y-91758543D01*
X95017947Y-91951829D01*
X95017950Y-91951839D01*
X95093364Y-92133907D01*
X95093371Y-92133920D01*
X95202860Y-92297781D01*
X95202863Y-92297785D01*
X95342214Y-92437136D01*
X95342218Y-92437139D01*
X95506079Y-92546628D01*
X95506092Y-92546635D01*
X95688160Y-92622049D01*
X95688165Y-92622051D01*
X95688169Y-92622051D01*
X95688170Y-92622052D01*
X95881456Y-92660500D01*
X95881459Y-92660500D01*
X97078543Y-92660500D01*
X97208582Y-92634632D01*
X97271835Y-92622051D01*
X97453914Y-92546632D01*
X97617782Y-92437139D01*
X97757139Y-92297782D01*
X97866632Y-92133914D01*
X97942051Y-91951835D01*
X97980500Y-91758541D01*
X97980500Y-91561459D01*
X97980500Y-91561456D01*
X97942052Y-91368170D01*
X97942051Y-91368169D01*
X97942051Y-91368165D01*
X97942049Y-91368160D01*
X97866635Y-91186092D01*
X97866628Y-91186079D01*
X97757139Y-91022218D01*
X97757136Y-91022214D01*
X97617785Y-90882863D01*
X97617781Y-90882860D01*
X97453920Y-90773371D01*
X97453907Y-90773364D01*
X97271839Y-90697950D01*
X97271829Y-90697947D01*
X97078543Y-90659500D01*
X97078541Y-90659500D01*
X95881459Y-90659500D01*
X95881457Y-90659500D01*
X95688170Y-90697947D01*
X95688160Y-90697950D01*
X95506092Y-90773364D01*
X95506079Y-90773371D01*
X95342218Y-90882860D01*
X95342214Y-90882863D01*
X95202863Y-91022214D01*
X95202860Y-91022218D01*
X95093371Y-91186079D01*
X95093364Y-91186092D01*
X95017950Y-91368160D01*
X95017947Y-91368170D01*
X94979500Y-91561456D01*
X94979500Y-91561459D01*
X94979500Y-91758541D01*
X94979500Y-91758543D01*
X94979499Y-91758543D01*
X89500500Y-91758543D01*
X89500500Y-89218543D01*
X94979499Y-89218543D01*
X95017947Y-89411829D01*
X95017950Y-89411839D01*
X95093364Y-89593907D01*
X95093371Y-89593920D01*
X95202860Y-89757781D01*
X95202863Y-89757785D01*
X95342214Y-89897136D01*
X95342218Y-89897139D01*
X95506079Y-90006628D01*
X95506092Y-90006635D01*
X95688160Y-90082049D01*
X95688165Y-90082051D01*
X95688169Y-90082051D01*
X95688170Y-90082052D01*
X95881456Y-90120500D01*
X95881459Y-90120500D01*
X97078543Y-90120500D01*
X97208582Y-90094632D01*
X97271835Y-90082051D01*
X97453914Y-90006632D01*
X97617782Y-89897139D01*
X97757139Y-89757782D01*
X97866632Y-89593914D01*
X97942051Y-89411835D01*
X97980500Y-89218541D01*
X97980500Y-89021459D01*
X97980500Y-89021456D01*
X97942052Y-88828170D01*
X97942051Y-88828169D01*
X97942051Y-88828165D01*
X97942049Y-88828160D01*
X97866635Y-88646092D01*
X97866628Y-88646079D01*
X97757139Y-88482218D01*
X97757136Y-88482214D01*
X97617785Y-88342863D01*
X97617781Y-88342860D01*
X97453920Y-88233371D01*
X97453907Y-88233364D01*
X97271839Y-88157950D01*
X97271829Y-88157947D01*
X97078543Y-88119500D01*
X97078541Y-88119500D01*
X95881459Y-88119500D01*
X95881457Y-88119500D01*
X95688170Y-88157947D01*
X95688160Y-88157950D01*
X95506092Y-88233364D01*
X95506079Y-88233371D01*
X95342218Y-88342860D01*
X95342214Y-88342863D01*
X95202863Y-88482214D01*
X95202860Y-88482218D01*
X95093371Y-88646079D01*
X95093364Y-88646092D01*
X95017950Y-88828160D01*
X95017947Y-88828170D01*
X94979500Y-89021456D01*
X94979500Y-89021459D01*
X94979500Y-89218541D01*
X94979500Y-89218543D01*
X94979499Y-89218543D01*
X89500500Y-89218543D01*
X89500500Y-86678543D01*
X94979499Y-86678543D01*
X95017947Y-86871829D01*
X95017950Y-86871839D01*
X95093364Y-87053907D01*
X95093371Y-87053920D01*
X95202860Y-87217781D01*
X95202863Y-87217785D01*
X95342214Y-87357136D01*
X95342218Y-87357139D01*
X95506079Y-87466628D01*
X95506092Y-87466635D01*
X95688160Y-87542049D01*
X95688165Y-87542051D01*
X95688169Y-87542051D01*
X95688170Y-87542052D01*
X95881456Y-87580500D01*
X95881459Y-87580500D01*
X97078543Y-87580500D01*
X97208582Y-87554632D01*
X97271835Y-87542051D01*
X97453914Y-87466632D01*
X97617782Y-87357139D01*
X97757139Y-87217782D01*
X97866632Y-87053914D01*
X97942051Y-86871835D01*
X97980500Y-86678541D01*
X97980500Y-86481459D01*
X97980500Y-86481456D01*
X97942052Y-86288170D01*
X97942051Y-86288169D01*
X97942051Y-86288165D01*
X97894989Y-86174546D01*
X97866635Y-86106092D01*
X97866628Y-86106079D01*
X97757139Y-85942218D01*
X97757136Y-85942214D01*
X97617785Y-85802863D01*
X97617781Y-85802860D01*
X97453920Y-85693371D01*
X97453907Y-85693364D01*
X97271839Y-85617950D01*
X97271829Y-85617947D01*
X97078543Y-85579500D01*
X97078541Y-85579500D01*
X95881459Y-85579500D01*
X95881457Y-85579500D01*
X95688170Y-85617947D01*
X95688160Y-85617950D01*
X95506092Y-85693364D01*
X95506079Y-85693371D01*
X95342218Y-85802860D01*
X95342214Y-85802863D01*
X95202863Y-85942214D01*
X95202860Y-85942218D01*
X95093371Y-86106079D01*
X95093364Y-86106092D01*
X95017950Y-86288160D01*
X95017947Y-86288170D01*
X94979500Y-86481456D01*
X94979500Y-86481459D01*
X94979500Y-86678541D01*
X94979500Y-86678543D01*
X94979499Y-86678543D01*
X89500500Y-86678543D01*
X89500500Y-84138543D01*
X94979499Y-84138543D01*
X95017947Y-84331829D01*
X95017950Y-84331839D01*
X95093364Y-84513907D01*
X95093371Y-84513920D01*
X95202860Y-84677781D01*
X95202863Y-84677785D01*
X95342214Y-84817136D01*
X95342218Y-84817139D01*
X95506079Y-84926628D01*
X95506092Y-84926635D01*
X95688160Y-85002049D01*
X95688165Y-85002051D01*
X95688169Y-85002051D01*
X95688170Y-85002052D01*
X95881456Y-85040500D01*
X95881459Y-85040500D01*
X97078543Y-85040500D01*
X97208582Y-85014632D01*
X97271835Y-85002051D01*
X97453914Y-84926632D01*
X97617782Y-84817139D01*
X97757139Y-84677782D01*
X97866632Y-84513914D01*
X97942051Y-84331835D01*
X97980500Y-84138541D01*
X97980500Y-83941459D01*
X97980500Y-83941456D01*
X97942052Y-83748170D01*
X97942051Y-83748169D01*
X97942051Y-83748165D01*
X97942049Y-83748160D01*
X97866635Y-83566092D01*
X97866628Y-83566079D01*
X97757139Y-83402218D01*
X97757136Y-83402214D01*
X97617785Y-83262863D01*
X97617781Y-83262860D01*
X97453920Y-83153371D01*
X97453907Y-83153364D01*
X97271839Y-83077950D01*
X97271829Y-83077947D01*
X97078543Y-83039500D01*
X97078541Y-83039500D01*
X95881459Y-83039500D01*
X95881457Y-83039500D01*
X95688170Y-83077947D01*
X95688160Y-83077950D01*
X95506092Y-83153364D01*
X95506079Y-83153371D01*
X95342218Y-83262860D01*
X95342214Y-83262863D01*
X95202863Y-83402214D01*
X95202860Y-83402218D01*
X95093371Y-83566079D01*
X95093364Y-83566092D01*
X95017950Y-83748160D01*
X95017947Y-83748170D01*
X94979500Y-83941456D01*
X94979500Y-83941459D01*
X94979500Y-84138541D01*
X94979500Y-84138543D01*
X94979499Y-84138543D01*
X89500500Y-84138543D01*
X89500500Y-78710000D01*
X94703391Y-78710000D01*
X95746988Y-78710000D01*
X95714075Y-78767007D01*
X95680000Y-78894174D01*
X95680000Y-79025826D01*
X95714075Y-79152993D01*
X95746988Y-79210000D01*
X94703391Y-79210000D01*
X94712009Y-79264413D01*
X94775244Y-79459029D01*
X94868140Y-79641349D01*
X94988417Y-79806894D01*
X94988417Y-79806895D01*
X95133104Y-79951582D01*
X95298650Y-80071859D01*
X95480968Y-80164755D01*
X95675582Y-80227990D01*
X95864268Y-80257875D01*
X95927403Y-80287804D01*
X95964334Y-80347116D01*
X95963336Y-80416978D01*
X95924726Y-80475211D01*
X95869062Y-80501965D01*
X95688170Y-80537947D01*
X95688160Y-80537950D01*
X95506092Y-80613364D01*
X95506079Y-80613371D01*
X95342218Y-80722860D01*
X95342214Y-80722863D01*
X95202863Y-80862214D01*
X95202860Y-80862218D01*
X95093371Y-81026079D01*
X95093364Y-81026092D01*
X95017950Y-81208160D01*
X95017947Y-81208170D01*
X94979500Y-81401456D01*
X94979500Y-81401459D01*
X94979500Y-81598541D01*
X94979500Y-81598543D01*
X94979499Y-81598543D01*
X95017947Y-81791829D01*
X95017950Y-81791839D01*
X95093364Y-81973907D01*
X95093371Y-81973920D01*
X95202860Y-82137781D01*
X95202863Y-82137785D01*
X95342214Y-82277136D01*
X95342218Y-82277139D01*
X95506079Y-82386628D01*
X95506092Y-82386635D01*
X95688160Y-82462049D01*
X95688165Y-82462051D01*
X95688169Y-82462051D01*
X95688170Y-82462052D01*
X95881456Y-82500500D01*
X95881459Y-82500500D01*
X97078543Y-82500500D01*
X97208582Y-82474632D01*
X97271835Y-82462051D01*
X97453914Y-82386632D01*
X97617782Y-82277139D01*
X97757139Y-82137782D01*
X97866632Y-81973914D01*
X97942051Y-81791835D01*
X97954632Y-81728582D01*
X97980500Y-81598543D01*
X97980500Y-81401456D01*
X97942052Y-81208170D01*
X97942051Y-81208169D01*
X97942051Y-81208165D01*
X97941794Y-81207544D01*
X97866635Y-81026092D01*
X97866628Y-81026079D01*
X97757139Y-80862218D01*
X97757136Y-80862214D01*
X97617785Y-80722863D01*
X97617781Y-80722860D01*
X97453920Y-80613371D01*
X97453907Y-80613364D01*
X97271839Y-80537950D01*
X97271829Y-80537947D01*
X97090937Y-80501965D01*
X97029026Y-80469580D01*
X96994452Y-80408864D01*
X96998192Y-80339095D01*
X97039059Y-80282423D01*
X97095731Y-80257875D01*
X97284417Y-80227990D01*
X97479031Y-80164755D01*
X97661349Y-80071859D01*
X97826894Y-79951582D01*
X97826895Y-79951582D01*
X97971582Y-79806895D01*
X97971582Y-79806894D01*
X98091859Y-79641349D01*
X98184755Y-79459029D01*
X98247990Y-79264413D01*
X98256609Y-79210000D01*
X96613012Y-79210000D01*
X96645925Y-79152993D01*
X96680000Y-79025826D01*
X96680000Y-78894174D01*
X96645925Y-78767007D01*
X96613012Y-78710000D01*
X98256609Y-78710000D01*
X98247990Y-78655586D01*
X98184755Y-78460970D01*
X98091859Y-78278650D01*
X97971582Y-78113105D01*
X97971582Y-78113104D01*
X97826895Y-77968417D01*
X97661349Y-77848140D01*
X97479031Y-77755244D01*
X97284417Y-77692009D01*
X97095731Y-77662124D01*
X97032596Y-77632194D01*
X96995665Y-77572883D01*
X96996663Y-77503020D01*
X97035273Y-77444788D01*
X97090938Y-77418034D01*
X97271835Y-77382051D01*
X97453914Y-77306632D01*
X97617782Y-77197139D01*
X97757139Y-77057782D01*
X97866632Y-76893914D01*
X97942051Y-76711835D01*
X97980500Y-76518541D01*
X97980500Y-76321459D01*
X97980500Y-76321456D01*
X97942052Y-76128170D01*
X97942051Y-76128169D01*
X97942051Y-76128165D01*
X97908924Y-76048189D01*
X97866635Y-75946092D01*
X97866628Y-75946079D01*
X97757139Y-75782218D01*
X97757136Y-75782214D01*
X97617785Y-75642863D01*
X97617781Y-75642860D01*
X97453920Y-75533371D01*
X97453907Y-75533364D01*
X97271839Y-75457950D01*
X97271829Y-75457947D01*
X97078543Y-75419500D01*
X97078541Y-75419500D01*
X95881459Y-75419500D01*
X95881457Y-75419500D01*
X95688170Y-75457947D01*
X95688160Y-75457950D01*
X95506092Y-75533364D01*
X95506079Y-75533371D01*
X95342218Y-75642860D01*
X95342214Y-75642863D01*
X95202863Y-75782214D01*
X95202860Y-75782218D01*
X95093371Y-75946079D01*
X95093364Y-75946092D01*
X95017950Y-76128160D01*
X95017947Y-76128170D01*
X94979500Y-76321456D01*
X94979500Y-76321459D01*
X94979500Y-76518541D01*
X94979500Y-76518543D01*
X94979499Y-76518543D01*
X95017947Y-76711829D01*
X95017950Y-76711839D01*
X95093364Y-76893907D01*
X95093371Y-76893920D01*
X95202860Y-77057781D01*
X95202863Y-77057785D01*
X95342214Y-77197136D01*
X95342218Y-77197139D01*
X95506079Y-77306628D01*
X95506092Y-77306635D01*
X95688160Y-77382049D01*
X95688165Y-77382051D01*
X95820674Y-77408409D01*
X95869061Y-77418034D01*
X95930972Y-77450419D01*
X95965546Y-77511134D01*
X95961807Y-77580904D01*
X95920940Y-77637576D01*
X95864269Y-77662124D01*
X95675581Y-77692010D01*
X95480968Y-77755244D01*
X95298650Y-77848140D01*
X95133105Y-77968417D01*
X95133104Y-77968417D01*
X94988417Y-78113104D01*
X94988417Y-78113105D01*
X94868140Y-78278650D01*
X94775244Y-78460970D01*
X94712009Y-78655586D01*
X94703391Y-78710000D01*
X89500500Y-78710000D01*
X89500500Y-73978543D01*
X94979499Y-73978543D01*
X95017947Y-74171829D01*
X95017950Y-74171839D01*
X95093364Y-74353907D01*
X95093371Y-74353920D01*
X95202860Y-74517781D01*
X95202863Y-74517785D01*
X95342214Y-74657136D01*
X95342218Y-74657139D01*
X95506079Y-74766628D01*
X95506092Y-74766635D01*
X95651881Y-74827022D01*
X95688165Y-74842051D01*
X95688169Y-74842051D01*
X95688170Y-74842052D01*
X95881456Y-74880500D01*
X95881459Y-74880500D01*
X97078543Y-74880500D01*
X97217379Y-74852883D01*
X97241571Y-74850500D01*
X109583768Y-74850500D01*
X109583769Y-74850499D01*
X109748082Y-74817816D01*
X109902863Y-74753703D01*
X110042162Y-74660626D01*
X110160626Y-74542162D01*
X110253703Y-74402863D01*
X110317816Y-74248082D01*
X110350500Y-74083767D01*
X110350500Y-73916233D01*
X110317816Y-73751918D01*
X110262178Y-73617597D01*
X110253704Y-73597139D01*
X110247704Y-73588160D01*
X110188798Y-73500000D01*
X110160626Y-73457837D01*
X110042162Y-73339373D01*
X109902860Y-73246295D01*
X109748082Y-73182184D01*
X109748074Y-73182182D01*
X109583771Y-73149500D01*
X109583767Y-73149500D01*
X97715784Y-73149500D01*
X97648745Y-73129815D01*
X97628103Y-73113181D01*
X97617785Y-73102863D01*
X97617781Y-73102860D01*
X97453920Y-72993371D01*
X97453907Y-72993364D01*
X97271839Y-72917950D01*
X97271829Y-72917947D01*
X97078543Y-72879500D01*
X97078541Y-72879500D01*
X95881459Y-72879500D01*
X95881457Y-72879500D01*
X95688170Y-72917947D01*
X95688160Y-72917950D01*
X95506092Y-72993364D01*
X95506079Y-72993371D01*
X95342218Y-73102860D01*
X95342214Y-73102863D01*
X95202863Y-73242214D01*
X95202860Y-73242218D01*
X95093371Y-73406079D01*
X95093364Y-73406092D01*
X95017950Y-73588160D01*
X95017947Y-73588170D01*
X94979500Y-73781456D01*
X94979500Y-73781459D01*
X94979500Y-73978541D01*
X94979500Y-73978543D01*
X94979499Y-73978543D01*
X89500500Y-73978543D01*
X89500500Y-70735730D01*
X94979500Y-70735730D01*
X94979500Y-71944269D01*
X94982353Y-71974699D01*
X94982353Y-71974701D01*
X95026522Y-72100925D01*
X95027207Y-72102882D01*
X95107850Y-72212150D01*
X95217118Y-72292793D01*
X95259845Y-72307744D01*
X95345299Y-72337646D01*
X95375730Y-72340500D01*
X95375734Y-72340500D01*
X97584270Y-72340500D01*
X97614699Y-72337646D01*
X97614701Y-72337646D01*
X97678790Y-72315219D01*
X97742882Y-72292793D01*
X97852150Y-72212150D01*
X97932793Y-72102882D01*
X97955219Y-72038790D01*
X97977646Y-71974701D01*
X97977646Y-71974699D01*
X97980500Y-71944269D01*
X97980500Y-70735730D01*
X97977646Y-70705300D01*
X97977646Y-70705298D01*
X97932793Y-70577119D01*
X97932792Y-70577117D01*
X97852150Y-70467850D01*
X97742882Y-70387207D01*
X97742880Y-70387206D01*
X97614700Y-70342353D01*
X97584270Y-70339500D01*
X97584266Y-70339500D01*
X95375734Y-70339500D01*
X95375730Y-70339500D01*
X95345300Y-70342353D01*
X95345298Y-70342353D01*
X95217119Y-70387206D01*
X95217117Y-70387207D01*
X95107850Y-70467850D01*
X95027207Y-70577117D01*
X95027206Y-70577119D01*
X94982353Y-70705298D01*
X94982353Y-70705300D01*
X94979500Y-70735730D01*
X89500500Y-70735730D01*
X89500500Y-57958053D01*
X154184725Y-57958053D01*
X170211733Y-57958053D01*
X170211733Y-51381902D01*
X170999500Y-51381902D01*
X170999500Y-51618097D01*
X171036446Y-51851368D01*
X171109433Y-52075996D01*
X171216657Y-52286433D01*
X171355483Y-52477510D01*
X171522490Y-52644517D01*
X171713567Y-52783343D01*
X171812991Y-52834002D01*
X171924003Y-52890566D01*
X171924005Y-52890566D01*
X171924008Y-52890568D01*
X172044412Y-52929689D01*
X172148631Y-52963553D01*
X172381903Y-53000500D01*
X172381908Y-53000500D01*
X172618097Y-53000500D01*
X172851368Y-52963553D01*
X173075992Y-52890568D01*
X173286433Y-52783343D01*
X173477510Y-52644517D01*
X173644517Y-52477510D01*
X173783343Y-52286433D01*
X173890568Y-52075992D01*
X173963553Y-51851368D01*
X174000500Y-51618097D01*
X174000500Y-51381902D01*
X173963553Y-51148631D01*
X173890566Y-50924003D01*
X173783342Y-50713566D01*
X173644517Y-50522490D01*
X173477510Y-50355483D01*
X173286433Y-50216657D01*
X173075996Y-50109433D01*
X172851368Y-50036446D01*
X172618097Y-49999500D01*
X172618092Y-49999500D01*
X172381908Y-49999500D01*
X172381903Y-49999500D01*
X172148631Y-50036446D01*
X171924003Y-50109433D01*
X171713566Y-50216657D01*
X171604550Y-50295862D01*
X171522490Y-50355483D01*
X171522488Y-50355485D01*
X171522487Y-50355485D01*
X171355485Y-50522487D01*
X171355485Y-50522488D01*
X171355483Y-50522490D01*
X171295862Y-50604550D01*
X171216657Y-50713566D01*
X171109433Y-50924003D01*
X171036446Y-51148631D01*
X170999500Y-51381902D01*
X170211733Y-51381902D01*
X170211733Y-50312652D01*
X154184725Y-50312652D01*
X154184725Y-57958053D01*
X89500500Y-57958053D01*
X89500500Y-51381902D01*
X90999500Y-51381902D01*
X90999500Y-51618097D01*
X91036446Y-51851368D01*
X91109433Y-52075996D01*
X91216657Y-52286433D01*
X91355483Y-52477510D01*
X91522490Y-52644517D01*
X91713567Y-52783343D01*
X91812991Y-52834002D01*
X91924003Y-52890566D01*
X91924005Y-52890566D01*
X91924008Y-52890568D01*
X92044412Y-52929689D01*
X92148631Y-52963553D01*
X92381903Y-53000500D01*
X92381908Y-53000500D01*
X92618097Y-53000500D01*
X92851368Y-52963553D01*
X93075992Y-52890568D01*
X93286433Y-52783343D01*
X93477510Y-52644517D01*
X93644517Y-52477510D01*
X93783343Y-52286433D01*
X93890568Y-52075992D01*
X93963553Y-51851368D01*
X94000500Y-51618097D01*
X94000500Y-51381902D01*
X93963553Y-51148631D01*
X93890566Y-50924003D01*
X93783342Y-50713566D01*
X93644517Y-50522490D01*
X93477510Y-50355483D01*
X93286433Y-50216657D01*
X93075996Y-50109433D01*
X92851368Y-50036446D01*
X92618097Y-49999500D01*
X92618092Y-49999500D01*
X92381908Y-49999500D01*
X92381903Y-49999500D01*
X92148631Y-50036446D01*
X91924003Y-50109433D01*
X91713566Y-50216657D01*
X91604550Y-50295862D01*
X91522490Y-50355483D01*
X91522488Y-50355485D01*
X91522487Y-50355485D01*
X91355485Y-50522487D01*
X91355485Y-50522488D01*
X91355483Y-50522490D01*
X91295862Y-50604550D01*
X91216657Y-50713566D01*
X91109433Y-50924003D01*
X91036446Y-51148631D01*
X90999500Y-51381902D01*
X89500500Y-51381902D01*
X89500500Y-48654124D01*
X89520185Y-48587085D01*
X89572989Y-48541330D01*
X89624500Y-48530124D01*
X175345876Y-48530124D01*
X175412915Y-48549809D01*
G37*
%TD.AperFunction*%
%TD*%
M02*
