%TF.GenerationSoftware,KiCad,Pcbnew,9.0.6*%
%TF.CreationDate,2025-11-20T03:37:51-08:00*%
%TF.ProjectId,Distance sensor PSC,44697374-616e-4636-9520-73656e736f72,2.0*%
%TF.SameCoordinates,Original*%
%TF.FileFunction,Copper,L2,Bot*%
%TF.FilePolarity,Positive*%
%FSLAX46Y46*%
G04 Gerber Fmt 4.6, Leading zero omitted, Abs format (unit mm)*
G04 Created by KiCad (PCBNEW 9.0.6) date 2025-11-20 03:37:51*
%MOMM*%
%LPD*%
G01*
G04 APERTURE LIST*
G04 Aperture macros list*
%AMRoundRect*
0 Rectangle with rounded corners*
0 $1 Rounding radius*
0 $2 $3 $4 $5 $6 $7 $8 $9 X,Y pos of 4 corners*
0 Add a 4 corners polygon primitive as box body*
4,1,4,$2,$3,$4,$5,$6,$7,$8,$9,$2,$3,0*
0 Add four circle primitives for the rounded corners*
1,1,$1+$1,$2,$3*
1,1,$1+$1,$4,$5*
1,1,$1+$1,$6,$7*
1,1,$1+$1,$8,$9*
0 Add four rect primitives between the rounded corners*
20,1,$1+$1,$2,$3,$4,$5,0*
20,1,$1+$1,$4,$5,$6,$7,0*
20,1,$1+$1,$6,$7,$8,$9,0*
20,1,$1+$1,$8,$9,$2,$3,0*%
G04 Aperture macros list end*
%TA.AperFunction,ComponentPad*%
%ADD10C,1.600000*%
%TD*%
%TA.AperFunction,ComponentPad*%
%ADD11RoundRect,0.250000X-1.050000X-0.550000X1.050000X-0.550000X1.050000X0.550000X-1.050000X0.550000X0*%
%TD*%
%TA.AperFunction,ComponentPad*%
%ADD12O,2.600000X1.600000*%
%TD*%
%TA.AperFunction,ComponentPad*%
%ADD13R,1.800000X1.800000*%
%TD*%
%TA.AperFunction,ComponentPad*%
%ADD14C,1.800000*%
%TD*%
%TA.AperFunction,ComponentPad*%
%ADD15R,1.700000X1.700000*%
%TD*%
%TA.AperFunction,ComponentPad*%
%ADD16C,1.700000*%
%TD*%
%TA.AperFunction,ViaPad*%
%ADD17C,0.600000*%
%TD*%
%TA.AperFunction,Conductor*%
%ADD18C,0.400000*%
%TD*%
%TA.AperFunction,Conductor*%
%ADD19C,0.700000*%
%TD*%
G04 APERTURE END LIST*
D10*
%TO.P,R4,1*%
%TO.N,Net-(U1-ECHO)*%
X127000000Y-69500000D03*
%TO.P,R4,2*%
%TO.N,Net-(A1-A7{slash}IO32)*%
X119380000Y-69500000D03*
%TD*%
%TO.P,R5,1*%
%TO.N,Net-(A1-A7{slash}IO32)*%
X119380000Y-63500000D03*
%TO.P,R5,2*%
%TO.N,GND*%
X127000000Y-63500000D03*
%TD*%
%TO.P,R2,1*%
%TO.N,Net-(A1-A9{slash}IO33)*%
X128940000Y-120250000D03*
%TO.P,R2,2*%
%TO.N,Net-(D3-A)*%
X136560000Y-120250000D03*
%TD*%
D11*
%TO.P,A1,1,~{RESET}*%
%TO.N,unconnected-(A1-~{RESET}-Pad1)*%
X96480000Y-71340000D03*
D12*
%TO.P,A1,2,3V3*%
%TO.N,+3.3V*%
X96480000Y-73880000D03*
%TO.P,A1,3,NC*%
%TO.N,unconnected-(A1-NC-Pad3)*%
X96480000Y-76420000D03*
%TO.P,A1,4,GND*%
%TO.N,GND*%
X96480000Y-78960000D03*
%TO.P,A1,5,DAC2/A0*%
%TO.N,unconnected-(A1-DAC2{slash}A0-Pad5)*%
X96480000Y-81500000D03*
%TO.P,A1,6,DAC1/A1*%
%TO.N,unconnected-(A1-DAC1{slash}A1-Pad6)*%
X96480000Y-84040000D03*
%TO.P,A1,7,I34/A2*%
%TO.N,unconnected-(A1-I34{slash}A2-Pad7)*%
X96480000Y-86580000D03*
%TO.P,A1,8,I39/A3*%
%TO.N,unconnected-(A1-I39{slash}A3-Pad8)*%
X96480000Y-89120000D03*
%TO.P,A1,9,IO36/A4*%
%TO.N,unconnected-(A1-IO36{slash}A4-Pad9)*%
X96480000Y-91660000D03*
%TO.P,A1,10,IO4/A5*%
%TO.N,unconnected-(A1-IO4{slash}A5-Pad10)*%
X96480000Y-94200000D03*
%TO.P,A1,11,SCK/IO5*%
%TO.N,unconnected-(A1-SCK{slash}IO5-Pad11)*%
X96480000Y-96740000D03*
%TO.P,A1,12,MOSI/IO18*%
%TO.N,unconnected-(A1-MOSI{slash}IO18-Pad12)*%
X96480000Y-99280000D03*
%TO.P,A1,13,MISO/IO19*%
%TO.N,unconnected-(A1-MISO{slash}IO19-Pad13)*%
X96480000Y-101820000D03*
%TO.P,A1,14,RX/IO16*%
%TO.N,unconnected-(A1-RX{slash}IO16-Pad14)*%
X96480000Y-104360000D03*
%TO.P,A1,15,TX/IO17*%
%TO.N,unconnected-(A1-TX{slash}IO17-Pad15)*%
X96480000Y-106900000D03*
%TO.P,A1,16,IO21*%
%TO.N,unconnected-(A1-IO21-Pad16)*%
X96480000Y-109440000D03*
%TO.P,A1,17,SDA/IO23*%
%TO.N,Net-(A1-SDA{slash}IO23)*%
X116200000Y-109440000D03*
%TO.P,A1,18,SCL/IO22*%
%TO.N,Net-(A1-SCL{slash}IO22)*%
X116200000Y-106900000D03*
%TO.P,A1,19,A6/IO14*%
%TO.N,Net-(A1-A6{slash}IO14)*%
X116200000Y-104360000D03*
%TO.P,A1,20,A7/IO32*%
%TO.N,Net-(A1-A7{slash}IO32)*%
X116200000Y-101820000D03*
%TO.P,A1,21,A8/IO15*%
%TO.N,Net-(A1-A8{slash}IO15)*%
X116200000Y-99280000D03*
%TO.P,A1,22,A9/IO33*%
%TO.N,Net-(A1-A9{slash}IO33)*%
X116200000Y-96740000D03*
%TO.P,A1,23,A10/IO27*%
%TO.N,Net-(A1-A10{slash}IO27)*%
X116200000Y-94200000D03*
%TO.P,A1,24,A11/IO12*%
%TO.N,unconnected-(A1-A11{slash}IO12-Pad24)*%
X116200000Y-91660000D03*
%TO.P,A1,25,A12/IO13*%
%TO.N,unconnected-(A1-A12{slash}IO13-Pad25)*%
X116200000Y-89120000D03*
%TO.P,A1,26,USB*%
%TO.N,+5V*%
X116200000Y-86580000D03*
%TO.P,A1,27,EN*%
%TO.N,unconnected-(A1-EN-Pad27)*%
X116200000Y-84040000D03*
%TO.P,A1,28,VBAT*%
%TO.N,unconnected-(A1-VBAT-Pad28)*%
X116200000Y-81500000D03*
%TD*%
D10*
%TO.P,R1,1*%
%TO.N,Net-(A1-A8{slash}IO15)*%
X128880000Y-129250000D03*
%TO.P,R1,2*%
%TO.N,Net-(D1-A)*%
X136500000Y-129250000D03*
%TD*%
%TO.P,R3,1*%
%TO.N,Net-(A1-A10{slash}IO27)*%
X128940000Y-124750000D03*
%TO.P,R3,2*%
%TO.N,Net-(D2-A)*%
X136560000Y-124750000D03*
%TD*%
D13*
%TO.P,D3,1,K*%
%TO.N,GND*%
X137500000Y-110000000D03*
D14*
%TO.P,D3,2,A*%
%TO.N,Net-(D3-A)*%
X134960000Y-110000000D03*
%TD*%
D15*
%TO.P,U1,1,VCC*%
%TO.N,+5V*%
X148040000Y-73500000D03*
D16*
%TO.P,U1,2,TRIG*%
%TO.N,Net-(A1-A6{slash}IO14)*%
X145500000Y-73500000D03*
%TO.P,U1,3,ECHO*%
%TO.N,Net-(U1-ECHO)*%
X142960000Y-73500000D03*
%TO.P,U1,4,GND*%
%TO.N,GND*%
X140420000Y-73500000D03*
%TD*%
D15*
%TO.P,U2,1,Vin*%
%TO.N,+3.3V*%
X152912000Y-80000000D03*
D16*
%TO.P,U2,2,3vo*%
%TO.N,unconnected-(U2-3vo-Pad2)*%
X150372000Y-80000000D03*
%TO.P,U2,3,GND*%
%TO.N,GND*%
X147832000Y-80000000D03*
%TO.P,U2,4,Reset*%
%TO.N,unconnected-(U2-Reset-Pad4)*%
X145292000Y-80000000D03*
%TO.P,U2,5,SCL*%
%TO.N,Net-(A1-SCL{slash}IO22)*%
X142752000Y-80000000D03*
%TO.P,U2,6,SDA*%
%TO.N,Net-(A1-SDA{slash}IO23)*%
X140212000Y-80000000D03*
%TO.P,U2,7*%
%TO.N,N/C*%
X137672000Y-80000000D03*
%TO.P,U2,8*%
X135132000Y-80000000D03*
%TD*%
D13*
%TO.P,D1,1,K*%
%TO.N,GND*%
X153000000Y-110000000D03*
D14*
%TO.P,D1,2,A*%
%TO.N,Net-(D1-A)*%
X150460000Y-110000000D03*
%TD*%
D13*
%TO.P,D2,1,K*%
%TO.N,GND*%
X145250000Y-110000000D03*
D14*
%TO.P,D2,2,A*%
%TO.N,Net-(D2-A)*%
X142710000Y-110000000D03*
%TD*%
D17*
%TO.N,Net-(A1-A8{slash}IO15)*%
X119500000Y-99500000D03*
%TO.N,Net-(A1-A7{slash}IO32)*%
X112500000Y-102000000D03*
%TO.N,+3.3V*%
X109500000Y-74000000D03*
X126500000Y-78000000D03*
%TO.N,GND*%
X140000000Y-115000000D03*
X132000000Y-59000000D03*
X114500000Y-61000000D03*
X156000000Y-116000000D03*
X137500000Y-70500000D03*
X151500000Y-75500000D03*
X147000000Y-115500000D03*
X158500000Y-66500000D03*
X92500000Y-79000000D03*
%TO.N,+5V*%
X145000000Y-72500000D03*
X128932900Y-72500000D03*
%TD*%
D18*
%TO.N,Net-(A1-A8{slash}IO15)*%
X119500000Y-99500000D02*
X119500000Y-126500000D01*
X122250000Y-129250000D02*
X128880000Y-129250000D01*
X119500000Y-126500000D02*
X122250000Y-129250000D01*
%TO.N,Net-(A1-A7{slash}IO32)*%
X112500000Y-102000000D02*
X116320000Y-102000000D01*
X116320000Y-102000000D02*
X116500000Y-101820000D01*
D19*
%TO.N,+3.3V*%
X126500000Y-78000000D02*
X113500000Y-78000000D01*
X113500000Y-78000000D02*
X109500000Y-74000000D01*
%TO.N,+5V*%
X145000000Y-72500000D02*
X128932900Y-72500000D01*
%TD*%
%TA.AperFunction,Conductor*%
%TO.N,GND*%
G36*
X175412915Y-48549809D02*
G01*
X175458670Y-48602613D01*
X175469876Y-48654124D01*
X175469876Y-131875500D01*
X175450191Y-131942539D01*
X175397387Y-131988294D01*
X175345876Y-131999500D01*
X89624500Y-131999500D01*
X89557461Y-131979815D01*
X89511706Y-131927011D01*
X89500500Y-131875500D01*
X89500500Y-128881902D01*
X90999500Y-128881902D01*
X90999500Y-129118097D01*
X91036446Y-129351368D01*
X91109433Y-129575996D01*
X91216657Y-129786433D01*
X91355483Y-129977510D01*
X91522490Y-130144517D01*
X91713567Y-130283343D01*
X91812991Y-130334002D01*
X91924003Y-130390566D01*
X91924005Y-130390566D01*
X91924008Y-130390568D01*
X92044412Y-130429689D01*
X92148631Y-130463553D01*
X92381903Y-130500500D01*
X92381908Y-130500500D01*
X92618097Y-130500500D01*
X92851368Y-130463553D01*
X92877020Y-130455218D01*
X93075992Y-130390568D01*
X93286433Y-130283343D01*
X93477510Y-130144517D01*
X93644517Y-129977510D01*
X93783343Y-129786433D01*
X93890568Y-129575992D01*
X93963553Y-129351368D01*
X94000500Y-129118097D01*
X94000500Y-128881902D01*
X93963553Y-128648631D01*
X93890566Y-128424003D01*
X93783342Y-128213566D01*
X93644517Y-128022490D01*
X93477510Y-127855483D01*
X93286433Y-127716657D01*
X93075996Y-127609433D01*
X92851368Y-127536446D01*
X92618097Y-127499500D01*
X92618092Y-127499500D01*
X92381908Y-127499500D01*
X92381903Y-127499500D01*
X92148631Y-127536446D01*
X91924003Y-127609433D01*
X91713566Y-127716657D01*
X91604550Y-127795862D01*
X91522490Y-127855483D01*
X91522488Y-127855485D01*
X91522487Y-127855485D01*
X91355485Y-128022487D01*
X91355485Y-128022488D01*
X91355483Y-128022490D01*
X91339288Y-128044781D01*
X91216657Y-128213566D01*
X91109433Y-128424003D01*
X91036446Y-128648631D01*
X90999500Y-128881902D01*
X89500500Y-128881902D01*
X89500500Y-109538543D01*
X94979499Y-109538543D01*
X95017947Y-109731829D01*
X95017950Y-109731839D01*
X95093364Y-109913907D01*
X95093371Y-109913920D01*
X95202860Y-110077781D01*
X95202863Y-110077785D01*
X95342214Y-110217136D01*
X95342218Y-110217139D01*
X95506079Y-110326628D01*
X95506092Y-110326635D01*
X95586861Y-110360090D01*
X95688165Y-110402051D01*
X95688169Y-110402051D01*
X95688170Y-110402052D01*
X95881456Y-110440500D01*
X95881459Y-110440500D01*
X97078543Y-110440500D01*
X97208582Y-110414632D01*
X97271835Y-110402051D01*
X97453914Y-110326632D01*
X97617782Y-110217139D01*
X97757139Y-110077782D01*
X97866632Y-109913914D01*
X97942051Y-109731835D01*
X97980500Y-109538543D01*
X114699499Y-109538543D01*
X114737947Y-109731829D01*
X114737950Y-109731839D01*
X114813364Y-109913907D01*
X114813371Y-109913920D01*
X114922860Y-110077781D01*
X114922863Y-110077785D01*
X115062214Y-110217136D01*
X115062218Y-110217139D01*
X115226079Y-110326628D01*
X115226092Y-110326635D01*
X115306861Y-110360090D01*
X115408165Y-110402051D01*
X115408169Y-110402051D01*
X115408170Y-110402052D01*
X115601456Y-110440500D01*
X115601459Y-110440500D01*
X116798543Y-110440500D01*
X116928582Y-110414632D01*
X116991835Y-110402051D01*
X117173914Y-110326632D01*
X117337782Y-110217139D01*
X117477139Y-110077782D01*
X117586632Y-109913914D01*
X117662051Y-109731835D01*
X117700500Y-109538541D01*
X117700500Y-109341459D01*
X117700500Y-109341456D01*
X117662052Y-109148170D01*
X117662051Y-109148169D01*
X117662051Y-109148165D01*
X117662049Y-109148160D01*
X117586635Y-108966092D01*
X117586628Y-108966079D01*
X117477139Y-108802218D01*
X117477136Y-108802214D01*
X117337785Y-108662863D01*
X117337781Y-108662860D01*
X117173920Y-108553371D01*
X117173907Y-108553364D01*
X116991839Y-108477950D01*
X116991829Y-108477947D01*
X116798543Y-108439500D01*
X116798541Y-108439500D01*
X115601459Y-108439500D01*
X115601457Y-108439500D01*
X115408170Y-108477947D01*
X115408160Y-108477950D01*
X115226092Y-108553364D01*
X115226079Y-108553371D01*
X115062218Y-108662860D01*
X115062214Y-108662863D01*
X114922863Y-108802214D01*
X114922860Y-108802218D01*
X114813371Y-108966079D01*
X114813364Y-108966092D01*
X114737950Y-109148160D01*
X114737947Y-109148170D01*
X114699500Y-109341456D01*
X114699500Y-109341459D01*
X114699500Y-109538541D01*
X114699500Y-109538543D01*
X114699499Y-109538543D01*
X97980500Y-109538543D01*
X97980500Y-109538541D01*
X97980500Y-109341459D01*
X97980500Y-109341456D01*
X97942052Y-109148170D01*
X97942051Y-109148169D01*
X97942051Y-109148165D01*
X97942049Y-109148160D01*
X97866635Y-108966092D01*
X97866628Y-108966079D01*
X97757139Y-108802218D01*
X97757136Y-108802214D01*
X97617785Y-108662863D01*
X97617781Y-108662860D01*
X97453920Y-108553371D01*
X97453907Y-108553364D01*
X97271839Y-108477950D01*
X97271829Y-108477947D01*
X97078543Y-108439500D01*
X97078541Y-108439500D01*
X95881459Y-108439500D01*
X95881457Y-108439500D01*
X95688170Y-108477947D01*
X95688160Y-108477950D01*
X95506092Y-108553364D01*
X95506079Y-108553371D01*
X95342218Y-108662860D01*
X95342214Y-108662863D01*
X95202863Y-108802214D01*
X95202860Y-108802218D01*
X95093371Y-108966079D01*
X95093364Y-108966092D01*
X95017950Y-109148160D01*
X95017947Y-109148170D01*
X94979500Y-109341456D01*
X94979500Y-109341459D01*
X94979500Y-109538541D01*
X94979500Y-109538543D01*
X94979499Y-109538543D01*
X89500500Y-109538543D01*
X89500500Y-106998543D01*
X94979499Y-106998543D01*
X95017947Y-107191829D01*
X95017950Y-107191839D01*
X95093364Y-107373907D01*
X95093371Y-107373920D01*
X95202860Y-107537781D01*
X95202863Y-107537785D01*
X95342214Y-107677136D01*
X95342218Y-107677139D01*
X95506079Y-107786628D01*
X95506092Y-107786635D01*
X95688160Y-107862049D01*
X95688165Y-107862051D01*
X95688169Y-107862051D01*
X95688170Y-107862052D01*
X95881456Y-107900500D01*
X95881459Y-107900500D01*
X97078543Y-107900500D01*
X97264550Y-107863500D01*
X97271835Y-107862051D01*
X97453914Y-107786632D01*
X97617782Y-107677139D01*
X97757139Y-107537782D01*
X97866632Y-107373914D01*
X97942051Y-107191835D01*
X97980500Y-106998543D01*
X114699499Y-106998543D01*
X114737947Y-107191829D01*
X114737950Y-107191839D01*
X114813364Y-107373907D01*
X114813371Y-107373920D01*
X114922860Y-107537781D01*
X114922863Y-107537785D01*
X115062214Y-107677136D01*
X115062218Y-107677139D01*
X115226079Y-107786628D01*
X115226092Y-107786635D01*
X115408160Y-107862049D01*
X115408165Y-107862051D01*
X115408169Y-107862051D01*
X115408170Y-107862052D01*
X115601456Y-107900500D01*
X115601459Y-107900500D01*
X116798543Y-107900500D01*
X116984550Y-107863500D01*
X116991835Y-107862051D01*
X117173914Y-107786632D01*
X117337782Y-107677139D01*
X117477139Y-107537782D01*
X117586632Y-107373914D01*
X117662051Y-107191835D01*
X117700500Y-106998541D01*
X117700500Y-106801459D01*
X117700500Y-106801456D01*
X117662052Y-106608170D01*
X117662051Y-106608169D01*
X117662051Y-106608165D01*
X117662049Y-106608160D01*
X117586635Y-106426092D01*
X117586628Y-106426079D01*
X117477139Y-106262218D01*
X117477136Y-106262214D01*
X117337785Y-106122863D01*
X117337781Y-106122860D01*
X117173920Y-106013371D01*
X117173907Y-106013364D01*
X116991839Y-105937950D01*
X116991829Y-105937947D01*
X116798543Y-105899500D01*
X116798541Y-105899500D01*
X115601459Y-105899500D01*
X115601457Y-105899500D01*
X115408170Y-105937947D01*
X115408160Y-105937950D01*
X115226092Y-106013364D01*
X115226079Y-106013371D01*
X115062218Y-106122860D01*
X115062214Y-106122863D01*
X114922863Y-106262214D01*
X114922860Y-106262218D01*
X114813371Y-106426079D01*
X114813364Y-106426092D01*
X114737950Y-106608160D01*
X114737947Y-106608170D01*
X114699500Y-106801456D01*
X114699500Y-106801459D01*
X114699500Y-106998541D01*
X114699500Y-106998543D01*
X114699499Y-106998543D01*
X97980500Y-106998543D01*
X97980500Y-106998541D01*
X97980500Y-106801459D01*
X97980500Y-106801456D01*
X97942052Y-106608170D01*
X97942051Y-106608169D01*
X97942051Y-106608165D01*
X97942049Y-106608160D01*
X97866635Y-106426092D01*
X97866628Y-106426079D01*
X97757139Y-106262218D01*
X97757136Y-106262214D01*
X97617785Y-106122863D01*
X97617781Y-106122860D01*
X97453920Y-106013371D01*
X97453907Y-106013364D01*
X97271839Y-105937950D01*
X97271829Y-105937947D01*
X97078543Y-105899500D01*
X97078541Y-105899500D01*
X95881459Y-105899500D01*
X95881457Y-105899500D01*
X95688170Y-105937947D01*
X95688160Y-105937950D01*
X95506092Y-106013364D01*
X95506079Y-106013371D01*
X95342218Y-106122860D01*
X95342214Y-106122863D01*
X95202863Y-106262214D01*
X95202860Y-106262218D01*
X95093371Y-106426079D01*
X95093364Y-106426092D01*
X95017950Y-106608160D01*
X95017947Y-106608170D01*
X94979500Y-106801456D01*
X94979500Y-106801459D01*
X94979500Y-106998541D01*
X94979500Y-106998543D01*
X94979499Y-106998543D01*
X89500500Y-106998543D01*
X89500500Y-104458543D01*
X94979499Y-104458543D01*
X95017947Y-104651829D01*
X95017950Y-104651839D01*
X95093364Y-104833907D01*
X95093371Y-104833920D01*
X95202860Y-104997781D01*
X95202863Y-104997785D01*
X95342214Y-105137136D01*
X95342218Y-105137139D01*
X95506079Y-105246628D01*
X95506092Y-105246635D01*
X95688160Y-105322049D01*
X95688165Y-105322051D01*
X95688169Y-105322051D01*
X95688170Y-105322052D01*
X95881456Y-105360500D01*
X95881459Y-105360500D01*
X97078543Y-105360500D01*
X97208582Y-105334632D01*
X97271835Y-105322051D01*
X97453914Y-105246632D01*
X97617782Y-105137139D01*
X97757139Y-104997782D01*
X97866632Y-104833914D01*
X97942051Y-104651835D01*
X97980500Y-104458543D01*
X114699499Y-104458543D01*
X114737947Y-104651829D01*
X114737950Y-104651839D01*
X114813364Y-104833907D01*
X114813371Y-104833920D01*
X114922860Y-104997781D01*
X114922863Y-104997785D01*
X115062214Y-105137136D01*
X115062218Y-105137139D01*
X115226079Y-105246628D01*
X115226092Y-105246635D01*
X115408160Y-105322049D01*
X115408165Y-105322051D01*
X115408169Y-105322051D01*
X115408170Y-105322052D01*
X115601456Y-105360500D01*
X115601459Y-105360500D01*
X116798543Y-105360500D01*
X116928582Y-105334632D01*
X116991835Y-105322051D01*
X117173914Y-105246632D01*
X117337782Y-105137139D01*
X117477139Y-104997782D01*
X117586632Y-104833914D01*
X117662051Y-104651835D01*
X117700500Y-104458541D01*
X117700500Y-104261459D01*
X117700500Y-104261456D01*
X117662052Y-104068170D01*
X117662051Y-104068169D01*
X117662051Y-104068165D01*
X117662049Y-104068160D01*
X117586635Y-103886092D01*
X117586628Y-103886079D01*
X117477139Y-103722218D01*
X117477136Y-103722214D01*
X117337785Y-103582863D01*
X117337781Y-103582860D01*
X117173920Y-103473371D01*
X117173907Y-103473364D01*
X116991839Y-103397950D01*
X116991829Y-103397947D01*
X116798543Y-103359500D01*
X116798541Y-103359500D01*
X115601459Y-103359500D01*
X115601457Y-103359500D01*
X115408170Y-103397947D01*
X115408160Y-103397950D01*
X115226092Y-103473364D01*
X115226079Y-103473371D01*
X115062218Y-103582860D01*
X115062214Y-103582863D01*
X114922863Y-103722214D01*
X114922860Y-103722218D01*
X114813371Y-103886079D01*
X114813364Y-103886092D01*
X114737950Y-104068160D01*
X114737947Y-104068170D01*
X114699500Y-104261456D01*
X114699500Y-104261459D01*
X114699500Y-104458541D01*
X114699500Y-104458543D01*
X114699499Y-104458543D01*
X97980500Y-104458543D01*
X97980500Y-104458541D01*
X97980500Y-104261459D01*
X97980500Y-104261456D01*
X97942052Y-104068170D01*
X97942051Y-104068169D01*
X97942051Y-104068165D01*
X97942049Y-104068160D01*
X97866635Y-103886092D01*
X97866628Y-103886079D01*
X97757139Y-103722218D01*
X97757136Y-103722214D01*
X97617785Y-103582863D01*
X97617781Y-103582860D01*
X97453920Y-103473371D01*
X97453907Y-103473364D01*
X97271839Y-103397950D01*
X97271829Y-103397947D01*
X97078543Y-103359500D01*
X97078541Y-103359500D01*
X95881459Y-103359500D01*
X95881457Y-103359500D01*
X95688170Y-103397947D01*
X95688160Y-103397950D01*
X95506092Y-103473364D01*
X95506079Y-103473371D01*
X95342218Y-103582860D01*
X95342214Y-103582863D01*
X95202863Y-103722214D01*
X95202860Y-103722218D01*
X95093371Y-103886079D01*
X95093364Y-103886092D01*
X95017950Y-104068160D01*
X95017947Y-104068170D01*
X94979500Y-104261456D01*
X94979500Y-104261459D01*
X94979500Y-104458541D01*
X94979500Y-104458543D01*
X94979499Y-104458543D01*
X89500500Y-104458543D01*
X89500500Y-101918543D01*
X94979499Y-101918543D01*
X95017947Y-102111829D01*
X95017950Y-102111839D01*
X95093364Y-102293907D01*
X95093371Y-102293920D01*
X95202860Y-102457781D01*
X95202863Y-102457785D01*
X95342214Y-102597136D01*
X95342218Y-102597139D01*
X95506079Y-102706628D01*
X95506092Y-102706635D01*
X95688160Y-102782049D01*
X95688165Y-102782051D01*
X95688169Y-102782051D01*
X95688170Y-102782052D01*
X95881456Y-102820500D01*
X95881459Y-102820500D01*
X97078543Y-102820500D01*
X97208582Y-102794632D01*
X97271835Y-102782051D01*
X97453914Y-102706632D01*
X97617782Y-102597139D01*
X97757139Y-102457782D01*
X97866632Y-102293914D01*
X97942051Y-102111835D01*
X97954632Y-102048582D01*
X97979981Y-101921153D01*
X111699500Y-101921153D01*
X111699500Y-102078846D01*
X111730261Y-102233489D01*
X111730264Y-102233501D01*
X111790602Y-102379172D01*
X111790609Y-102379185D01*
X111878210Y-102510288D01*
X111878213Y-102510292D01*
X111989707Y-102621786D01*
X111989711Y-102621789D01*
X112120814Y-102709390D01*
X112120827Y-102709397D01*
X112266498Y-102769735D01*
X112266503Y-102769737D01*
X112421153Y-102800499D01*
X112421156Y-102800500D01*
X112421158Y-102800500D01*
X112578844Y-102800500D01*
X112578845Y-102800499D01*
X112733497Y-102769737D01*
X112808963Y-102738478D01*
X112877864Y-102709939D01*
X112925316Y-102700500D01*
X115186617Y-102700500D01*
X115234069Y-102709939D01*
X115408160Y-102782049D01*
X115408165Y-102782051D01*
X115408169Y-102782051D01*
X115408170Y-102782052D01*
X115601456Y-102820500D01*
X115601459Y-102820500D01*
X116798543Y-102820500D01*
X116928582Y-102794632D01*
X116991835Y-102782051D01*
X117173914Y-102706632D01*
X117337782Y-102597139D01*
X117477139Y-102457782D01*
X117586632Y-102293914D01*
X117662051Y-102111835D01*
X117674632Y-102048582D01*
X117700500Y-101918543D01*
X117700500Y-101721456D01*
X117662052Y-101528170D01*
X117662051Y-101528169D01*
X117662051Y-101528165D01*
X117646121Y-101489707D01*
X117586635Y-101346092D01*
X117586628Y-101346079D01*
X117477139Y-101182218D01*
X117477136Y-101182214D01*
X117337785Y-101042863D01*
X117337781Y-101042860D01*
X117173920Y-100933371D01*
X117173907Y-100933364D01*
X116991839Y-100857950D01*
X116991829Y-100857947D01*
X116798543Y-100819500D01*
X116798541Y-100819500D01*
X115601459Y-100819500D01*
X115601457Y-100819500D01*
X115408170Y-100857947D01*
X115408160Y-100857950D01*
X115226092Y-100933364D01*
X115226079Y-100933371D01*
X115062218Y-101042860D01*
X115062214Y-101042863D01*
X114922863Y-101182214D01*
X114922860Y-101182218D01*
X114881318Y-101244391D01*
X114827706Y-101289196D01*
X114778216Y-101299500D01*
X112925316Y-101299500D01*
X112877864Y-101290061D01*
X112733501Y-101230264D01*
X112733489Y-101230261D01*
X112578845Y-101199500D01*
X112578842Y-101199500D01*
X112421158Y-101199500D01*
X112421155Y-101199500D01*
X112266510Y-101230261D01*
X112266498Y-101230264D01*
X112120827Y-101290602D01*
X112120814Y-101290609D01*
X111989711Y-101378210D01*
X111989707Y-101378213D01*
X111878213Y-101489707D01*
X111878210Y-101489711D01*
X111790609Y-101620814D01*
X111790602Y-101620827D01*
X111730264Y-101766498D01*
X111730261Y-101766510D01*
X111699500Y-101921153D01*
X97979981Y-101921153D01*
X97980500Y-101918543D01*
X97980500Y-101721456D01*
X97942052Y-101528170D01*
X97942051Y-101528169D01*
X97942051Y-101528165D01*
X97926121Y-101489707D01*
X97866635Y-101346092D01*
X97866628Y-101346079D01*
X97757139Y-101182218D01*
X97757136Y-101182214D01*
X97617785Y-101042863D01*
X97617781Y-101042860D01*
X97453920Y-100933371D01*
X97453907Y-100933364D01*
X97271839Y-100857950D01*
X97271829Y-100857947D01*
X97078543Y-100819500D01*
X97078541Y-100819500D01*
X95881459Y-100819500D01*
X95881457Y-100819500D01*
X95688170Y-100857947D01*
X95688160Y-100857950D01*
X95506092Y-100933364D01*
X95506079Y-100933371D01*
X95342218Y-101042860D01*
X95342214Y-101042863D01*
X95202863Y-101182214D01*
X95202860Y-101182218D01*
X95093371Y-101346079D01*
X95093364Y-101346092D01*
X95017950Y-101528160D01*
X95017947Y-101528170D01*
X94979500Y-101721456D01*
X94979500Y-101721459D01*
X94979500Y-101918541D01*
X94979500Y-101918543D01*
X94979499Y-101918543D01*
X89500500Y-101918543D01*
X89500500Y-99378543D01*
X94979499Y-99378543D01*
X95017947Y-99571829D01*
X95017950Y-99571839D01*
X95093364Y-99753907D01*
X95093371Y-99753920D01*
X95202860Y-99917781D01*
X95202863Y-99917785D01*
X95342214Y-100057136D01*
X95342218Y-100057139D01*
X95506079Y-100166628D01*
X95506092Y-100166635D01*
X95688160Y-100242049D01*
X95688165Y-100242051D01*
X95688169Y-100242051D01*
X95688170Y-100242052D01*
X95881456Y-100280500D01*
X95881459Y-100280500D01*
X97078543Y-100280500D01*
X97208582Y-100254632D01*
X97271835Y-100242051D01*
X97453914Y-100166632D01*
X97617782Y-100057139D01*
X97757139Y-99917782D01*
X97866632Y-99753914D01*
X97942051Y-99571835D01*
X97972023Y-99421158D01*
X97980500Y-99378543D01*
X114699499Y-99378543D01*
X114737947Y-99571829D01*
X114737950Y-99571839D01*
X114813364Y-99753907D01*
X114813371Y-99753920D01*
X114922860Y-99917781D01*
X114922863Y-99917785D01*
X115062214Y-100057136D01*
X115062218Y-100057139D01*
X115226079Y-100166628D01*
X115226092Y-100166635D01*
X115408160Y-100242049D01*
X115408165Y-100242051D01*
X115408169Y-100242051D01*
X115408170Y-100242052D01*
X115601456Y-100280500D01*
X115601459Y-100280500D01*
X116798543Y-100280500D01*
X116928582Y-100254632D01*
X116991835Y-100242051D01*
X117173914Y-100166632D01*
X117337782Y-100057139D01*
X117477139Y-99917782D01*
X117586632Y-99753914D01*
X117662051Y-99571835D01*
X117692023Y-99421158D01*
X117692024Y-99421153D01*
X118699500Y-99421153D01*
X118699500Y-99578846D01*
X118730261Y-99733489D01*
X118730264Y-99733501D01*
X118790061Y-99877864D01*
X118799500Y-99925316D01*
X118799500Y-126431006D01*
X118799500Y-126568994D01*
X118799500Y-126568996D01*
X118799499Y-126568996D01*
X118826418Y-126704322D01*
X118826421Y-126704332D01*
X118879222Y-126831807D01*
X118955887Y-126946545D01*
X118955888Y-126946546D01*
X120412124Y-128402781D01*
X121803457Y-129794114D01*
X121848238Y-129824035D01*
X121918189Y-129870775D01*
X122008332Y-129908113D01*
X122045671Y-129923580D01*
X122072591Y-129928934D01*
X122162937Y-129946905D01*
X122181006Y-129950500D01*
X122181007Y-129950500D01*
X127718256Y-129950500D01*
X127785295Y-129970185D01*
X127818575Y-130001616D01*
X127888030Y-130097215D01*
X128032786Y-130241971D01*
X128187749Y-130354556D01*
X128198390Y-130362287D01*
X128253895Y-130390568D01*
X128380776Y-130455218D01*
X128380778Y-130455218D01*
X128380781Y-130455220D01*
X128485137Y-130489127D01*
X128575465Y-130518477D01*
X128676557Y-130534488D01*
X128777648Y-130550500D01*
X128777649Y-130550500D01*
X128982351Y-130550500D01*
X128982352Y-130550500D01*
X129184534Y-130518477D01*
X129379219Y-130455220D01*
X129561610Y-130362287D01*
X129670268Y-130283343D01*
X129727213Y-130241971D01*
X129727215Y-130241968D01*
X129727219Y-130241966D01*
X129871966Y-130097219D01*
X129871968Y-130097215D01*
X129871971Y-130097213D01*
X129941425Y-130001616D01*
X129992287Y-129931610D01*
X130085220Y-129749219D01*
X130148477Y-129554534D01*
X130180500Y-129352352D01*
X130180500Y-129147648D01*
X135199500Y-129147648D01*
X135199500Y-129352351D01*
X135231522Y-129554534D01*
X135294781Y-129749223D01*
X135356716Y-129870775D01*
X135386347Y-129928930D01*
X135387715Y-129931613D01*
X135508028Y-130097213D01*
X135652786Y-130241971D01*
X135807749Y-130354556D01*
X135818390Y-130362287D01*
X135873895Y-130390568D01*
X136000776Y-130455218D01*
X136000778Y-130455218D01*
X136000781Y-130455220D01*
X136105137Y-130489127D01*
X136195465Y-130518477D01*
X136296557Y-130534488D01*
X136397648Y-130550500D01*
X136397649Y-130550500D01*
X136602351Y-130550500D01*
X136602352Y-130550500D01*
X136804534Y-130518477D01*
X136999219Y-130455220D01*
X137181610Y-130362287D01*
X137290268Y-130283343D01*
X137347213Y-130241971D01*
X137347215Y-130241968D01*
X137347219Y-130241966D01*
X137491966Y-130097219D01*
X137491968Y-130097215D01*
X137491971Y-130097213D01*
X137561425Y-130001616D01*
X137612287Y-129931610D01*
X137705220Y-129749219D01*
X137768477Y-129554534D01*
X137800500Y-129352352D01*
X137800500Y-129147648D01*
X137768477Y-128945466D01*
X137768475Y-128945461D01*
X137768475Y-128945458D01*
X137758694Y-128915356D01*
X137758693Y-128915354D01*
X137747824Y-128881902D01*
X170999500Y-128881902D01*
X170999500Y-129118097D01*
X171036446Y-129351368D01*
X171109433Y-129575996D01*
X171216657Y-129786433D01*
X171355483Y-129977510D01*
X171522490Y-130144517D01*
X171713567Y-130283343D01*
X171812991Y-130334002D01*
X171924003Y-130390566D01*
X171924005Y-130390566D01*
X171924008Y-130390568D01*
X172044412Y-130429689D01*
X172148631Y-130463553D01*
X172381903Y-130500500D01*
X172381908Y-130500500D01*
X172618097Y-130500500D01*
X172851368Y-130463553D01*
X172877020Y-130455218D01*
X173075992Y-130390568D01*
X173286433Y-130283343D01*
X173477510Y-130144517D01*
X173644517Y-129977510D01*
X173783343Y-129786433D01*
X173890568Y-129575992D01*
X173963553Y-129351368D01*
X174000500Y-129118097D01*
X174000500Y-128881902D01*
X173963553Y-128648631D01*
X173890566Y-128424003D01*
X173783342Y-128213566D01*
X173644517Y-128022490D01*
X173477510Y-127855483D01*
X173286433Y-127716657D01*
X173075996Y-127609433D01*
X172851368Y-127536446D01*
X172618097Y-127499500D01*
X172618092Y-127499500D01*
X172381908Y-127499500D01*
X172381903Y-127499500D01*
X172148631Y-127536446D01*
X171924003Y-127609433D01*
X171713566Y-127716657D01*
X171604550Y-127795862D01*
X171522490Y-127855483D01*
X171522488Y-127855485D01*
X171522487Y-127855485D01*
X171355485Y-128022487D01*
X171355485Y-128022488D01*
X171355483Y-128022490D01*
X171339288Y-128044781D01*
X171216657Y-128213566D01*
X171109433Y-128424003D01*
X171036446Y-128648631D01*
X170999500Y-128881902D01*
X137747824Y-128881902D01*
X137705220Y-128750781D01*
X137612287Y-128568390D01*
X137572176Y-128513181D01*
X137491971Y-128402786D01*
X137347213Y-128258028D01*
X137181613Y-128137715D01*
X137181612Y-128137714D01*
X137181610Y-128137713D01*
X137124653Y-128108691D01*
X136999223Y-128044781D01*
X136804534Y-127981522D01*
X136629995Y-127953878D01*
X136602352Y-127949500D01*
X136397648Y-127949500D01*
X136373329Y-127953351D01*
X136195465Y-127981522D01*
X136000776Y-128044781D01*
X135818386Y-128137715D01*
X135652786Y-128258028D01*
X135508028Y-128402786D01*
X135387715Y-128568386D01*
X135294781Y-128750776D01*
X135231522Y-128945465D01*
X135199500Y-129147648D01*
X130180500Y-129147648D01*
X130148477Y-128945466D01*
X130148476Y-128945464D01*
X130085218Y-128750776D01*
X130033172Y-128648631D01*
X129992287Y-128568390D01*
X129952176Y-128513181D01*
X129871971Y-128402786D01*
X129727213Y-128258028D01*
X129561613Y-128137715D01*
X129561612Y-128137714D01*
X129561610Y-128137713D01*
X129504653Y-128108691D01*
X129379223Y-128044781D01*
X129184534Y-127981522D01*
X129009995Y-127953878D01*
X128982352Y-127949500D01*
X128777648Y-127949500D01*
X128753329Y-127953351D01*
X128575465Y-127981522D01*
X128380776Y-128044781D01*
X128198386Y-128137715D01*
X128032786Y-128258028D01*
X127888030Y-128402784D01*
X127818575Y-128498384D01*
X127763245Y-128541051D01*
X127718256Y-128549500D01*
X122591519Y-128549500D01*
X122524480Y-128529815D01*
X122503838Y-128513181D01*
X120236819Y-126246162D01*
X120203334Y-126184839D01*
X120200500Y-126158481D01*
X120200500Y-124647648D01*
X127639500Y-124647648D01*
X127639500Y-124852351D01*
X127671522Y-125054534D01*
X127734781Y-125249223D01*
X127827715Y-125431613D01*
X127948028Y-125597213D01*
X128092786Y-125741971D01*
X128247749Y-125854556D01*
X128258390Y-125862287D01*
X128374607Y-125921503D01*
X128440776Y-125955218D01*
X128440778Y-125955218D01*
X128440781Y-125955220D01*
X128545137Y-125989127D01*
X128635465Y-126018477D01*
X128736557Y-126034488D01*
X128837648Y-126050500D01*
X128837649Y-126050500D01*
X129042351Y-126050500D01*
X129042352Y-126050500D01*
X129244534Y-126018477D01*
X129439219Y-125955220D01*
X129621610Y-125862287D01*
X129714590Y-125794732D01*
X129787213Y-125741971D01*
X129787215Y-125741968D01*
X129787219Y-125741966D01*
X129931966Y-125597219D01*
X129931968Y-125597215D01*
X129931971Y-125597213D01*
X129984732Y-125524590D01*
X130052287Y-125431610D01*
X130145220Y-125249219D01*
X130208477Y-125054534D01*
X130240500Y-124852352D01*
X130240500Y-124647648D01*
X135259500Y-124647648D01*
X135259500Y-124852351D01*
X135291522Y-125054534D01*
X135354781Y-125249223D01*
X135447715Y-125431613D01*
X135568028Y-125597213D01*
X135712786Y-125741971D01*
X135867749Y-125854556D01*
X135878390Y-125862287D01*
X135994607Y-125921503D01*
X136060776Y-125955218D01*
X136060778Y-125955218D01*
X136060781Y-125955220D01*
X136165137Y-125989127D01*
X136255465Y-126018477D01*
X136356557Y-126034488D01*
X136457648Y-126050500D01*
X136457649Y-126050500D01*
X136662351Y-126050500D01*
X136662352Y-126050500D01*
X136864534Y-126018477D01*
X137059219Y-125955220D01*
X137241610Y-125862287D01*
X137334590Y-125794732D01*
X137407213Y-125741971D01*
X137407215Y-125741968D01*
X137407219Y-125741966D01*
X137551966Y-125597219D01*
X137551968Y-125597215D01*
X137551971Y-125597213D01*
X137604732Y-125524590D01*
X137672287Y-125431610D01*
X137765220Y-125249219D01*
X137828477Y-125054534D01*
X137860500Y-124852352D01*
X137860500Y-124647648D01*
X137828477Y-124445466D01*
X137765220Y-124250781D01*
X137765218Y-124250778D01*
X137765218Y-124250776D01*
X137731503Y-124184607D01*
X137672287Y-124068390D01*
X137664556Y-124057749D01*
X137551971Y-123902786D01*
X137407213Y-123758028D01*
X137241613Y-123637715D01*
X137241612Y-123637714D01*
X137241610Y-123637713D01*
X137184653Y-123608691D01*
X137059223Y-123544781D01*
X136864534Y-123481522D01*
X136689995Y-123453878D01*
X136662352Y-123449500D01*
X136457648Y-123449500D01*
X136433329Y-123453351D01*
X136255465Y-123481522D01*
X136060776Y-123544781D01*
X135878386Y-123637715D01*
X135712786Y-123758028D01*
X135568028Y-123902786D01*
X135447715Y-124068386D01*
X135354781Y-124250776D01*
X135291522Y-124445465D01*
X135259500Y-124647648D01*
X130240500Y-124647648D01*
X130208477Y-124445466D01*
X130145220Y-124250781D01*
X130145218Y-124250778D01*
X130145218Y-124250776D01*
X130111503Y-124184607D01*
X130052287Y-124068390D01*
X130044556Y-124057749D01*
X129931971Y-123902786D01*
X129787213Y-123758028D01*
X129621613Y-123637715D01*
X129621612Y-123637714D01*
X129621610Y-123637713D01*
X129564653Y-123608691D01*
X129439223Y-123544781D01*
X129244534Y-123481522D01*
X129069995Y-123453878D01*
X129042352Y-123449500D01*
X128837648Y-123449500D01*
X128813329Y-123453351D01*
X128635465Y-123481522D01*
X128440776Y-123544781D01*
X128258386Y-123637715D01*
X128092786Y-123758028D01*
X127948028Y-123902786D01*
X127827715Y-124068386D01*
X127734781Y-124250776D01*
X127671522Y-124445465D01*
X127639500Y-124647648D01*
X120200500Y-124647648D01*
X120200500Y-120147648D01*
X127639500Y-120147648D01*
X127639500Y-120352351D01*
X127671522Y-120554534D01*
X127734781Y-120749223D01*
X127827715Y-120931613D01*
X127948028Y-121097213D01*
X128092786Y-121241971D01*
X128247749Y-121354556D01*
X128258390Y-121362287D01*
X128374607Y-121421503D01*
X128440776Y-121455218D01*
X128440778Y-121455218D01*
X128440781Y-121455220D01*
X128545137Y-121489127D01*
X128635465Y-121518477D01*
X128736557Y-121534488D01*
X128837648Y-121550500D01*
X128837649Y-121550500D01*
X129042351Y-121550500D01*
X129042352Y-121550500D01*
X129244534Y-121518477D01*
X129439219Y-121455220D01*
X129621610Y-121362287D01*
X129714590Y-121294732D01*
X129787213Y-121241971D01*
X129787215Y-121241968D01*
X129787219Y-121241966D01*
X129931966Y-121097219D01*
X129931968Y-121097215D01*
X129931971Y-121097213D01*
X129984732Y-121024590D01*
X130052287Y-120931610D01*
X130145220Y-120749219D01*
X130208477Y-120554534D01*
X130240500Y-120352352D01*
X130240500Y-120147648D01*
X135259500Y-120147648D01*
X135259500Y-120352351D01*
X135291522Y-120554534D01*
X135354781Y-120749223D01*
X135447715Y-120931613D01*
X135568028Y-121097213D01*
X135712786Y-121241971D01*
X135867749Y-121354556D01*
X135878390Y-121362287D01*
X135994607Y-121421503D01*
X136060776Y-121455218D01*
X136060778Y-121455218D01*
X136060781Y-121455220D01*
X136165137Y-121489127D01*
X136255465Y-121518477D01*
X136356557Y-121534488D01*
X136457648Y-121550500D01*
X136457649Y-121550500D01*
X136662351Y-121550500D01*
X136662352Y-121550500D01*
X136864534Y-121518477D01*
X137059219Y-121455220D01*
X137241610Y-121362287D01*
X137334590Y-121294732D01*
X137407213Y-121241971D01*
X137407215Y-121241968D01*
X137407219Y-121241966D01*
X137551966Y-121097219D01*
X137551968Y-121097215D01*
X137551971Y-121097213D01*
X137604732Y-121024590D01*
X137672287Y-120931610D01*
X137765220Y-120749219D01*
X137828477Y-120554534D01*
X137860500Y-120352352D01*
X137860500Y-120147648D01*
X137828477Y-119945466D01*
X137765220Y-119750781D01*
X137765218Y-119750778D01*
X137765218Y-119750776D01*
X137731503Y-119684607D01*
X137672287Y-119568390D01*
X137664556Y-119557749D01*
X137551971Y-119402786D01*
X137407213Y-119258028D01*
X137241613Y-119137715D01*
X137241612Y-119137714D01*
X137241610Y-119137713D01*
X137184653Y-119108691D01*
X137059223Y-119044781D01*
X136864534Y-118981522D01*
X136689995Y-118953878D01*
X136662352Y-118949500D01*
X136457648Y-118949500D01*
X136433329Y-118953351D01*
X136255465Y-118981522D01*
X136060776Y-119044781D01*
X135878386Y-119137715D01*
X135712786Y-119258028D01*
X135568028Y-119402786D01*
X135447715Y-119568386D01*
X135354781Y-119750776D01*
X135291522Y-119945465D01*
X135259500Y-120147648D01*
X130240500Y-120147648D01*
X130208477Y-119945466D01*
X130145220Y-119750781D01*
X130145218Y-119750778D01*
X130145218Y-119750776D01*
X130111503Y-119684607D01*
X130052287Y-119568390D01*
X130044556Y-119557749D01*
X129931971Y-119402786D01*
X129787213Y-119258028D01*
X129621613Y-119137715D01*
X129621612Y-119137714D01*
X129621610Y-119137713D01*
X129564653Y-119108691D01*
X129439223Y-119044781D01*
X129244534Y-118981522D01*
X129069995Y-118953878D01*
X129042352Y-118949500D01*
X128837648Y-118949500D01*
X128813329Y-118953351D01*
X128635465Y-118981522D01*
X128440776Y-119044781D01*
X128258386Y-119137715D01*
X128092786Y-119258028D01*
X127948028Y-119402786D01*
X127827715Y-119568386D01*
X127734781Y-119750776D01*
X127671522Y-119945465D01*
X127639500Y-120147648D01*
X120200500Y-120147648D01*
X120200500Y-109338038D01*
X127943500Y-109338038D01*
X127943500Y-109589962D01*
X127964681Y-109723694D01*
X127982910Y-109838785D01*
X128060760Y-110078383D01*
X128175132Y-110302848D01*
X128323201Y-110506649D01*
X128323205Y-110506654D01*
X128501345Y-110684794D01*
X128501350Y-110684798D01*
X128569102Y-110734022D01*
X128705155Y-110832870D01*
X128848184Y-110905747D01*
X128929616Y-110947239D01*
X128929618Y-110947239D01*
X128929621Y-110947241D01*
X129169215Y-111025090D01*
X129418038Y-111064500D01*
X129418039Y-111064500D01*
X129669961Y-111064500D01*
X129669962Y-111064500D01*
X129918785Y-111025090D01*
X130158379Y-110947241D01*
X130382845Y-110832870D01*
X130586656Y-110684793D01*
X130764793Y-110506656D01*
X130912870Y-110302845D01*
X131027241Y-110078379D01*
X131088521Y-109889778D01*
X133559500Y-109889778D01*
X133559500Y-110110221D01*
X133593985Y-110327952D01*
X133662103Y-110537603D01*
X133662104Y-110537606D01*
X133762187Y-110734025D01*
X133891752Y-110912358D01*
X133891756Y-110912363D01*
X134047636Y-111068243D01*
X134047641Y-111068247D01*
X134203192Y-111181260D01*
X134225978Y-111197815D01*
X134342501Y-111257187D01*
X134422393Y-111297895D01*
X134422396Y-111297896D01*
X134527221Y-111331955D01*
X134632049Y-111366015D01*
X134849778Y-111400500D01*
X134849779Y-111400500D01*
X135070221Y-111400500D01*
X135070222Y-111400500D01*
X135287951Y-111366015D01*
X135497606Y-111297895D01*
X135694022Y-111197815D01*
X135872365Y-111068242D01*
X135922924Y-111017682D01*
X135984245Y-110984198D01*
X136053936Y-110989182D01*
X136109870Y-111031053D01*
X136126786Y-111062030D01*
X136156646Y-111142087D01*
X136156649Y-111142093D01*
X136242809Y-111257187D01*
X136242812Y-111257190D01*
X136357906Y-111343350D01*
X136357913Y-111343354D01*
X136492620Y-111393596D01*
X136492627Y-111393598D01*
X136552155Y-111399999D01*
X136552172Y-111400000D01*
X137250000Y-111400000D01*
X137250000Y-110375277D01*
X137326306Y-110419333D01*
X137440756Y-110450000D01*
X137559244Y-110450000D01*
X137673694Y-110419333D01*
X137750000Y-110375277D01*
X137750000Y-111400000D01*
X138447828Y-111400000D01*
X138447844Y-111399999D01*
X138507372Y-111393598D01*
X138507379Y-111393596D01*
X138642086Y-111343354D01*
X138642093Y-111343350D01*
X138757187Y-111257190D01*
X138757190Y-111257187D01*
X138843350Y-111142093D01*
X138843354Y-111142086D01*
X138893596Y-111007379D01*
X138893598Y-111007372D01*
X138899999Y-110947844D01*
X138900000Y-110947827D01*
X138900000Y-110250000D01*
X137875278Y-110250000D01*
X137919333Y-110173694D01*
X137950000Y-110059244D01*
X137950000Y-109940756D01*
X137936340Y-109889778D01*
X141309500Y-109889778D01*
X141309500Y-110110221D01*
X141343985Y-110327952D01*
X141412103Y-110537603D01*
X141412104Y-110537606D01*
X141512187Y-110734025D01*
X141641752Y-110912358D01*
X141641756Y-110912363D01*
X141797636Y-111068243D01*
X141797641Y-111068247D01*
X141953192Y-111181260D01*
X141975978Y-111197815D01*
X142092501Y-111257187D01*
X142172393Y-111297895D01*
X142172396Y-111297896D01*
X142277221Y-111331955D01*
X142382049Y-111366015D01*
X142599778Y-111400500D01*
X142599779Y-111400500D01*
X142820221Y-111400500D01*
X142820222Y-111400500D01*
X143037951Y-111366015D01*
X143247606Y-111297895D01*
X143444022Y-111197815D01*
X143622365Y-111068242D01*
X143672924Y-111017682D01*
X143734245Y-110984198D01*
X143803936Y-110989182D01*
X143859870Y-111031053D01*
X143876786Y-111062030D01*
X143906646Y-111142087D01*
X143906649Y-111142093D01*
X143992809Y-111257187D01*
X143992812Y-111257190D01*
X144107906Y-111343350D01*
X144107913Y-111343354D01*
X144242620Y-111393596D01*
X144242627Y-111393598D01*
X144302155Y-111399999D01*
X144302172Y-111400000D01*
X145000000Y-111400000D01*
X145000000Y-110375277D01*
X145076306Y-110419333D01*
X145190756Y-110450000D01*
X145309244Y-110450000D01*
X145423694Y-110419333D01*
X145500000Y-110375277D01*
X145500000Y-111400000D01*
X146197828Y-111400000D01*
X146197844Y-111399999D01*
X146257372Y-111393598D01*
X146257379Y-111393596D01*
X146392086Y-111343354D01*
X146392093Y-111343350D01*
X146507187Y-111257190D01*
X146507190Y-111257187D01*
X146593350Y-111142093D01*
X146593354Y-111142086D01*
X146643596Y-111007379D01*
X146643598Y-111007372D01*
X146649999Y-110947844D01*
X146650000Y-110947827D01*
X146650000Y-110250000D01*
X145625278Y-110250000D01*
X145669333Y-110173694D01*
X145700000Y-110059244D01*
X145700000Y-109940756D01*
X145686340Y-109889778D01*
X149059500Y-109889778D01*
X149059500Y-110110221D01*
X149093985Y-110327952D01*
X149162103Y-110537603D01*
X149162104Y-110537606D01*
X149262187Y-110734025D01*
X149391752Y-110912358D01*
X149391756Y-110912363D01*
X149547636Y-111068243D01*
X149547641Y-111068247D01*
X149703192Y-111181260D01*
X149725978Y-111197815D01*
X149842501Y-111257187D01*
X149922393Y-111297895D01*
X149922396Y-111297896D01*
X150027221Y-111331955D01*
X150132049Y-111366015D01*
X150349778Y-111400500D01*
X150349779Y-111400500D01*
X150570221Y-111400500D01*
X150570222Y-111400500D01*
X150787951Y-111366015D01*
X150997606Y-111297895D01*
X151194022Y-111197815D01*
X151372365Y-111068242D01*
X151422924Y-111017682D01*
X151484245Y-110984198D01*
X151553936Y-110989182D01*
X151609870Y-111031053D01*
X151626786Y-111062030D01*
X151656646Y-111142087D01*
X151656649Y-111142093D01*
X151742809Y-111257187D01*
X151742812Y-111257190D01*
X151857906Y-111343350D01*
X151857913Y-111343354D01*
X151992620Y-111393596D01*
X151992627Y-111393598D01*
X152052155Y-111399999D01*
X152052172Y-111400000D01*
X152750000Y-111400000D01*
X152750000Y-110375277D01*
X152826306Y-110419333D01*
X152940756Y-110450000D01*
X153059244Y-110450000D01*
X153173694Y-110419333D01*
X153250000Y-110375277D01*
X153250000Y-111400000D01*
X153947828Y-111400000D01*
X153947844Y-111399999D01*
X154007372Y-111393598D01*
X154007379Y-111393596D01*
X154142086Y-111343354D01*
X154142093Y-111343350D01*
X154257187Y-111257190D01*
X154257190Y-111257187D01*
X154343350Y-111142093D01*
X154343354Y-111142086D01*
X154393596Y-111007379D01*
X154393598Y-111007372D01*
X154399999Y-110947844D01*
X154400000Y-110947827D01*
X154400000Y-110250000D01*
X153375278Y-110250000D01*
X153419333Y-110173694D01*
X153450000Y-110059244D01*
X153450000Y-109940756D01*
X153419333Y-109826306D01*
X153375278Y-109750000D01*
X154400000Y-109750000D01*
X154400000Y-109338038D01*
X156899500Y-109338038D01*
X156899500Y-109589962D01*
X156920681Y-109723694D01*
X156938910Y-109838785D01*
X157016760Y-110078383D01*
X157131132Y-110302848D01*
X157279201Y-110506649D01*
X157279205Y-110506654D01*
X157457345Y-110684794D01*
X157457350Y-110684798D01*
X157525102Y-110734022D01*
X157661155Y-110832870D01*
X157804184Y-110905747D01*
X157885616Y-110947239D01*
X157885618Y-110947239D01*
X157885621Y-110947241D01*
X158125215Y-111025090D01*
X158374038Y-111064500D01*
X158374039Y-111064500D01*
X158625961Y-111064500D01*
X158625962Y-111064500D01*
X158874785Y-111025090D01*
X159114379Y-110947241D01*
X159338845Y-110832870D01*
X159542656Y-110684793D01*
X159720793Y-110506656D01*
X159868870Y-110302845D01*
X159983241Y-110078379D01*
X160061090Y-109838785D01*
X160100500Y-109589962D01*
X160100500Y-109338038D01*
X160061090Y-109089215D01*
X159983241Y-108849621D01*
X159983239Y-108849618D01*
X159983239Y-108849616D01*
X159928819Y-108742812D01*
X159868870Y-108625155D01*
X159761919Y-108477949D01*
X159720798Y-108421350D01*
X159720794Y-108421345D01*
X159542654Y-108243205D01*
X159542649Y-108243201D01*
X159338848Y-108095132D01*
X159338847Y-108095131D01*
X159338845Y-108095130D01*
X159268747Y-108059413D01*
X159114383Y-107980760D01*
X158874785Y-107902910D01*
X158859569Y-107900500D01*
X158625962Y-107863500D01*
X158374038Y-107863500D01*
X158249626Y-107883205D01*
X158125214Y-107902910D01*
X157885616Y-107980760D01*
X157661151Y-108095132D01*
X157457350Y-108243201D01*
X157457345Y-108243205D01*
X157279205Y-108421345D01*
X157279201Y-108421350D01*
X157131132Y-108625151D01*
X157016760Y-108849616D01*
X156950946Y-109052172D01*
X156938910Y-109089215D01*
X156899500Y-109338038D01*
X154400000Y-109338038D01*
X154400000Y-109052172D01*
X154399999Y-109052155D01*
X154393598Y-108992627D01*
X154393596Y-108992620D01*
X154343354Y-108857913D01*
X154343350Y-108857906D01*
X154257190Y-108742812D01*
X154257187Y-108742809D01*
X154142093Y-108656649D01*
X154142086Y-108656645D01*
X154007379Y-108606403D01*
X154007372Y-108606401D01*
X153947844Y-108600000D01*
X153250000Y-108600000D01*
X153250000Y-109624722D01*
X153173694Y-109580667D01*
X153059244Y-109550000D01*
X152940756Y-109550000D01*
X152826306Y-109580667D01*
X152750000Y-109624722D01*
X152750000Y-108600000D01*
X152052155Y-108600000D01*
X151992627Y-108606401D01*
X151992620Y-108606403D01*
X151857913Y-108656645D01*
X151857906Y-108656649D01*
X151742812Y-108742809D01*
X151742809Y-108742812D01*
X151656649Y-108857906D01*
X151656643Y-108857918D01*
X151626785Y-108937969D01*
X151584914Y-108993903D01*
X151519449Y-109018319D01*
X151451176Y-109003467D01*
X151422923Y-108982316D01*
X151372363Y-108931756D01*
X151372358Y-108931752D01*
X151194025Y-108802187D01*
X151194024Y-108802186D01*
X151194022Y-108802185D01*
X151131096Y-108770122D01*
X150997606Y-108702104D01*
X150997603Y-108702103D01*
X150787952Y-108633985D01*
X150679086Y-108616742D01*
X150570222Y-108599500D01*
X150349778Y-108599500D01*
X150277201Y-108610995D01*
X150132047Y-108633985D01*
X149922396Y-108702103D01*
X149922393Y-108702104D01*
X149725974Y-108802187D01*
X149547641Y-108931752D01*
X149547636Y-108931756D01*
X149391756Y-109087636D01*
X149391752Y-109087641D01*
X149262187Y-109265974D01*
X149162104Y-109462393D01*
X149162103Y-109462396D01*
X149093985Y-109672047D01*
X149059500Y-109889778D01*
X145686340Y-109889778D01*
X145669333Y-109826306D01*
X145625278Y-109750000D01*
X146650000Y-109750000D01*
X146650000Y-109052172D01*
X146649999Y-109052155D01*
X146643598Y-108992627D01*
X146643596Y-108992620D01*
X146593354Y-108857913D01*
X146593350Y-108857906D01*
X146507190Y-108742812D01*
X146507187Y-108742809D01*
X146392093Y-108656649D01*
X146392086Y-108656645D01*
X146257379Y-108606403D01*
X146257372Y-108606401D01*
X146197844Y-108600000D01*
X145500000Y-108600000D01*
X145500000Y-109624722D01*
X145423694Y-109580667D01*
X145309244Y-109550000D01*
X145190756Y-109550000D01*
X145076306Y-109580667D01*
X145000000Y-109624722D01*
X145000000Y-108600000D01*
X144302155Y-108600000D01*
X144242627Y-108606401D01*
X144242620Y-108606403D01*
X144107913Y-108656645D01*
X144107906Y-108656649D01*
X143992812Y-108742809D01*
X143992809Y-108742812D01*
X143906649Y-108857906D01*
X143906643Y-108857918D01*
X143876785Y-108937969D01*
X143834914Y-108993903D01*
X143769449Y-109018319D01*
X143701176Y-109003467D01*
X143672923Y-108982316D01*
X143622363Y-108931756D01*
X143622358Y-108931752D01*
X143444025Y-108802187D01*
X143444024Y-108802186D01*
X143444022Y-108802185D01*
X143381096Y-108770122D01*
X143247606Y-108702104D01*
X143247603Y-108702103D01*
X143037952Y-108633985D01*
X142929086Y-108616742D01*
X142820222Y-108599500D01*
X142599778Y-108599500D01*
X142527201Y-108610995D01*
X142382047Y-108633985D01*
X142172396Y-108702103D01*
X142172393Y-108702104D01*
X141975974Y-108802187D01*
X141797641Y-108931752D01*
X141797636Y-108931756D01*
X141641756Y-109087636D01*
X141641752Y-109087641D01*
X141512187Y-109265974D01*
X141412104Y-109462393D01*
X141412103Y-109462396D01*
X141343985Y-109672047D01*
X141309500Y-109889778D01*
X137936340Y-109889778D01*
X137919333Y-109826306D01*
X137875278Y-109750000D01*
X138900000Y-109750000D01*
X138900000Y-109052172D01*
X138899999Y-109052155D01*
X138893598Y-108992627D01*
X138893596Y-108992620D01*
X138843354Y-108857913D01*
X138843350Y-108857906D01*
X138757190Y-108742812D01*
X138757187Y-108742809D01*
X138642093Y-108656649D01*
X138642086Y-108656645D01*
X138507379Y-108606403D01*
X138507372Y-108606401D01*
X138447844Y-108600000D01*
X137750000Y-108600000D01*
X137750000Y-109624722D01*
X137673694Y-109580667D01*
X137559244Y-109550000D01*
X137440756Y-109550000D01*
X137326306Y-109580667D01*
X137250000Y-109624722D01*
X137250000Y-108600000D01*
X136552155Y-108600000D01*
X136492627Y-108606401D01*
X136492620Y-108606403D01*
X136357913Y-108656645D01*
X136357906Y-108656649D01*
X136242812Y-108742809D01*
X136242809Y-108742812D01*
X136156649Y-108857906D01*
X136156643Y-108857918D01*
X136126785Y-108937969D01*
X136084914Y-108993903D01*
X136019449Y-109018319D01*
X135951176Y-109003467D01*
X135922923Y-108982316D01*
X135872363Y-108931756D01*
X135872358Y-108931752D01*
X135694025Y-108802187D01*
X135694024Y-108802186D01*
X135694022Y-108802185D01*
X135631096Y-108770122D01*
X135497606Y-108702104D01*
X135497603Y-108702103D01*
X135287952Y-108633985D01*
X135179086Y-108616742D01*
X135070222Y-108599500D01*
X134849778Y-108599500D01*
X134777201Y-108610995D01*
X134632047Y-108633985D01*
X134422396Y-108702103D01*
X134422393Y-108702104D01*
X134225974Y-108802187D01*
X134047641Y-108931752D01*
X134047636Y-108931756D01*
X133891756Y-109087636D01*
X133891752Y-109087641D01*
X133762187Y-109265974D01*
X133662104Y-109462393D01*
X133662103Y-109462396D01*
X133593985Y-109672047D01*
X133559500Y-109889778D01*
X131088521Y-109889778D01*
X131105090Y-109838785D01*
X131144500Y-109589962D01*
X131144500Y-109338038D01*
X131105090Y-109089215D01*
X131027241Y-108849621D01*
X131027239Y-108849618D01*
X131027239Y-108849616D01*
X130972819Y-108742812D01*
X130912870Y-108625155D01*
X130805919Y-108477949D01*
X130764798Y-108421350D01*
X130764794Y-108421345D01*
X130586654Y-108243205D01*
X130586649Y-108243201D01*
X130382848Y-108095132D01*
X130382847Y-108095131D01*
X130382845Y-108095130D01*
X130312747Y-108059413D01*
X130158383Y-107980760D01*
X129918785Y-107902910D01*
X129903569Y-107900500D01*
X129669962Y-107863500D01*
X129418038Y-107863500D01*
X129293626Y-107883205D01*
X129169214Y-107902910D01*
X128929616Y-107980760D01*
X128705151Y-108095132D01*
X128501350Y-108243201D01*
X128501345Y-108243205D01*
X128323205Y-108421345D01*
X128323201Y-108421350D01*
X128175132Y-108625151D01*
X128060760Y-108849616D01*
X127994946Y-109052172D01*
X127982910Y-109089215D01*
X127943500Y-109338038D01*
X120200500Y-109338038D01*
X120200500Y-99925316D01*
X120209939Y-99877864D01*
X120238478Y-99808963D01*
X120269737Y-99733497D01*
X120300500Y-99578842D01*
X120300500Y-99421158D01*
X120300500Y-99421155D01*
X120300499Y-99421153D01*
X120269738Y-99266510D01*
X120269737Y-99266503D01*
X120234510Y-99181456D01*
X120209397Y-99120827D01*
X120209390Y-99120814D01*
X120121789Y-98989711D01*
X120121786Y-98989707D01*
X120010292Y-98878213D01*
X120010288Y-98878210D01*
X119879185Y-98790609D01*
X119879172Y-98790602D01*
X119733501Y-98730264D01*
X119733489Y-98730261D01*
X119578845Y-98699500D01*
X119578842Y-98699500D01*
X119421158Y-98699500D01*
X119421155Y-98699500D01*
X119266510Y-98730261D01*
X119266498Y-98730264D01*
X119120827Y-98790602D01*
X119120814Y-98790609D01*
X118989711Y-98878210D01*
X118989707Y-98878213D01*
X118878213Y-98989707D01*
X118878210Y-98989711D01*
X118790609Y-99120814D01*
X118790602Y-99120827D01*
X118730264Y-99266498D01*
X118730261Y-99266510D01*
X118699500Y-99421153D01*
X117692024Y-99421153D01*
X117698047Y-99390875D01*
X117698047Y-99390873D01*
X117700500Y-99378541D01*
X117700500Y-99181456D01*
X117662052Y-98988170D01*
X117662051Y-98988169D01*
X117662051Y-98988165D01*
X117616507Y-98878210D01*
X117586635Y-98806092D01*
X117586628Y-98806079D01*
X117477139Y-98642218D01*
X117477136Y-98642214D01*
X117337785Y-98502863D01*
X117337781Y-98502860D01*
X117173920Y-98393371D01*
X117173907Y-98393364D01*
X116991839Y-98317950D01*
X116991829Y-98317947D01*
X116798543Y-98279500D01*
X116798541Y-98279500D01*
X115601459Y-98279500D01*
X115601457Y-98279500D01*
X115408170Y-98317947D01*
X115408160Y-98317950D01*
X115226092Y-98393364D01*
X115226079Y-98393371D01*
X115062218Y-98502860D01*
X115062214Y-98502863D01*
X114922863Y-98642214D01*
X114922860Y-98642218D01*
X114813371Y-98806079D01*
X114813364Y-98806092D01*
X114737950Y-98988160D01*
X114737947Y-98988170D01*
X114699500Y-99181456D01*
X114699500Y-99181459D01*
X114699500Y-99378541D01*
X114699500Y-99378543D01*
X114699499Y-99378543D01*
X97980500Y-99378543D01*
X97980500Y-99181456D01*
X97942052Y-98988170D01*
X97942051Y-98988169D01*
X97942051Y-98988165D01*
X97896507Y-98878210D01*
X97866635Y-98806092D01*
X97866628Y-98806079D01*
X97757139Y-98642218D01*
X97757136Y-98642214D01*
X97617785Y-98502863D01*
X97617781Y-98502860D01*
X97453920Y-98393371D01*
X97453907Y-98393364D01*
X97271839Y-98317950D01*
X97271829Y-98317947D01*
X97078543Y-98279500D01*
X97078541Y-98279500D01*
X95881459Y-98279500D01*
X95881457Y-98279500D01*
X95688170Y-98317947D01*
X95688160Y-98317950D01*
X95506092Y-98393364D01*
X95506079Y-98393371D01*
X95342218Y-98502860D01*
X95342214Y-98502863D01*
X95202863Y-98642214D01*
X95202860Y-98642218D01*
X95093371Y-98806079D01*
X95093364Y-98806092D01*
X95017950Y-98988160D01*
X95017947Y-98988170D01*
X94979500Y-99181456D01*
X94979500Y-99181459D01*
X94979500Y-99378541D01*
X94979500Y-99378543D01*
X94979499Y-99378543D01*
X89500500Y-99378543D01*
X89500500Y-96838543D01*
X94979499Y-96838543D01*
X95017947Y-97031829D01*
X95017950Y-97031839D01*
X95093364Y-97213907D01*
X95093371Y-97213920D01*
X95202860Y-97377781D01*
X95202863Y-97377785D01*
X95342214Y-97517136D01*
X95342218Y-97517139D01*
X95506079Y-97626628D01*
X95506092Y-97626635D01*
X95688160Y-97702049D01*
X95688165Y-97702051D01*
X95688169Y-97702051D01*
X95688170Y-97702052D01*
X95881456Y-97740500D01*
X95881459Y-97740500D01*
X97078543Y-97740500D01*
X97208582Y-97714632D01*
X97271835Y-97702051D01*
X97453914Y-97626632D01*
X97617782Y-97517139D01*
X97757139Y-97377782D01*
X97866632Y-97213914D01*
X97942051Y-97031835D01*
X97980500Y-96838543D01*
X114699499Y-96838543D01*
X114737947Y-97031829D01*
X114737950Y-97031839D01*
X114813364Y-97213907D01*
X114813371Y-97213920D01*
X114922860Y-97377781D01*
X114922863Y-97377785D01*
X115062214Y-97517136D01*
X115062218Y-97517139D01*
X115226079Y-97626628D01*
X115226092Y-97626635D01*
X115408160Y-97702049D01*
X115408165Y-97702051D01*
X115408169Y-97702051D01*
X115408170Y-97702052D01*
X115601456Y-97740500D01*
X115601459Y-97740500D01*
X116798543Y-97740500D01*
X116928582Y-97714632D01*
X116991835Y-97702051D01*
X117173914Y-97626632D01*
X117337782Y-97517139D01*
X117477139Y-97377782D01*
X117586632Y-97213914D01*
X117662051Y-97031835D01*
X117700500Y-96838541D01*
X117700500Y-96641459D01*
X117700500Y-96641456D01*
X117662052Y-96448170D01*
X117662051Y-96448169D01*
X117662051Y-96448165D01*
X117662049Y-96448160D01*
X117586635Y-96266092D01*
X117586628Y-96266079D01*
X117477139Y-96102218D01*
X117477136Y-96102214D01*
X117337785Y-95962863D01*
X117337781Y-95962860D01*
X117173920Y-95853371D01*
X117173907Y-95853364D01*
X116991839Y-95777950D01*
X116991829Y-95777947D01*
X116798543Y-95739500D01*
X116798541Y-95739500D01*
X115601459Y-95739500D01*
X115601457Y-95739500D01*
X115408170Y-95777947D01*
X115408160Y-95777950D01*
X115226092Y-95853364D01*
X115226079Y-95853371D01*
X115062218Y-95962860D01*
X115062214Y-95962863D01*
X114922863Y-96102214D01*
X114922860Y-96102218D01*
X114813371Y-96266079D01*
X114813364Y-96266092D01*
X114737950Y-96448160D01*
X114737947Y-96448170D01*
X114699500Y-96641456D01*
X114699500Y-96641459D01*
X114699500Y-96838541D01*
X114699500Y-96838543D01*
X114699499Y-96838543D01*
X97980500Y-96838543D01*
X97980500Y-96838541D01*
X97980500Y-96641459D01*
X97980500Y-96641456D01*
X97942052Y-96448170D01*
X97942051Y-96448169D01*
X97942051Y-96448165D01*
X97942049Y-96448160D01*
X97866635Y-96266092D01*
X97866628Y-96266079D01*
X97757139Y-96102218D01*
X97757136Y-96102214D01*
X97617785Y-95962863D01*
X97617781Y-95962860D01*
X97453920Y-95853371D01*
X97453907Y-95853364D01*
X97271839Y-95777950D01*
X97271829Y-95777947D01*
X97078543Y-95739500D01*
X97078541Y-95739500D01*
X95881459Y-95739500D01*
X95881457Y-95739500D01*
X95688170Y-95777947D01*
X95688160Y-95777950D01*
X95506092Y-95853364D01*
X95506079Y-95853371D01*
X95342218Y-95962860D01*
X95342214Y-95962863D01*
X95202863Y-96102214D01*
X95202860Y-96102218D01*
X95093371Y-96266079D01*
X95093364Y-96266092D01*
X95017950Y-96448160D01*
X95017947Y-96448170D01*
X94979500Y-96641456D01*
X94979500Y-96641459D01*
X94979500Y-96838541D01*
X94979500Y-96838543D01*
X94979499Y-96838543D01*
X89500500Y-96838543D01*
X89500500Y-94298543D01*
X94979499Y-94298543D01*
X95017947Y-94491829D01*
X95017950Y-94491839D01*
X95093364Y-94673907D01*
X95093371Y-94673920D01*
X95202860Y-94837781D01*
X95202863Y-94837785D01*
X95342214Y-94977136D01*
X95342218Y-94977139D01*
X95506079Y-95086628D01*
X95506092Y-95086635D01*
X95688160Y-95162049D01*
X95688165Y-95162051D01*
X95688169Y-95162051D01*
X95688170Y-95162052D01*
X95881456Y-95200500D01*
X95881459Y-95200500D01*
X97078543Y-95200500D01*
X97208582Y-95174632D01*
X97271835Y-95162051D01*
X97453914Y-95086632D01*
X97617782Y-94977139D01*
X97757139Y-94837782D01*
X97866632Y-94673914D01*
X97942051Y-94491835D01*
X97980500Y-94298543D01*
X114699499Y-94298543D01*
X114737947Y-94491829D01*
X114737950Y-94491839D01*
X114813364Y-94673907D01*
X114813371Y-94673920D01*
X114922860Y-94837781D01*
X114922863Y-94837785D01*
X115062214Y-94977136D01*
X115062218Y-94977139D01*
X115226079Y-95086628D01*
X115226092Y-95086635D01*
X115408160Y-95162049D01*
X115408165Y-95162051D01*
X115408169Y-95162051D01*
X115408170Y-95162052D01*
X115601456Y-95200500D01*
X115601459Y-95200500D01*
X116798543Y-95200500D01*
X116928582Y-95174632D01*
X116991835Y-95162051D01*
X117173914Y-95086632D01*
X117337782Y-94977139D01*
X117477139Y-94837782D01*
X117586632Y-94673914D01*
X117662051Y-94491835D01*
X117700500Y-94298541D01*
X117700500Y-94101459D01*
X117700500Y-94101456D01*
X117662052Y-93908170D01*
X117662051Y-93908169D01*
X117662051Y-93908165D01*
X117662049Y-93908160D01*
X117586635Y-93726092D01*
X117586628Y-93726079D01*
X117477139Y-93562218D01*
X117477136Y-93562214D01*
X117337785Y-93422863D01*
X117337781Y-93422860D01*
X117173920Y-93313371D01*
X117173907Y-93313364D01*
X116991839Y-93237950D01*
X116991829Y-93237947D01*
X116798543Y-93199500D01*
X116798541Y-93199500D01*
X115601459Y-93199500D01*
X115601457Y-93199500D01*
X115408170Y-93237947D01*
X115408160Y-93237950D01*
X115226092Y-93313364D01*
X115226079Y-93313371D01*
X115062218Y-93422860D01*
X115062214Y-93422863D01*
X114922863Y-93562214D01*
X114922860Y-93562218D01*
X114813371Y-93726079D01*
X114813364Y-93726092D01*
X114737950Y-93908160D01*
X114737947Y-93908170D01*
X114699500Y-94101456D01*
X114699500Y-94101459D01*
X114699500Y-94298541D01*
X114699500Y-94298543D01*
X114699499Y-94298543D01*
X97980500Y-94298543D01*
X97980500Y-94298541D01*
X97980500Y-94101459D01*
X97980500Y-94101456D01*
X97942052Y-93908170D01*
X97942051Y-93908169D01*
X97942051Y-93908165D01*
X97942049Y-93908160D01*
X97866635Y-93726092D01*
X97866628Y-93726079D01*
X97757139Y-93562218D01*
X97757136Y-93562214D01*
X97617785Y-93422863D01*
X97617781Y-93422860D01*
X97453920Y-93313371D01*
X97453907Y-93313364D01*
X97271839Y-93237950D01*
X97271829Y-93237947D01*
X97078543Y-93199500D01*
X97078541Y-93199500D01*
X95881459Y-93199500D01*
X95881457Y-93199500D01*
X95688170Y-93237947D01*
X95688160Y-93237950D01*
X95506092Y-93313364D01*
X95506079Y-93313371D01*
X95342218Y-93422860D01*
X95342214Y-93422863D01*
X95202863Y-93562214D01*
X95202860Y-93562218D01*
X95093371Y-93726079D01*
X95093364Y-93726092D01*
X95017950Y-93908160D01*
X95017947Y-93908170D01*
X94979500Y-94101456D01*
X94979500Y-94101459D01*
X94979500Y-94298541D01*
X94979500Y-94298543D01*
X94979499Y-94298543D01*
X89500500Y-94298543D01*
X89500500Y-91758543D01*
X94979499Y-91758543D01*
X95017947Y-91951829D01*
X95017950Y-91951839D01*
X95093364Y-92133907D01*
X95093371Y-92133920D01*
X95202860Y-92297781D01*
X95202863Y-92297785D01*
X95342214Y-92437136D01*
X95342218Y-92437139D01*
X95506079Y-92546628D01*
X95506092Y-92546635D01*
X95688160Y-92622049D01*
X95688165Y-92622051D01*
X95688169Y-92622051D01*
X95688170Y-92622052D01*
X95881456Y-92660500D01*
X95881459Y-92660500D01*
X97078543Y-92660500D01*
X97208582Y-92634632D01*
X97271835Y-92622051D01*
X97453914Y-92546632D01*
X97617782Y-92437139D01*
X97757139Y-92297782D01*
X97866632Y-92133914D01*
X97942051Y-91951835D01*
X97980500Y-91758543D01*
X114699499Y-91758543D01*
X114737947Y-91951829D01*
X114737950Y-91951839D01*
X114813364Y-92133907D01*
X114813371Y-92133920D01*
X114922860Y-92297781D01*
X114922863Y-92297785D01*
X115062214Y-92437136D01*
X115062218Y-92437139D01*
X115226079Y-92546628D01*
X115226092Y-92546635D01*
X115408160Y-92622049D01*
X115408165Y-92622051D01*
X115408169Y-92622051D01*
X115408170Y-92622052D01*
X115601456Y-92660500D01*
X115601459Y-92660500D01*
X116798543Y-92660500D01*
X116928582Y-92634632D01*
X116991835Y-92622051D01*
X117173914Y-92546632D01*
X117337782Y-92437139D01*
X117477139Y-92297782D01*
X117586632Y-92133914D01*
X117662051Y-91951835D01*
X117700500Y-91758541D01*
X117700500Y-91561459D01*
X117700500Y-91561456D01*
X117662052Y-91368170D01*
X117662051Y-91368169D01*
X117662051Y-91368165D01*
X117662049Y-91368160D01*
X117586635Y-91186092D01*
X117586628Y-91186079D01*
X117477139Y-91022218D01*
X117477136Y-91022214D01*
X117337785Y-90882863D01*
X117337781Y-90882860D01*
X117173920Y-90773371D01*
X117173907Y-90773364D01*
X116991839Y-90697950D01*
X116991829Y-90697947D01*
X116798543Y-90659500D01*
X116798541Y-90659500D01*
X115601459Y-90659500D01*
X115601457Y-90659500D01*
X115408170Y-90697947D01*
X115408160Y-90697950D01*
X115226092Y-90773364D01*
X115226079Y-90773371D01*
X115062218Y-90882860D01*
X115062214Y-90882863D01*
X114922863Y-91022214D01*
X114922860Y-91022218D01*
X114813371Y-91186079D01*
X114813364Y-91186092D01*
X114737950Y-91368160D01*
X114737947Y-91368170D01*
X114699500Y-91561456D01*
X114699500Y-91561459D01*
X114699500Y-91758541D01*
X114699500Y-91758543D01*
X114699499Y-91758543D01*
X97980500Y-91758543D01*
X97980500Y-91758541D01*
X97980500Y-91561459D01*
X97980500Y-91561456D01*
X97942052Y-91368170D01*
X97942051Y-91368169D01*
X97942051Y-91368165D01*
X97942049Y-91368160D01*
X97866635Y-91186092D01*
X97866628Y-91186079D01*
X97757139Y-91022218D01*
X97757136Y-91022214D01*
X97617785Y-90882863D01*
X97617781Y-90882860D01*
X97453920Y-90773371D01*
X97453907Y-90773364D01*
X97271839Y-90697950D01*
X97271829Y-90697947D01*
X97078543Y-90659500D01*
X97078541Y-90659500D01*
X95881459Y-90659500D01*
X95881457Y-90659500D01*
X95688170Y-90697947D01*
X95688160Y-90697950D01*
X95506092Y-90773364D01*
X95506079Y-90773371D01*
X95342218Y-90882860D01*
X95342214Y-90882863D01*
X95202863Y-91022214D01*
X95202860Y-91022218D01*
X95093371Y-91186079D01*
X95093364Y-91186092D01*
X95017950Y-91368160D01*
X95017947Y-91368170D01*
X94979500Y-91561456D01*
X94979500Y-91561459D01*
X94979500Y-91758541D01*
X94979500Y-91758543D01*
X94979499Y-91758543D01*
X89500500Y-91758543D01*
X89500500Y-89218543D01*
X94979499Y-89218543D01*
X95017947Y-89411829D01*
X95017950Y-89411839D01*
X95093364Y-89593907D01*
X95093371Y-89593920D01*
X95202860Y-89757781D01*
X95202863Y-89757785D01*
X95342214Y-89897136D01*
X95342218Y-89897139D01*
X95506079Y-90006628D01*
X95506092Y-90006635D01*
X95688160Y-90082049D01*
X95688165Y-90082051D01*
X95688169Y-90082051D01*
X95688170Y-90082052D01*
X95881456Y-90120500D01*
X95881459Y-90120500D01*
X97078543Y-90120500D01*
X97208582Y-90094632D01*
X97271835Y-90082051D01*
X97453914Y-90006632D01*
X97617782Y-89897139D01*
X97757139Y-89757782D01*
X97866632Y-89593914D01*
X97942051Y-89411835D01*
X97980500Y-89218543D01*
X114699499Y-89218543D01*
X114737947Y-89411829D01*
X114737950Y-89411839D01*
X114813364Y-89593907D01*
X114813371Y-89593920D01*
X114922860Y-89757781D01*
X114922863Y-89757785D01*
X115062214Y-89897136D01*
X115062218Y-89897139D01*
X115226079Y-90006628D01*
X115226092Y-90006635D01*
X115408160Y-90082049D01*
X115408165Y-90082051D01*
X115408169Y-90082051D01*
X115408170Y-90082052D01*
X115601456Y-90120500D01*
X115601459Y-90120500D01*
X116798543Y-90120500D01*
X116928582Y-90094632D01*
X116991835Y-90082051D01*
X117173914Y-90006632D01*
X117337782Y-89897139D01*
X117477139Y-89757782D01*
X117586632Y-89593914D01*
X117662051Y-89411835D01*
X117700500Y-89218541D01*
X117700500Y-89021459D01*
X117700500Y-89021456D01*
X117662052Y-88828170D01*
X117662051Y-88828169D01*
X117662051Y-88828165D01*
X117662049Y-88828160D01*
X117586635Y-88646092D01*
X117586628Y-88646079D01*
X117477139Y-88482218D01*
X117477136Y-88482214D01*
X117337785Y-88342863D01*
X117337781Y-88342860D01*
X117173920Y-88233371D01*
X117173907Y-88233364D01*
X116991839Y-88157950D01*
X116991829Y-88157947D01*
X116798543Y-88119500D01*
X116798541Y-88119500D01*
X115601459Y-88119500D01*
X115601457Y-88119500D01*
X115408170Y-88157947D01*
X115408160Y-88157950D01*
X115226092Y-88233364D01*
X115226079Y-88233371D01*
X115062218Y-88342860D01*
X115062214Y-88342863D01*
X114922863Y-88482214D01*
X114922860Y-88482218D01*
X114813371Y-88646079D01*
X114813364Y-88646092D01*
X114737950Y-88828160D01*
X114737947Y-88828170D01*
X114699500Y-89021456D01*
X114699500Y-89021459D01*
X114699500Y-89218541D01*
X114699500Y-89218543D01*
X114699499Y-89218543D01*
X97980500Y-89218543D01*
X97980500Y-89218541D01*
X97980500Y-89021459D01*
X97980500Y-89021456D01*
X97942052Y-88828170D01*
X97942051Y-88828169D01*
X97942051Y-88828165D01*
X97942049Y-88828160D01*
X97866635Y-88646092D01*
X97866628Y-88646079D01*
X97757139Y-88482218D01*
X97757136Y-88482214D01*
X97617785Y-88342863D01*
X97617781Y-88342860D01*
X97453920Y-88233371D01*
X97453907Y-88233364D01*
X97271839Y-88157950D01*
X97271829Y-88157947D01*
X97078543Y-88119500D01*
X97078541Y-88119500D01*
X95881459Y-88119500D01*
X95881457Y-88119500D01*
X95688170Y-88157947D01*
X95688160Y-88157950D01*
X95506092Y-88233364D01*
X95506079Y-88233371D01*
X95342218Y-88342860D01*
X95342214Y-88342863D01*
X95202863Y-88482214D01*
X95202860Y-88482218D01*
X95093371Y-88646079D01*
X95093364Y-88646092D01*
X95017950Y-88828160D01*
X95017947Y-88828170D01*
X94979500Y-89021456D01*
X94979500Y-89021459D01*
X94979500Y-89218541D01*
X94979500Y-89218543D01*
X94979499Y-89218543D01*
X89500500Y-89218543D01*
X89500500Y-86678543D01*
X94979499Y-86678543D01*
X95017947Y-86871829D01*
X95017950Y-86871839D01*
X95093364Y-87053907D01*
X95093371Y-87053920D01*
X95202860Y-87217781D01*
X95202863Y-87217785D01*
X95342214Y-87357136D01*
X95342218Y-87357139D01*
X95506079Y-87466628D01*
X95506092Y-87466635D01*
X95688160Y-87542049D01*
X95688165Y-87542051D01*
X95688169Y-87542051D01*
X95688170Y-87542052D01*
X95881456Y-87580500D01*
X95881459Y-87580500D01*
X97078543Y-87580500D01*
X97208582Y-87554632D01*
X97271835Y-87542051D01*
X97453914Y-87466632D01*
X97617782Y-87357139D01*
X97757139Y-87217782D01*
X97866632Y-87053914D01*
X97942051Y-86871835D01*
X97980500Y-86678543D01*
X114699499Y-86678543D01*
X114737947Y-86871829D01*
X114737950Y-86871839D01*
X114813364Y-87053907D01*
X114813371Y-87053920D01*
X114922860Y-87217781D01*
X114922863Y-87217785D01*
X115062214Y-87357136D01*
X115062218Y-87357139D01*
X115226079Y-87466628D01*
X115226092Y-87466635D01*
X115408160Y-87542049D01*
X115408165Y-87542051D01*
X115408169Y-87542051D01*
X115408170Y-87542052D01*
X115601456Y-87580500D01*
X115601459Y-87580500D01*
X116798543Y-87580500D01*
X116928582Y-87554632D01*
X116991835Y-87542051D01*
X117173914Y-87466632D01*
X117337782Y-87357139D01*
X117477139Y-87217782D01*
X117586632Y-87053914D01*
X117662051Y-86871835D01*
X117700500Y-86678541D01*
X117700500Y-86481459D01*
X117700500Y-86481456D01*
X117662052Y-86288170D01*
X117662051Y-86288169D01*
X117662051Y-86288165D01*
X117662049Y-86288160D01*
X117586635Y-86106092D01*
X117586628Y-86106079D01*
X117477139Y-85942218D01*
X117477136Y-85942214D01*
X117337785Y-85802863D01*
X117337781Y-85802860D01*
X117173920Y-85693371D01*
X117173907Y-85693364D01*
X116991839Y-85617950D01*
X116991829Y-85617947D01*
X116798543Y-85579500D01*
X116798541Y-85579500D01*
X115601459Y-85579500D01*
X115601457Y-85579500D01*
X115408170Y-85617947D01*
X115408160Y-85617950D01*
X115226092Y-85693364D01*
X115226079Y-85693371D01*
X115062218Y-85802860D01*
X115062214Y-85802863D01*
X114922863Y-85942214D01*
X114922860Y-85942218D01*
X114813371Y-86106079D01*
X114813364Y-86106092D01*
X114737950Y-86288160D01*
X114737947Y-86288170D01*
X114699500Y-86481456D01*
X114699500Y-86481459D01*
X114699500Y-86678541D01*
X114699500Y-86678543D01*
X114699499Y-86678543D01*
X97980500Y-86678543D01*
X97980500Y-86678541D01*
X97980500Y-86481459D01*
X97980500Y-86481456D01*
X97942052Y-86288170D01*
X97942051Y-86288169D01*
X97942051Y-86288165D01*
X97942049Y-86288160D01*
X97866635Y-86106092D01*
X97866628Y-86106079D01*
X97757139Y-85942218D01*
X97757136Y-85942214D01*
X97617785Y-85802863D01*
X97617781Y-85802860D01*
X97453920Y-85693371D01*
X97453907Y-85693364D01*
X97271839Y-85617950D01*
X97271829Y-85617947D01*
X97078543Y-85579500D01*
X97078541Y-85579500D01*
X95881459Y-85579500D01*
X95881457Y-85579500D01*
X95688170Y-85617947D01*
X95688160Y-85617950D01*
X95506092Y-85693364D01*
X95506079Y-85693371D01*
X95342218Y-85802860D01*
X95342214Y-85802863D01*
X95202863Y-85942214D01*
X95202860Y-85942218D01*
X95093371Y-86106079D01*
X95093364Y-86106092D01*
X95017950Y-86288160D01*
X95017947Y-86288170D01*
X94979500Y-86481456D01*
X94979500Y-86481459D01*
X94979500Y-86678541D01*
X94979500Y-86678543D01*
X94979499Y-86678543D01*
X89500500Y-86678543D01*
X89500500Y-84138543D01*
X94979499Y-84138543D01*
X95017947Y-84331829D01*
X95017950Y-84331839D01*
X95093364Y-84513907D01*
X95093371Y-84513920D01*
X95202860Y-84677781D01*
X95202863Y-84677785D01*
X95342214Y-84817136D01*
X95342218Y-84817139D01*
X95506079Y-84926628D01*
X95506092Y-84926635D01*
X95688160Y-85002049D01*
X95688165Y-85002051D01*
X95688169Y-85002051D01*
X95688170Y-85002052D01*
X95881456Y-85040500D01*
X95881459Y-85040500D01*
X97078543Y-85040500D01*
X97208582Y-85014632D01*
X97271835Y-85002051D01*
X97453914Y-84926632D01*
X97617782Y-84817139D01*
X97757139Y-84677782D01*
X97866632Y-84513914D01*
X97942051Y-84331835D01*
X97980500Y-84138543D01*
X114699499Y-84138543D01*
X114737947Y-84331829D01*
X114737950Y-84331839D01*
X114813364Y-84513907D01*
X114813371Y-84513920D01*
X114922860Y-84677781D01*
X114922863Y-84677785D01*
X115062214Y-84817136D01*
X115062218Y-84817139D01*
X115226079Y-84926628D01*
X115226092Y-84926635D01*
X115408160Y-85002049D01*
X115408165Y-85002051D01*
X115408169Y-85002051D01*
X115408170Y-85002052D01*
X115601456Y-85040500D01*
X115601459Y-85040500D01*
X116798543Y-85040500D01*
X116928582Y-85014632D01*
X116991835Y-85002051D01*
X117173914Y-84926632D01*
X117337782Y-84817139D01*
X117477139Y-84677782D01*
X117586632Y-84513914D01*
X117662051Y-84331835D01*
X117700500Y-84138541D01*
X117700500Y-83941459D01*
X117700500Y-83941456D01*
X117662052Y-83748170D01*
X117662051Y-83748169D01*
X117662051Y-83748165D01*
X117662049Y-83748160D01*
X117586635Y-83566092D01*
X117586628Y-83566079D01*
X117477139Y-83402218D01*
X117477136Y-83402214D01*
X117337785Y-83262863D01*
X117337781Y-83262860D01*
X117173920Y-83153371D01*
X117173907Y-83153364D01*
X116991839Y-83077950D01*
X116991829Y-83077947D01*
X116798543Y-83039500D01*
X116798541Y-83039500D01*
X115601459Y-83039500D01*
X115601457Y-83039500D01*
X115408170Y-83077947D01*
X115408160Y-83077950D01*
X115226092Y-83153364D01*
X115226079Y-83153371D01*
X115062218Y-83262860D01*
X115062214Y-83262863D01*
X114922863Y-83402214D01*
X114922860Y-83402218D01*
X114813371Y-83566079D01*
X114813364Y-83566092D01*
X114737950Y-83748160D01*
X114737947Y-83748170D01*
X114699500Y-83941456D01*
X114699500Y-83941459D01*
X114699500Y-84138541D01*
X114699500Y-84138543D01*
X114699499Y-84138543D01*
X97980500Y-84138543D01*
X97980500Y-84138541D01*
X97980500Y-83941459D01*
X97980500Y-83941456D01*
X97942052Y-83748170D01*
X97942051Y-83748169D01*
X97942051Y-83748165D01*
X97942049Y-83748160D01*
X97866635Y-83566092D01*
X97866628Y-83566079D01*
X97757139Y-83402218D01*
X97757136Y-83402214D01*
X97617785Y-83262863D01*
X97617781Y-83262860D01*
X97453920Y-83153371D01*
X97453907Y-83153364D01*
X97271839Y-83077950D01*
X97271829Y-83077947D01*
X97078543Y-83039500D01*
X97078541Y-83039500D01*
X95881459Y-83039500D01*
X95881457Y-83039500D01*
X95688170Y-83077947D01*
X95688160Y-83077950D01*
X95506092Y-83153364D01*
X95506079Y-83153371D01*
X95342218Y-83262860D01*
X95342214Y-83262863D01*
X95202863Y-83402214D01*
X95202860Y-83402218D01*
X95093371Y-83566079D01*
X95093364Y-83566092D01*
X95017950Y-83748160D01*
X95017947Y-83748170D01*
X94979500Y-83941456D01*
X94979500Y-83941459D01*
X94979500Y-84138541D01*
X94979500Y-84138543D01*
X94979499Y-84138543D01*
X89500500Y-84138543D01*
X89500500Y-78710000D01*
X94703391Y-78710000D01*
X95746988Y-78710000D01*
X95714075Y-78767007D01*
X95680000Y-78894174D01*
X95680000Y-79025826D01*
X95714075Y-79152993D01*
X95746988Y-79210000D01*
X94703391Y-79210000D01*
X94712009Y-79264413D01*
X94775244Y-79459029D01*
X94868140Y-79641349D01*
X94988417Y-79806894D01*
X94988417Y-79806895D01*
X95133104Y-79951582D01*
X95298650Y-80071859D01*
X95480968Y-80164755D01*
X95675582Y-80227990D01*
X95864268Y-80257875D01*
X95927403Y-80287804D01*
X95964334Y-80347116D01*
X95963336Y-80416978D01*
X95924726Y-80475211D01*
X95869062Y-80501965D01*
X95688170Y-80537947D01*
X95688160Y-80537950D01*
X95506092Y-80613364D01*
X95506079Y-80613371D01*
X95342218Y-80722860D01*
X95342214Y-80722863D01*
X95202863Y-80862214D01*
X95202860Y-80862218D01*
X95093371Y-81026079D01*
X95093364Y-81026092D01*
X95017950Y-81208160D01*
X95017947Y-81208170D01*
X94979500Y-81401456D01*
X94979500Y-81401459D01*
X94979500Y-81598541D01*
X94979500Y-81598543D01*
X94979499Y-81598543D01*
X95017947Y-81791829D01*
X95017950Y-81791839D01*
X95093364Y-81973907D01*
X95093371Y-81973920D01*
X95202860Y-82137781D01*
X95202863Y-82137785D01*
X95342214Y-82277136D01*
X95342218Y-82277139D01*
X95506079Y-82386628D01*
X95506092Y-82386635D01*
X95688160Y-82462049D01*
X95688165Y-82462051D01*
X95688169Y-82462051D01*
X95688170Y-82462052D01*
X95881456Y-82500500D01*
X95881459Y-82500500D01*
X97078543Y-82500500D01*
X97208582Y-82474632D01*
X97271835Y-82462051D01*
X97453914Y-82386632D01*
X97617782Y-82277139D01*
X97757139Y-82137782D01*
X97866632Y-81973914D01*
X97942051Y-81791835D01*
X97954632Y-81728582D01*
X97980500Y-81598543D01*
X114699499Y-81598543D01*
X114737947Y-81791829D01*
X114737950Y-81791839D01*
X114813364Y-81973907D01*
X114813371Y-81973920D01*
X114922860Y-82137781D01*
X114922863Y-82137785D01*
X115062214Y-82277136D01*
X115062218Y-82277139D01*
X115226079Y-82386628D01*
X115226092Y-82386635D01*
X115408160Y-82462049D01*
X115408165Y-82462051D01*
X115408169Y-82462051D01*
X115408170Y-82462052D01*
X115601456Y-82500500D01*
X115601459Y-82500500D01*
X116798543Y-82500500D01*
X116928582Y-82474632D01*
X116991835Y-82462051D01*
X117173914Y-82386632D01*
X117337782Y-82277139D01*
X117477139Y-82137782D01*
X117586632Y-81973914D01*
X117662051Y-81791835D01*
X117674632Y-81728582D01*
X117700500Y-81598543D01*
X117700500Y-81401456D01*
X117662052Y-81208170D01*
X117662051Y-81208169D01*
X117662051Y-81208165D01*
X117640051Y-81155051D01*
X117586635Y-81026092D01*
X117586628Y-81026079D01*
X117477139Y-80862218D01*
X117477136Y-80862214D01*
X117337785Y-80722863D01*
X117337781Y-80722860D01*
X117173920Y-80613371D01*
X117173907Y-80613364D01*
X116991839Y-80537950D01*
X116991829Y-80537947D01*
X116798543Y-80499500D01*
X116798541Y-80499500D01*
X115601459Y-80499500D01*
X115601457Y-80499500D01*
X115408170Y-80537947D01*
X115408160Y-80537950D01*
X115226092Y-80613364D01*
X115226079Y-80613371D01*
X115062218Y-80722860D01*
X115062214Y-80722863D01*
X114922863Y-80862214D01*
X114922860Y-80862218D01*
X114813371Y-81026079D01*
X114813364Y-81026092D01*
X114737950Y-81208160D01*
X114737947Y-81208170D01*
X114699500Y-81401456D01*
X114699500Y-81401459D01*
X114699500Y-81598541D01*
X114699500Y-81598543D01*
X114699499Y-81598543D01*
X97980500Y-81598543D01*
X97980500Y-81401456D01*
X97942052Y-81208170D01*
X97942051Y-81208169D01*
X97942051Y-81208165D01*
X97920051Y-81155051D01*
X97866635Y-81026092D01*
X97866628Y-81026079D01*
X97757139Y-80862218D01*
X97757136Y-80862214D01*
X97617785Y-80722863D01*
X97617781Y-80722860D01*
X97453920Y-80613371D01*
X97453907Y-80613364D01*
X97271839Y-80537950D01*
X97271829Y-80537947D01*
X97090937Y-80501965D01*
X97029026Y-80469580D01*
X96994452Y-80408864D01*
X96998192Y-80339095D01*
X97039059Y-80282423D01*
X97095731Y-80257875D01*
X97284417Y-80227990D01*
X97479031Y-80164755D01*
X97661349Y-80071859D01*
X97826894Y-79951582D01*
X97826895Y-79951582D01*
X97904439Y-79874038D01*
X127943500Y-79874038D01*
X127943500Y-80125962D01*
X127972175Y-80307007D01*
X127982910Y-80374785D01*
X128060760Y-80614383D01*
X128175132Y-80838848D01*
X128323201Y-81042649D01*
X128323205Y-81042654D01*
X128501345Y-81220794D01*
X128501350Y-81220798D01*
X128633427Y-81316757D01*
X128705155Y-81368870D01*
X128848184Y-81441747D01*
X128929616Y-81483239D01*
X128929618Y-81483239D01*
X128929621Y-81483241D01*
X129169215Y-81561090D01*
X129418038Y-81600500D01*
X129418039Y-81600500D01*
X129669961Y-81600500D01*
X129669962Y-81600500D01*
X129918785Y-81561090D01*
X130158379Y-81483241D01*
X130382845Y-81368870D01*
X130586656Y-81220793D01*
X130764793Y-81042656D01*
X130912870Y-80838845D01*
X131027241Y-80614379D01*
X131105090Y-80374785D01*
X131144500Y-80125962D01*
X131144500Y-79893713D01*
X133781500Y-79893713D01*
X133781500Y-80106286D01*
X133810249Y-80287804D01*
X133814754Y-80316243D01*
X133864576Y-80469580D01*
X133880444Y-80518414D01*
X133976951Y-80707820D01*
X134101890Y-80879786D01*
X134252213Y-81030109D01*
X134424179Y-81155048D01*
X134424181Y-81155049D01*
X134424184Y-81155051D01*
X134613588Y-81251557D01*
X134815757Y-81317246D01*
X135025713Y-81350500D01*
X135025714Y-81350500D01*
X135238286Y-81350500D01*
X135238287Y-81350500D01*
X135448243Y-81317246D01*
X135650412Y-81251557D01*
X135839816Y-81155051D01*
X135926138Y-81092335D01*
X136011786Y-81030109D01*
X136011788Y-81030106D01*
X136011792Y-81030104D01*
X136162104Y-80879792D01*
X136162106Y-80879788D01*
X136162109Y-80879786D01*
X136287048Y-80707820D01*
X136287047Y-80707820D01*
X136287051Y-80707816D01*
X136291514Y-80699054D01*
X136339488Y-80648259D01*
X136407308Y-80631463D01*
X136473444Y-80653999D01*
X136512486Y-80699056D01*
X136516951Y-80707820D01*
X136641890Y-80879786D01*
X136792213Y-81030109D01*
X136964179Y-81155048D01*
X136964181Y-81155049D01*
X136964184Y-81155051D01*
X137153588Y-81251557D01*
X137355757Y-81317246D01*
X137565713Y-81350500D01*
X137565714Y-81350500D01*
X137778286Y-81350500D01*
X137778287Y-81350500D01*
X137988243Y-81317246D01*
X138190412Y-81251557D01*
X138379816Y-81155051D01*
X138466138Y-81092335D01*
X138551786Y-81030109D01*
X138551788Y-81030106D01*
X138551792Y-81030104D01*
X138702104Y-80879792D01*
X138702106Y-80879788D01*
X138702109Y-80879786D01*
X138827048Y-80707820D01*
X138827047Y-80707820D01*
X138827051Y-80707816D01*
X138831514Y-80699054D01*
X138879488Y-80648259D01*
X138947308Y-80631463D01*
X139013444Y-80653999D01*
X139052486Y-80699056D01*
X139056951Y-80707820D01*
X139181890Y-80879786D01*
X139332213Y-81030109D01*
X139504179Y-81155048D01*
X139504181Y-81155049D01*
X139504184Y-81155051D01*
X139693588Y-81251557D01*
X139895757Y-81317246D01*
X140105713Y-81350500D01*
X140105714Y-81350500D01*
X140318286Y-81350500D01*
X140318287Y-81350500D01*
X140528243Y-81317246D01*
X140730412Y-81251557D01*
X140919816Y-81155051D01*
X141006138Y-81092335D01*
X141091786Y-81030109D01*
X141091788Y-81030106D01*
X141091792Y-81030104D01*
X141242104Y-80879792D01*
X141242106Y-80879788D01*
X141242109Y-80879786D01*
X141367048Y-80707820D01*
X141367047Y-80707820D01*
X141367051Y-80707816D01*
X141371514Y-80699054D01*
X141419488Y-80648259D01*
X141487308Y-80631463D01*
X141553444Y-80653999D01*
X141592486Y-80699056D01*
X141596951Y-80707820D01*
X141721890Y-80879786D01*
X141872213Y-81030109D01*
X142044179Y-81155048D01*
X142044181Y-81155049D01*
X142044184Y-81155051D01*
X142233588Y-81251557D01*
X142435757Y-81317246D01*
X142645713Y-81350500D01*
X142645714Y-81350500D01*
X142858286Y-81350500D01*
X142858287Y-81350500D01*
X143068243Y-81317246D01*
X143270412Y-81251557D01*
X143459816Y-81155051D01*
X143546138Y-81092335D01*
X143631786Y-81030109D01*
X143631788Y-81030106D01*
X143631792Y-81030104D01*
X143782104Y-80879792D01*
X143782106Y-80879788D01*
X143782109Y-80879786D01*
X143907048Y-80707820D01*
X143907047Y-80707820D01*
X143907051Y-80707816D01*
X143911514Y-80699054D01*
X143959488Y-80648259D01*
X144027308Y-80631463D01*
X144093444Y-80653999D01*
X144132486Y-80699056D01*
X144136951Y-80707820D01*
X144261890Y-80879786D01*
X144412213Y-81030109D01*
X144584179Y-81155048D01*
X144584181Y-81155049D01*
X144584184Y-81155051D01*
X144773588Y-81251557D01*
X144975757Y-81317246D01*
X145185713Y-81350500D01*
X145185714Y-81350500D01*
X145398286Y-81350500D01*
X145398287Y-81350500D01*
X145608243Y-81317246D01*
X145810412Y-81251557D01*
X145999816Y-81155051D01*
X146086138Y-81092335D01*
X146171786Y-81030109D01*
X146171788Y-81030106D01*
X146171792Y-81030104D01*
X146322104Y-80879792D01*
X146322106Y-80879788D01*
X146322109Y-80879786D01*
X146407890Y-80761717D01*
X146447051Y-80707816D01*
X146451793Y-80698508D01*
X146499763Y-80647711D01*
X146567583Y-80630911D01*
X146633719Y-80653445D01*
X146672763Y-80698500D01*
X146677373Y-80707547D01*
X146716728Y-80761716D01*
X147349037Y-80129408D01*
X147366075Y-80192993D01*
X147431901Y-80307007D01*
X147524993Y-80400099D01*
X147639007Y-80465925D01*
X147702590Y-80482962D01*
X147070282Y-81115269D01*
X147070282Y-81115270D01*
X147124449Y-81154624D01*
X147313782Y-81251095D01*
X147515870Y-81316757D01*
X147725754Y-81350000D01*
X147938246Y-81350000D01*
X148148127Y-81316757D01*
X148148130Y-81316757D01*
X148350217Y-81251095D01*
X148539554Y-81154622D01*
X148593716Y-81115270D01*
X148593717Y-81115270D01*
X147961408Y-80482962D01*
X148024993Y-80465925D01*
X148139007Y-80400099D01*
X148232099Y-80307007D01*
X148297925Y-80192993D01*
X148314962Y-80129408D01*
X148947270Y-80761717D01*
X148947270Y-80761716D01*
X148986622Y-80707555D01*
X148991232Y-80698507D01*
X149039205Y-80647709D01*
X149107025Y-80630912D01*
X149173161Y-80653447D01*
X149212204Y-80698504D01*
X149216949Y-80707817D01*
X149341890Y-80879786D01*
X149492213Y-81030109D01*
X149664179Y-81155048D01*
X149664181Y-81155049D01*
X149664184Y-81155051D01*
X149853588Y-81251557D01*
X150055757Y-81317246D01*
X150265713Y-81350500D01*
X150265714Y-81350500D01*
X150478286Y-81350500D01*
X150478287Y-81350500D01*
X150688243Y-81317246D01*
X150890412Y-81251557D01*
X151079816Y-81155051D01*
X151234516Y-81042656D01*
X151251784Y-81030110D01*
X151251784Y-81030109D01*
X151251792Y-81030104D01*
X151365329Y-80916566D01*
X151426648Y-80883084D01*
X151496340Y-80888068D01*
X151552274Y-80929939D01*
X151569189Y-80960917D01*
X151618202Y-81092328D01*
X151618206Y-81092335D01*
X151704452Y-81207544D01*
X151704455Y-81207547D01*
X151819664Y-81293793D01*
X151819671Y-81293797D01*
X151954517Y-81344091D01*
X151954516Y-81344091D01*
X151961444Y-81344835D01*
X152014127Y-81350500D01*
X153809872Y-81350499D01*
X153869483Y-81344091D01*
X154004331Y-81293796D01*
X154119546Y-81207546D01*
X154205796Y-81092331D01*
X154256091Y-80957483D01*
X154262500Y-80897873D01*
X154262499Y-79874038D01*
X156899500Y-79874038D01*
X156899500Y-80125962D01*
X156928175Y-80307007D01*
X156938910Y-80374785D01*
X157016760Y-80614383D01*
X157131132Y-80838848D01*
X157279201Y-81042649D01*
X157279205Y-81042654D01*
X157457345Y-81220794D01*
X157457350Y-81220798D01*
X157589427Y-81316757D01*
X157661155Y-81368870D01*
X157804184Y-81441747D01*
X157885616Y-81483239D01*
X157885618Y-81483239D01*
X157885621Y-81483241D01*
X158125215Y-81561090D01*
X158374038Y-81600500D01*
X158374039Y-81600500D01*
X158625961Y-81600500D01*
X158625962Y-81600500D01*
X158874785Y-81561090D01*
X159114379Y-81483241D01*
X159338845Y-81368870D01*
X159542656Y-81220793D01*
X159720793Y-81042656D01*
X159868870Y-80838845D01*
X159983241Y-80614379D01*
X160061090Y-80374785D01*
X160100500Y-80125962D01*
X160100500Y-79874038D01*
X160061090Y-79625215D01*
X159983241Y-79385621D01*
X159983239Y-79385618D01*
X159983239Y-79385616D01*
X159935763Y-79292440D01*
X159868870Y-79161155D01*
X159825985Y-79102129D01*
X159720798Y-78957350D01*
X159720794Y-78957345D01*
X159542654Y-78779205D01*
X159542649Y-78779201D01*
X159338848Y-78631132D01*
X159338847Y-78631131D01*
X159338845Y-78631130D01*
X159268747Y-78595413D01*
X159114383Y-78516760D01*
X158874785Y-78438910D01*
X158625962Y-78399500D01*
X158374038Y-78399500D01*
X158249626Y-78419205D01*
X158125214Y-78438910D01*
X157885616Y-78516760D01*
X157661151Y-78631132D01*
X157457350Y-78779201D01*
X157457345Y-78779205D01*
X157279205Y-78957345D01*
X157279201Y-78957350D01*
X157131132Y-79161151D01*
X157016760Y-79385616D01*
X156938910Y-79625214D01*
X156935547Y-79646446D01*
X156899500Y-79874038D01*
X154262499Y-79874038D01*
X154262499Y-79102128D01*
X154256091Y-79042517D01*
X154254810Y-79039083D01*
X154205797Y-78907671D01*
X154205793Y-78907664D01*
X154119547Y-78792455D01*
X154119544Y-78792452D01*
X154004335Y-78706206D01*
X154004328Y-78706202D01*
X153869482Y-78655908D01*
X153869483Y-78655908D01*
X153809883Y-78649501D01*
X153809881Y-78649500D01*
X153809873Y-78649500D01*
X153809864Y-78649500D01*
X152014129Y-78649500D01*
X152014123Y-78649501D01*
X151954516Y-78655908D01*
X151819671Y-78706202D01*
X151819664Y-78706206D01*
X151704455Y-78792452D01*
X151704452Y-78792455D01*
X151618206Y-78907664D01*
X151618203Y-78907669D01*
X151569189Y-79039083D01*
X151527317Y-79095016D01*
X151461853Y-79119433D01*
X151393580Y-79104581D01*
X151365326Y-79083430D01*
X151251786Y-78969890D01*
X151079820Y-78844951D01*
X150890414Y-78748444D01*
X150890413Y-78748443D01*
X150890412Y-78748443D01*
X150688243Y-78682754D01*
X150688241Y-78682753D01*
X150688240Y-78682753D01*
X150526957Y-78657208D01*
X150478287Y-78649500D01*
X150265713Y-78649500D01*
X150217042Y-78657208D01*
X150055760Y-78682753D01*
X149853585Y-78748444D01*
X149664179Y-78844951D01*
X149492213Y-78969890D01*
X149341890Y-79120213D01*
X149216949Y-79292182D01*
X149212202Y-79301499D01*
X149164227Y-79352293D01*
X149096405Y-79369087D01*
X149030271Y-79346548D01*
X148991234Y-79301495D01*
X148986626Y-79292452D01*
X148947270Y-79238282D01*
X148947269Y-79238282D01*
X148314962Y-79870590D01*
X148297925Y-79807007D01*
X148232099Y-79692993D01*
X148139007Y-79599901D01*
X148024993Y-79534075D01*
X147961409Y-79517037D01*
X148593716Y-78884728D01*
X148539550Y-78845375D01*
X148350217Y-78748904D01*
X148148129Y-78683242D01*
X147938246Y-78650000D01*
X147725754Y-78650000D01*
X147515872Y-78683242D01*
X147515869Y-78683242D01*
X147313782Y-78748904D01*
X147124439Y-78845380D01*
X147070282Y-78884727D01*
X147070282Y-78884728D01*
X147702591Y-79517037D01*
X147639007Y-79534075D01*
X147524993Y-79599901D01*
X147431901Y-79692993D01*
X147366075Y-79807007D01*
X147349037Y-79870591D01*
X146716728Y-79238282D01*
X146716727Y-79238282D01*
X146677380Y-79292440D01*
X146677376Y-79292446D01*
X146672760Y-79301505D01*
X146624781Y-79352297D01*
X146556959Y-79369087D01*
X146490826Y-79346543D01*
X146451794Y-79301493D01*
X146447051Y-79292184D01*
X146447049Y-79292181D01*
X146447048Y-79292179D01*
X146322109Y-79120213D01*
X146171786Y-78969890D01*
X145999820Y-78844951D01*
X145810414Y-78748444D01*
X145810413Y-78748443D01*
X145810412Y-78748443D01*
X145608243Y-78682754D01*
X145608241Y-78682753D01*
X145608240Y-78682753D01*
X145446957Y-78657208D01*
X145398287Y-78649500D01*
X145185713Y-78649500D01*
X145137042Y-78657208D01*
X144975760Y-78682753D01*
X144773585Y-78748444D01*
X144584179Y-78844951D01*
X144412213Y-78969890D01*
X144261890Y-79120213D01*
X144136949Y-79292182D01*
X144132484Y-79300946D01*
X144084509Y-79351742D01*
X144016688Y-79368536D01*
X143950553Y-79345998D01*
X143911516Y-79300946D01*
X143907050Y-79292182D01*
X143782109Y-79120213D01*
X143631786Y-78969890D01*
X143459820Y-78844951D01*
X143270414Y-78748444D01*
X143270413Y-78748443D01*
X143270412Y-78748443D01*
X143068243Y-78682754D01*
X143068241Y-78682753D01*
X143068240Y-78682753D01*
X142906957Y-78657208D01*
X142858287Y-78649500D01*
X142645713Y-78649500D01*
X142597042Y-78657208D01*
X142435760Y-78682753D01*
X142233585Y-78748444D01*
X142044179Y-78844951D01*
X141872213Y-78969890D01*
X141721890Y-79120213D01*
X141596949Y-79292182D01*
X141592484Y-79300946D01*
X141544509Y-79351742D01*
X141476688Y-79368536D01*
X141410553Y-79345998D01*
X141371516Y-79300946D01*
X141367050Y-79292182D01*
X141242109Y-79120213D01*
X141091786Y-78969890D01*
X140919820Y-78844951D01*
X140730414Y-78748444D01*
X140730413Y-78748443D01*
X140730412Y-78748443D01*
X140528243Y-78682754D01*
X140528241Y-78682753D01*
X140528240Y-78682753D01*
X140366957Y-78657208D01*
X140318287Y-78649500D01*
X140105713Y-78649500D01*
X140057042Y-78657208D01*
X139895760Y-78682753D01*
X139693585Y-78748444D01*
X139504179Y-78844951D01*
X139332213Y-78969890D01*
X139181890Y-79120213D01*
X139056949Y-79292182D01*
X139052484Y-79300946D01*
X139004509Y-79351742D01*
X138936688Y-79368536D01*
X138870553Y-79345998D01*
X138831516Y-79300946D01*
X138827050Y-79292182D01*
X138702109Y-79120213D01*
X138551786Y-78969890D01*
X138379820Y-78844951D01*
X138190414Y-78748444D01*
X138190413Y-78748443D01*
X138190412Y-78748443D01*
X137988243Y-78682754D01*
X137988241Y-78682753D01*
X137988240Y-78682753D01*
X137826957Y-78657208D01*
X137778287Y-78649500D01*
X137565713Y-78649500D01*
X137517042Y-78657208D01*
X137355760Y-78682753D01*
X137153585Y-78748444D01*
X136964179Y-78844951D01*
X136792213Y-78969890D01*
X136641890Y-79120213D01*
X136516949Y-79292182D01*
X136512484Y-79300946D01*
X136464509Y-79351742D01*
X136396688Y-79368536D01*
X136330553Y-79345998D01*
X136291516Y-79300946D01*
X136287050Y-79292182D01*
X136162109Y-79120213D01*
X136011786Y-78969890D01*
X135839820Y-78844951D01*
X135650414Y-78748444D01*
X135650413Y-78748443D01*
X135650412Y-78748443D01*
X135448243Y-78682754D01*
X135448241Y-78682753D01*
X135448240Y-78682753D01*
X135286957Y-78657208D01*
X135238287Y-78649500D01*
X135025713Y-78649500D01*
X134977042Y-78657208D01*
X134815760Y-78682753D01*
X134613585Y-78748444D01*
X134424179Y-78844951D01*
X134252213Y-78969890D01*
X134101890Y-79120213D01*
X133976951Y-79292179D01*
X133880444Y-79481585D01*
X133814753Y-79683760D01*
X133781500Y-79893713D01*
X131144500Y-79893713D01*
X131144500Y-79874038D01*
X131105090Y-79625215D01*
X131027241Y-79385621D01*
X131027239Y-79385618D01*
X131027239Y-79385616D01*
X130979763Y-79292440D01*
X130912870Y-79161155D01*
X130869985Y-79102129D01*
X130764798Y-78957350D01*
X130764794Y-78957345D01*
X130586654Y-78779205D01*
X130586649Y-78779201D01*
X130382848Y-78631132D01*
X130382847Y-78631131D01*
X130382845Y-78631130D01*
X130312747Y-78595413D01*
X130158383Y-78516760D01*
X129918785Y-78438910D01*
X129669962Y-78399500D01*
X129418038Y-78399500D01*
X129293626Y-78419205D01*
X129169214Y-78438910D01*
X128929616Y-78516760D01*
X128705151Y-78631132D01*
X128501350Y-78779201D01*
X128501345Y-78779205D01*
X128323205Y-78957345D01*
X128323201Y-78957350D01*
X128175132Y-79161151D01*
X128060760Y-79385616D01*
X127982910Y-79625214D01*
X127979547Y-79646446D01*
X127943500Y-79874038D01*
X97904439Y-79874038D01*
X97971582Y-79806895D01*
X97971587Y-79806889D01*
X97979295Y-79796281D01*
X97979295Y-79796280D01*
X98091859Y-79641349D01*
X98184755Y-79459029D01*
X98247990Y-79264413D01*
X98256609Y-79210000D01*
X96613012Y-79210000D01*
X96645925Y-79152993D01*
X96680000Y-79025826D01*
X96680000Y-78894174D01*
X96645925Y-78767007D01*
X96613012Y-78710000D01*
X98256609Y-78710000D01*
X98247990Y-78655586D01*
X98184755Y-78460970D01*
X98091859Y-78278650D01*
X97971582Y-78113105D01*
X97971582Y-78113104D01*
X97826895Y-77968417D01*
X97661349Y-77848140D01*
X97479031Y-77755244D01*
X97284417Y-77692009D01*
X97095731Y-77662124D01*
X97032596Y-77632194D01*
X96995665Y-77572883D01*
X96996663Y-77503020D01*
X97035273Y-77444788D01*
X97090938Y-77418034D01*
X97271835Y-77382051D01*
X97453914Y-77306632D01*
X97617782Y-77197139D01*
X97757139Y-77057782D01*
X97866632Y-76893914D01*
X97942051Y-76711835D01*
X97980500Y-76518541D01*
X97980500Y-76321459D01*
X97980500Y-76321456D01*
X97942052Y-76128170D01*
X97942051Y-76128169D01*
X97942051Y-76128165D01*
X97942049Y-76128160D01*
X97866635Y-75946092D01*
X97866628Y-75946079D01*
X97757139Y-75782218D01*
X97757136Y-75782214D01*
X97617785Y-75642863D01*
X97617781Y-75642860D01*
X97453920Y-75533371D01*
X97453907Y-75533364D01*
X97271839Y-75457950D01*
X97271829Y-75457947D01*
X97078543Y-75419500D01*
X97078541Y-75419500D01*
X95881459Y-75419500D01*
X95881457Y-75419500D01*
X95688170Y-75457947D01*
X95688160Y-75457950D01*
X95506092Y-75533364D01*
X95506079Y-75533371D01*
X95342218Y-75642860D01*
X95342214Y-75642863D01*
X95202863Y-75782214D01*
X95202860Y-75782218D01*
X95093371Y-75946079D01*
X95093364Y-75946092D01*
X95017950Y-76128160D01*
X95017947Y-76128170D01*
X94979500Y-76321456D01*
X94979500Y-76321459D01*
X94979500Y-76518541D01*
X94979500Y-76518543D01*
X94979499Y-76518543D01*
X95017947Y-76711829D01*
X95017950Y-76711839D01*
X95093364Y-76893907D01*
X95093371Y-76893920D01*
X95202860Y-77057781D01*
X95202863Y-77057785D01*
X95342214Y-77197136D01*
X95342218Y-77197139D01*
X95506079Y-77306628D01*
X95506092Y-77306635D01*
X95688160Y-77382049D01*
X95688165Y-77382051D01*
X95820674Y-77408409D01*
X95869061Y-77418034D01*
X95930972Y-77450419D01*
X95965546Y-77511134D01*
X95961807Y-77580904D01*
X95920940Y-77637576D01*
X95864269Y-77662124D01*
X95675581Y-77692010D01*
X95480968Y-77755244D01*
X95298650Y-77848140D01*
X95133105Y-77968417D01*
X95133104Y-77968417D01*
X94988417Y-78113104D01*
X94988417Y-78113105D01*
X94868140Y-78278650D01*
X94775244Y-78460970D01*
X94712009Y-78655586D01*
X94703391Y-78710000D01*
X89500500Y-78710000D01*
X89500500Y-73978543D01*
X94979499Y-73978543D01*
X95017947Y-74171829D01*
X95017950Y-74171839D01*
X95093364Y-74353907D01*
X95093371Y-74353920D01*
X95202860Y-74517781D01*
X95202863Y-74517785D01*
X95342214Y-74657136D01*
X95342218Y-74657139D01*
X95506079Y-74766628D01*
X95506092Y-74766635D01*
X95688160Y-74842049D01*
X95688165Y-74842051D01*
X95688169Y-74842051D01*
X95688170Y-74842052D01*
X95881456Y-74880500D01*
X95881459Y-74880500D01*
X97078543Y-74880500D01*
X97229359Y-74850500D01*
X97271835Y-74842051D01*
X97453914Y-74766632D01*
X97617782Y-74657139D01*
X97757139Y-74517782D01*
X97866632Y-74353914D01*
X97942051Y-74171835D01*
X97972608Y-74018217D01*
X97980500Y-73978543D01*
X97980500Y-73916228D01*
X108649500Y-73916228D01*
X108649500Y-74083771D01*
X108682181Y-74248073D01*
X108682184Y-74248082D01*
X108746296Y-74402863D01*
X108746297Y-74402866D01*
X108839372Y-74542161D01*
X108839375Y-74542165D01*
X112957830Y-78660619D01*
X112957831Y-78660620D01*
X112957834Y-78660622D01*
X112957838Y-78660626D01*
X113097137Y-78753704D01*
X113174525Y-78785758D01*
X113174526Y-78785759D01*
X113190692Y-78792455D01*
X113251918Y-78817816D01*
X113388326Y-78844949D01*
X113416228Y-78850499D01*
X113416232Y-78850500D01*
X113416233Y-78850500D01*
X126583768Y-78850500D01*
X126583769Y-78850499D01*
X126748082Y-78817816D01*
X126902863Y-78753703D01*
X127042162Y-78660626D01*
X127160626Y-78542162D01*
X127253703Y-78402863D01*
X127317816Y-78248082D01*
X127350500Y-78083767D01*
X127350500Y-77916233D01*
X127317816Y-77751918D01*
X127253703Y-77597137D01*
X127222537Y-77550494D01*
X127160626Y-77457837D01*
X127042162Y-77339373D01*
X126902860Y-77246295D01*
X126748082Y-77182184D01*
X126748074Y-77182182D01*
X126583771Y-77149500D01*
X126583767Y-77149500D01*
X113903650Y-77149500D01*
X113836611Y-77129815D01*
X113815969Y-77113181D01*
X111358481Y-74655692D01*
X110042165Y-73339375D01*
X110042161Y-73339372D01*
X109902866Y-73246297D01*
X109902863Y-73246296D01*
X109748082Y-73182184D01*
X109748073Y-73182181D01*
X109583771Y-73149500D01*
X109583767Y-73149500D01*
X109416233Y-73149500D01*
X109416228Y-73149500D01*
X109251926Y-73182181D01*
X109251917Y-73182184D01*
X109097136Y-73246296D01*
X109097133Y-73246297D01*
X108957838Y-73339372D01*
X108957834Y-73339375D01*
X108839375Y-73457834D01*
X108839372Y-73457838D01*
X108746297Y-73597133D01*
X108746296Y-73597136D01*
X108682184Y-73751917D01*
X108682181Y-73751926D01*
X108649500Y-73916228D01*
X97980500Y-73916228D01*
X97980500Y-73781456D01*
X97942052Y-73588170D01*
X97942051Y-73588169D01*
X97942051Y-73588165D01*
X97894970Y-73474500D01*
X97866635Y-73406092D01*
X97866628Y-73406079D01*
X97757139Y-73242218D01*
X97757136Y-73242214D01*
X97617785Y-73102863D01*
X97617781Y-73102860D01*
X97453920Y-72993371D01*
X97453907Y-72993364D01*
X97271839Y-72917950D01*
X97271829Y-72917947D01*
X97078543Y-72879500D01*
X97078541Y-72879500D01*
X95881459Y-72879500D01*
X95881457Y-72879500D01*
X95688170Y-72917947D01*
X95688160Y-72917950D01*
X95506092Y-72993364D01*
X95506079Y-72993371D01*
X95342218Y-73102860D01*
X95342214Y-73102863D01*
X95202863Y-73242214D01*
X95202860Y-73242218D01*
X95093371Y-73406079D01*
X95093364Y-73406092D01*
X95017950Y-73588160D01*
X95017947Y-73588170D01*
X94979500Y-73781456D01*
X94979500Y-73781459D01*
X94979500Y-73978541D01*
X94979500Y-73978543D01*
X94979499Y-73978543D01*
X89500500Y-73978543D01*
X89500500Y-72416228D01*
X128082400Y-72416228D01*
X128082400Y-72583771D01*
X128115082Y-72748074D01*
X128115084Y-72748082D01*
X128179195Y-72902860D01*
X128272273Y-73042162D01*
X128390737Y-73160626D01*
X128439178Y-73192993D01*
X128530037Y-73253703D01*
X128684818Y-73317816D01*
X128849128Y-73350499D01*
X128849132Y-73350500D01*
X128849133Y-73350500D01*
X138946000Y-73350500D01*
X139013039Y-73370185D01*
X139058794Y-73422989D01*
X139070000Y-73474500D01*
X139070000Y-73606246D01*
X139103242Y-73816127D01*
X139103242Y-73816130D01*
X139168904Y-74018217D01*
X139265375Y-74207550D01*
X139304728Y-74261716D01*
X139937036Y-73629407D01*
X139954075Y-73692993D01*
X140019901Y-73807007D01*
X140112993Y-73900099D01*
X140227007Y-73965925D01*
X140290590Y-73982962D01*
X139658282Y-74615269D01*
X139658282Y-74615270D01*
X139712449Y-74654624D01*
X139901782Y-74751095D01*
X140103870Y-74816757D01*
X140313754Y-74850000D01*
X140526246Y-74850000D01*
X140736127Y-74816757D01*
X140736130Y-74816757D01*
X140938217Y-74751095D01*
X141127554Y-74654622D01*
X141181716Y-74615270D01*
X141181717Y-74615270D01*
X140549408Y-73982962D01*
X140612993Y-73965925D01*
X140727007Y-73900099D01*
X140820099Y-73807007D01*
X140885925Y-73692993D01*
X140902962Y-73629409D01*
X141535270Y-74261717D01*
X141535270Y-74261716D01*
X141574622Y-74207555D01*
X141579232Y-74198507D01*
X141627205Y-74147709D01*
X141695025Y-74130912D01*
X141761161Y-74153447D01*
X141800204Y-74198504D01*
X141804949Y-74207817D01*
X141929890Y-74379786D01*
X142080213Y-74530109D01*
X142252179Y-74655048D01*
X142252181Y-74655049D01*
X142252184Y-74655051D01*
X142441588Y-74751557D01*
X142643757Y-74817246D01*
X142853713Y-74850500D01*
X142853714Y-74850500D01*
X143066286Y-74850500D01*
X143066287Y-74850500D01*
X143276243Y-74817246D01*
X143478412Y-74751557D01*
X143667816Y-74655051D01*
X143754138Y-74592335D01*
X143839786Y-74530109D01*
X143839788Y-74530106D01*
X143839792Y-74530104D01*
X143990104Y-74379792D01*
X143990106Y-74379788D01*
X143990109Y-74379786D01*
X144115048Y-74207820D01*
X144115050Y-74207817D01*
X144115051Y-74207816D01*
X144119514Y-74199054D01*
X144167488Y-74148259D01*
X144235308Y-74131463D01*
X144301444Y-74153999D01*
X144340486Y-74199056D01*
X144344951Y-74207820D01*
X144469890Y-74379786D01*
X144620213Y-74530109D01*
X144792179Y-74655048D01*
X144792181Y-74655049D01*
X144792184Y-74655051D01*
X144981588Y-74751557D01*
X145183757Y-74817246D01*
X145393713Y-74850500D01*
X145393714Y-74850500D01*
X145606286Y-74850500D01*
X145606287Y-74850500D01*
X145816243Y-74817246D01*
X146018412Y-74751557D01*
X146207816Y-74655051D01*
X146294147Y-74592328D01*
X146379784Y-74530110D01*
X146379784Y-74530109D01*
X146379792Y-74530104D01*
X146493329Y-74416566D01*
X146554648Y-74383084D01*
X146624340Y-74388068D01*
X146680274Y-74429939D01*
X146697189Y-74460917D01*
X146746202Y-74592328D01*
X146746206Y-74592335D01*
X146832452Y-74707544D01*
X146832455Y-74707547D01*
X146947664Y-74793793D01*
X146947671Y-74793797D01*
X147082517Y-74844091D01*
X147082516Y-74844091D01*
X147089444Y-74844835D01*
X147142127Y-74850500D01*
X148937872Y-74850499D01*
X148997483Y-74844091D01*
X149132331Y-74793796D01*
X149247546Y-74707546D01*
X149333796Y-74592331D01*
X149384091Y-74457483D01*
X149390500Y-74397873D01*
X149390499Y-72602128D01*
X149384091Y-72542517D01*
X149382810Y-72539083D01*
X149333797Y-72407671D01*
X149333793Y-72407664D01*
X149247547Y-72292455D01*
X149247544Y-72292452D01*
X149132335Y-72206206D01*
X149132328Y-72206202D01*
X148997482Y-72155908D01*
X148997483Y-72155908D01*
X148937883Y-72149501D01*
X148937881Y-72149500D01*
X148937873Y-72149500D01*
X148937864Y-72149500D01*
X147142129Y-72149500D01*
X147142123Y-72149501D01*
X147082516Y-72155908D01*
X146947671Y-72206202D01*
X146947664Y-72206206D01*
X146832455Y-72292452D01*
X146832452Y-72292455D01*
X146746206Y-72407664D01*
X146746203Y-72407669D01*
X146697189Y-72539083D01*
X146655317Y-72595016D01*
X146589853Y-72619433D01*
X146521580Y-72604581D01*
X146493326Y-72583430D01*
X146379786Y-72469890D01*
X146207820Y-72344951D01*
X146018414Y-72248444D01*
X146018413Y-72248443D01*
X146018412Y-72248443D01*
X145839321Y-72190252D01*
X145781646Y-72150815D01*
X145763079Y-72119775D01*
X145753703Y-72097137D01*
X145753702Y-72097135D01*
X145753701Y-72097133D01*
X145660626Y-71957838D01*
X145660623Y-71957834D01*
X145542162Y-71839373D01*
X145402860Y-71746295D01*
X145248082Y-71682184D01*
X145248074Y-71682182D01*
X145083771Y-71649500D01*
X145083767Y-71649500D01*
X128849133Y-71649500D01*
X128849128Y-71649500D01*
X128684825Y-71682182D01*
X128684817Y-71682184D01*
X128530039Y-71746295D01*
X128390737Y-71839373D01*
X128272273Y-71957837D01*
X128179195Y-72097139D01*
X128115084Y-72251917D01*
X128115082Y-72251925D01*
X128082400Y-72416228D01*
X89500500Y-72416228D01*
X89500500Y-70735730D01*
X94979500Y-70735730D01*
X94979500Y-71944269D01*
X94982353Y-71974699D01*
X94982353Y-71974701D01*
X95025197Y-72097139D01*
X95027207Y-72102882D01*
X95107850Y-72212150D01*
X95217118Y-72292793D01*
X95259845Y-72307744D01*
X95345299Y-72337646D01*
X95375730Y-72340500D01*
X95375734Y-72340500D01*
X97584270Y-72340500D01*
X97614699Y-72337646D01*
X97614701Y-72337646D01*
X97711104Y-72303912D01*
X97742882Y-72292793D01*
X97852150Y-72212150D01*
X97932793Y-72102882D01*
X97955219Y-72038790D01*
X97977646Y-71974701D01*
X97977646Y-71974699D01*
X97980500Y-71944269D01*
X97980500Y-70735730D01*
X97977646Y-70705300D01*
X97977646Y-70705298D01*
X97932793Y-70577119D01*
X97932792Y-70577117D01*
X97852150Y-70467850D01*
X97742882Y-70387207D01*
X97742880Y-70387206D01*
X97614700Y-70342353D01*
X97584270Y-70339500D01*
X97584266Y-70339500D01*
X95375734Y-70339500D01*
X95375730Y-70339500D01*
X95345300Y-70342353D01*
X95345298Y-70342353D01*
X95217119Y-70387206D01*
X95217117Y-70387207D01*
X95107850Y-70467850D01*
X95027207Y-70577117D01*
X95027206Y-70577119D01*
X94982353Y-70705298D01*
X94982353Y-70705300D01*
X94979500Y-70735730D01*
X89500500Y-70735730D01*
X89500500Y-69397648D01*
X118079500Y-69397648D01*
X118079500Y-69602351D01*
X118111522Y-69804534D01*
X118174781Y-69999223D01*
X118267715Y-70181613D01*
X118388028Y-70347213D01*
X118532786Y-70491971D01*
X118649985Y-70577119D01*
X118698390Y-70612287D01*
X118814607Y-70671503D01*
X118880776Y-70705218D01*
X118880778Y-70705218D01*
X118880781Y-70705220D01*
X118985137Y-70739127D01*
X119075465Y-70768477D01*
X119176557Y-70784488D01*
X119277648Y-70800500D01*
X119277649Y-70800500D01*
X119482351Y-70800500D01*
X119482352Y-70800500D01*
X119684534Y-70768477D01*
X119879219Y-70705220D01*
X120061610Y-70612287D01*
X120154590Y-70544732D01*
X120227213Y-70491971D01*
X120227215Y-70491968D01*
X120227219Y-70491966D01*
X120371966Y-70347219D01*
X120371968Y-70347215D01*
X120371971Y-70347213D01*
X120424732Y-70274590D01*
X120492287Y-70181610D01*
X120585220Y-69999219D01*
X120648477Y-69804534D01*
X120680500Y-69602352D01*
X120680500Y-69397648D01*
X125699500Y-69397648D01*
X125699500Y-69602351D01*
X125731522Y-69804534D01*
X125794781Y-69999223D01*
X125887715Y-70181613D01*
X126008028Y-70347213D01*
X126152786Y-70491971D01*
X126269985Y-70577119D01*
X126318390Y-70612287D01*
X126434607Y-70671503D01*
X126500776Y-70705218D01*
X126500778Y-70705218D01*
X126500781Y-70705220D01*
X126605137Y-70739127D01*
X126695465Y-70768477D01*
X126796557Y-70784488D01*
X126897648Y-70800500D01*
X126897649Y-70800500D01*
X127102351Y-70800500D01*
X127102352Y-70800500D01*
X127304534Y-70768477D01*
X127499219Y-70705220D01*
X127681610Y-70612287D01*
X127774590Y-70544732D01*
X127847213Y-70491971D01*
X127847215Y-70491968D01*
X127847219Y-70491966D01*
X127991966Y-70347219D01*
X127991968Y-70347215D01*
X127991971Y-70347213D01*
X128044732Y-70274590D01*
X128112287Y-70181610D01*
X128205220Y-69999219D01*
X128268477Y-69804534D01*
X128300500Y-69602352D01*
X128300500Y-69397648D01*
X128268477Y-69195466D01*
X128205220Y-69000781D01*
X128205218Y-69000778D01*
X128205218Y-69000776D01*
X128171503Y-68934607D01*
X128112287Y-68818390D01*
X128104556Y-68807749D01*
X127991971Y-68652786D01*
X127847213Y-68508028D01*
X127681613Y-68387715D01*
X127681612Y-68387714D01*
X127681610Y-68387713D01*
X127624653Y-68358691D01*
X127499223Y-68294781D01*
X127304534Y-68231522D01*
X127129995Y-68203878D01*
X127102352Y-68199500D01*
X126897648Y-68199500D01*
X126873329Y-68203351D01*
X126695465Y-68231522D01*
X126500776Y-68294781D01*
X126318386Y-68387715D01*
X126152786Y-68508028D01*
X126008028Y-68652786D01*
X125887715Y-68818386D01*
X125794781Y-69000776D01*
X125731522Y-69195465D01*
X125699500Y-69397648D01*
X120680500Y-69397648D01*
X120648477Y-69195466D01*
X120585220Y-69000781D01*
X120585218Y-69000778D01*
X120585218Y-69000776D01*
X120551503Y-68934607D01*
X120492287Y-68818390D01*
X120484556Y-68807749D01*
X120371971Y-68652786D01*
X120227213Y-68508028D01*
X120061613Y-68387715D01*
X120061612Y-68387714D01*
X120061610Y-68387713D01*
X120004653Y-68358691D01*
X119879223Y-68294781D01*
X119684534Y-68231522D01*
X119509995Y-68203878D01*
X119482352Y-68199500D01*
X119277648Y-68199500D01*
X119253329Y-68203351D01*
X119075465Y-68231522D01*
X118880776Y-68294781D01*
X118698386Y-68387715D01*
X118532786Y-68508028D01*
X118388028Y-68652786D01*
X118267715Y-68818386D01*
X118174781Y-69000776D01*
X118111522Y-69195465D01*
X118079500Y-69397648D01*
X89500500Y-69397648D01*
X89500500Y-63397648D01*
X118079500Y-63397648D01*
X118079500Y-63602351D01*
X118111522Y-63804534D01*
X118174781Y-63999223D01*
X118238691Y-64124653D01*
X118267585Y-64181359D01*
X118267715Y-64181613D01*
X118388028Y-64347213D01*
X118532786Y-64491971D01*
X118653226Y-64579474D01*
X118698390Y-64612287D01*
X118814607Y-64671503D01*
X118880776Y-64705218D01*
X118880778Y-64705218D01*
X118880781Y-64705220D01*
X118985137Y-64739127D01*
X119075465Y-64768477D01*
X119176557Y-64784488D01*
X119277648Y-64800500D01*
X119277649Y-64800500D01*
X119482351Y-64800500D01*
X119482352Y-64800500D01*
X119684534Y-64768477D01*
X119879219Y-64705220D01*
X120061610Y-64612287D01*
X120154590Y-64544732D01*
X120227213Y-64491971D01*
X120227215Y-64491968D01*
X120227219Y-64491966D01*
X120371966Y-64347219D01*
X120371968Y-64347215D01*
X120371971Y-64347213D01*
X120424732Y-64274590D01*
X120492287Y-64181610D01*
X120585220Y-63999219D01*
X120648477Y-63804534D01*
X120680500Y-63602352D01*
X120680500Y-63397682D01*
X125700000Y-63397682D01*
X125700000Y-63602317D01*
X125732009Y-63804417D01*
X125795244Y-63999031D01*
X125888141Y-64181350D01*
X125888147Y-64181359D01*
X125920523Y-64225921D01*
X125920524Y-64225922D01*
X126600000Y-63546446D01*
X126600000Y-63552661D01*
X126627259Y-63654394D01*
X126679920Y-63745606D01*
X126754394Y-63820080D01*
X126845606Y-63872741D01*
X126947339Y-63900000D01*
X126953553Y-63900000D01*
X126274076Y-64579474D01*
X126318650Y-64611859D01*
X126500968Y-64704755D01*
X126695582Y-64767990D01*
X126897683Y-64800000D01*
X127102317Y-64800000D01*
X127304417Y-64767990D01*
X127499031Y-64704755D01*
X127681349Y-64611859D01*
X127725921Y-64579474D01*
X127046447Y-63900000D01*
X127052661Y-63900000D01*
X127154394Y-63872741D01*
X127245606Y-63820080D01*
X127320080Y-63745606D01*
X127372741Y-63654394D01*
X127400000Y-63552661D01*
X127400000Y-63546447D01*
X128079474Y-64225921D01*
X128111859Y-64181349D01*
X128204755Y-63999031D01*
X128267990Y-63804417D01*
X128300000Y-63602317D01*
X128300000Y-63397682D01*
X128267990Y-63195582D01*
X128204755Y-63000968D01*
X128111859Y-62818650D01*
X128079474Y-62774077D01*
X128079474Y-62774076D01*
X127400000Y-63453551D01*
X127400000Y-63447339D01*
X127372741Y-63345606D01*
X127320080Y-63254394D01*
X127245606Y-63179920D01*
X127154394Y-63127259D01*
X127052661Y-63100000D01*
X127046446Y-63100000D01*
X127725922Y-62420524D01*
X127725921Y-62420523D01*
X127681359Y-62388147D01*
X127681350Y-62388141D01*
X127499031Y-62295244D01*
X127304417Y-62232009D01*
X127102317Y-62200000D01*
X126897683Y-62200000D01*
X126695582Y-62232009D01*
X126500968Y-62295244D01*
X126318644Y-62388143D01*
X126274077Y-62420523D01*
X126274077Y-62420524D01*
X126953554Y-63100000D01*
X126947339Y-63100000D01*
X126845606Y-63127259D01*
X126754394Y-63179920D01*
X126679920Y-63254394D01*
X126627259Y-63345606D01*
X126600000Y-63447339D01*
X126600000Y-63453553D01*
X125920524Y-62774077D01*
X125920523Y-62774077D01*
X125888143Y-62818644D01*
X125795244Y-63000968D01*
X125732009Y-63195582D01*
X125700000Y-63397682D01*
X120680500Y-63397682D01*
X120680500Y-63397648D01*
X120672257Y-63345606D01*
X120648477Y-63195465D01*
X120617458Y-63100000D01*
X120585220Y-63000781D01*
X120585218Y-63000778D01*
X120585218Y-63000776D01*
X120492419Y-62818650D01*
X120492287Y-62818390D01*
X120460092Y-62774077D01*
X120371971Y-62652786D01*
X120227213Y-62508028D01*
X120061613Y-62387715D01*
X120061612Y-62387714D01*
X120061610Y-62387713D01*
X120004653Y-62358691D01*
X119879223Y-62294781D01*
X119684534Y-62231522D01*
X119509995Y-62203878D01*
X119482352Y-62199500D01*
X119277648Y-62199500D01*
X119253329Y-62203351D01*
X119075465Y-62231522D01*
X118880776Y-62294781D01*
X118698386Y-62387715D01*
X118532786Y-62508028D01*
X118388028Y-62652786D01*
X118267715Y-62818386D01*
X118174781Y-63000776D01*
X118111522Y-63195465D01*
X118079500Y-63397648D01*
X89500500Y-63397648D01*
X89500500Y-51381902D01*
X90999500Y-51381902D01*
X90999500Y-51618097D01*
X91036446Y-51851368D01*
X91109433Y-52075996D01*
X91216657Y-52286433D01*
X91355483Y-52477510D01*
X91522490Y-52644517D01*
X91713567Y-52783343D01*
X91812991Y-52834002D01*
X91924003Y-52890566D01*
X91924005Y-52890566D01*
X91924008Y-52890568D01*
X92044412Y-52929689D01*
X92148631Y-52963553D01*
X92381903Y-53000500D01*
X92381908Y-53000500D01*
X92618097Y-53000500D01*
X92851368Y-52963553D01*
X93075992Y-52890568D01*
X93286433Y-52783343D01*
X93477510Y-52644517D01*
X93644517Y-52477510D01*
X93783343Y-52286433D01*
X93890568Y-52075992D01*
X93963553Y-51851368D01*
X94000500Y-51618097D01*
X94000500Y-51381902D01*
X170999500Y-51381902D01*
X170999500Y-51618097D01*
X171036446Y-51851368D01*
X171109433Y-52075996D01*
X171216657Y-52286433D01*
X171355483Y-52477510D01*
X171522490Y-52644517D01*
X171713567Y-52783343D01*
X171812991Y-52834002D01*
X171924003Y-52890566D01*
X171924005Y-52890566D01*
X171924008Y-52890568D01*
X172044412Y-52929689D01*
X172148631Y-52963553D01*
X172381903Y-53000500D01*
X172381908Y-53000500D01*
X172618097Y-53000500D01*
X172851368Y-52963553D01*
X173075992Y-52890568D01*
X173286433Y-52783343D01*
X173477510Y-52644517D01*
X173644517Y-52477510D01*
X173783343Y-52286433D01*
X173890568Y-52075992D01*
X173963553Y-51851368D01*
X174000500Y-51618097D01*
X174000500Y-51381902D01*
X173963553Y-51148631D01*
X173890566Y-50924003D01*
X173783342Y-50713566D01*
X173644517Y-50522490D01*
X173477510Y-50355483D01*
X173286433Y-50216657D01*
X173075996Y-50109433D01*
X172851368Y-50036446D01*
X172618097Y-49999500D01*
X172618092Y-49999500D01*
X172381908Y-49999500D01*
X172381903Y-49999500D01*
X172148631Y-50036446D01*
X171924003Y-50109433D01*
X171713566Y-50216657D01*
X171604550Y-50295862D01*
X171522490Y-50355483D01*
X171522488Y-50355485D01*
X171522487Y-50355485D01*
X171355485Y-50522487D01*
X171355485Y-50522488D01*
X171355483Y-50522490D01*
X171295862Y-50604550D01*
X171216657Y-50713566D01*
X171109433Y-50924003D01*
X171036446Y-51148631D01*
X170999500Y-51381902D01*
X94000500Y-51381902D01*
X93963553Y-51148631D01*
X93890566Y-50924003D01*
X93783342Y-50713566D01*
X93644517Y-50522490D01*
X93477510Y-50355483D01*
X93286433Y-50216657D01*
X93075996Y-50109433D01*
X92851368Y-50036446D01*
X92618097Y-49999500D01*
X92618092Y-49999500D01*
X92381908Y-49999500D01*
X92381903Y-49999500D01*
X92148631Y-50036446D01*
X91924003Y-50109433D01*
X91713566Y-50216657D01*
X91604550Y-50295862D01*
X91522490Y-50355483D01*
X91522488Y-50355485D01*
X91522487Y-50355485D01*
X91355485Y-50522487D01*
X91355485Y-50522488D01*
X91355483Y-50522490D01*
X91295862Y-50604550D01*
X91216657Y-50713566D01*
X91109433Y-50924003D01*
X91036446Y-51148631D01*
X90999500Y-51381902D01*
X89500500Y-51381902D01*
X89500500Y-48654124D01*
X89520185Y-48587085D01*
X89572989Y-48541330D01*
X89624500Y-48530124D01*
X175345876Y-48530124D01*
X175412915Y-48549809D01*
G37*
%TD.AperFunction*%
%TD*%
M02*
